<svg xmlns="http://www.w3.org/2000/svg" width="344" height="264" viewBox="0 0 344 264">
    <g fill="none" fill-rule="evenodd">
        <path fill="#FEFEFE" d="M341.696 97.226L173.562.404a3.175 3.175 0 0 0-3.168.005l-55.688 32.279a3.148 3.148 0 0 0 .008 5.454l168.135 96.822a3.164 3.164 0 0 0 3.168-.005l55.687-32.279a3.15 3.15 0 0 0-.008-5.454" opacity=".99"/>
        <path fill="#FFF" d="M229.51 161.621L117.42 97.074a3.163 3.163 0 0 0-3.168.004l-55.678 32.273a3.147 3.147 0 1 0 .008 5.455l112.093 64.545a3.163 3.163 0 0 0 3.168-.004l55.677-32.271a3.148 3.148 0 0 0-.008-5.455" opacity=".85"/>
        <path fill="#FFF" d="M117.332 225.237l-56.042-32.27a3.158 3.158 0 0 0-3.168.004L2.434 225.248a3.148 3.148 0 0 0 .008 5.456l56.042 32.271a3.158 3.158 0 0 0 3.168-.005l55.688-32.277a3.15 3.15 0 0 0-.008-5.456" opacity=".75"/>
    </g>
</svg>
