<?xml version="1.0" encoding="utf-8"?>
<!-- Generator: Adobe Illustrator 21.1.0, SVG Export Plug-In . SVG Version: 6.00 Build 0)  -->
<svg version="1.1" xmlns="http://www.w3.org/2000/svg" xmlns:xlink="http://www.w3.org/1999/xlink" x="0px" y="0px"
	 viewBox="0 0 458 124" enable-background="new 0 0 458 124" xml:space="preserve">
<g id="background">
	<rect y="-0.134" opacity="0.7" fill="#0A090A" width="458" height="124.267"/>
</g>
<g id="text_x5F_orignal" display="none">
	<text transform="matrix(1 0 0 1 -5.1255 92.4834)" display="inline" font-family="'Oswald-Medium'" font-size="84px">FUTUREWALKS</text>
</g>
<g id="Layer_3">
</g>
<g id="text_x5F_outline" display="none">
	<rect y="-0.134" display="inline" fill="#FFFFFF" width="458" height="124.267"/>
	<g display="inline">
		<path d="M0.984,27.896h27.972v8.568H13.333v19.824h12.768v8.652H13.333v30.996H0.984V27.896z"/>
		<path d="M41.892,94.171c-2.801-1.791-4.761-4.339-5.88-7.644c-1.121-3.304-1.68-7.504-1.68-12.6V27.896h12.096v47.46
			c0,3.92,0.462,6.944,1.386,9.072c0.924,2.129,2.814,3.191,5.67,3.191c2.911,0,4.83-1.062,5.754-3.191
			c0.924-2.128,1.386-5.152,1.386-9.072v-47.46h12.012v46.032c0,5.04-0.56,9.227-1.68,12.558c-1.121,3.332-3.081,5.895-5.88,7.686
			c-2.801,1.792-6.665,2.688-11.592,2.688C48.556,96.86,44.691,95.963,41.892,94.171z"/>
		<path d="M88.175,37.052h-11.34v-9.156h34.86v9.156h-11.172v58.884H88.175V37.052z"/>
		<path d="M123.371,94.171c-2.801-1.791-4.761-4.339-5.88-7.644c-1.121-3.304-1.68-7.504-1.68-12.6V27.896h12.096v47.46
			c0,3.92,0.462,6.944,1.386,9.072c0.924,2.129,2.814,3.191,5.67,3.191c2.911,0,4.83-1.062,5.754-3.191
			c0.924-2.128,1.386-5.152,1.386-9.072v-47.46h12.012v46.032c0,5.04-0.56,9.227-1.68,12.558c-1.121,3.332-3.081,5.895-5.88,7.686
			c-2.801,1.792-6.665,2.688-11.592,2.688C130.035,96.86,126.17,95.963,123.371,94.171z"/>
		<path d="M163.019,27.896h16.38c7.167,0,12.516,1.358,16.044,4.074c3.528,2.717,5.292,7.379,5.292,13.986
			c0,4.313-0.63,7.827-1.89,10.542c-1.26,2.717-3.431,4.691-6.51,5.922l9.492,33.516h-12.432l-8.148-31.164h-5.88v31.164h-12.348
			V27.896z M179.314,57.044c3.528,0,6.034-0.811,7.518-2.436c1.483-1.624,2.226-4.284,2.226-7.98c0-3.583-0.659-6.187-1.974-7.812
			c-1.316-1.624-3.683-2.436-7.098-2.436h-4.62v20.664H179.314z"/>
		<path d="M209.302,27.896h28.56v8.736H221.65v19.572h12.768v8.652H221.65v22.596h16.379v8.484h-28.728V27.896z"/>
		<path d="M241.977,27.896h10.332l5.628,44.1l7.057-43.932h8.399l7.309,43.932l5.544-44.1h10.248l-9.492,68.04h-10.08l-7.561-45.612
			l-7.476,45.612h-10.332L241.977,27.896z"/>
		<path d="M311.697,27.896h13.271l13.608,68.04h-11.508l-2.688-15.708h-11.844l-2.772,15.708h-11.676L311.697,27.896z
			 M323.037,72.332l-4.62-28.56l-4.62,28.56H323.037z"/>
		<path d="M344.54,27.896h12.349v59.556h16.548v8.484H344.54V27.896z"/>
		<path d="M379.063,27.896h12.348V57.8l13.524-29.904h11.844L403.759,58.22l14.364,37.716h-12.348l-11.34-30.912l-3.024,5.124
			v25.788h-12.348V27.896z"/>
		<path d="M426.146,91.652c-3.054-3.472-4.719-8.652-4.998-15.54l10.668-2.1c0.168,4.312,0.853,7.602,2.058,9.869
			c1.204,2.269,3.094,3.402,5.67,3.402c1.903,0,3.318-0.573,4.242-1.722c0.924-1.147,1.386-2.701,1.386-4.662
			c0-2.688-0.603-4.956-1.806-6.804c-1.205-1.849-3.095-3.92-5.67-6.217l-8.568-7.476c-2.633-2.352-4.606-4.773-5.922-7.266
			c-1.316-2.491-1.974-5.557-1.974-9.198c0-5.376,1.566-9.52,4.704-12.432c3.135-2.911,7.476-4.368,13.02-4.368
			c5.823,0,9.996,1.667,12.516,4.998c2.521,3.333,3.976,7.826,4.368,13.482l-10.668,1.848c-0.168-3.64-0.658-6.412-1.47-8.316
			c-0.812-1.903-2.395-2.856-4.746-2.856c-1.904,0-3.402,0.588-4.494,1.764s-1.638,2.717-1.638,4.62c0,2.184,0.447,4.004,1.344,5.46
			c0.896,1.457,2.296,3.053,4.2,4.788l8.484,7.476c3.191,2.856,5.683,5.825,7.476,8.904c1.792,3.08,2.688,6.692,2.688,10.836
			c0,3.248-0.714,6.132-2.142,8.651c-1.428,2.521-3.431,4.494-6.006,5.923c-2.576,1.428-5.544,2.142-8.904,2.142
			C433.804,96.86,429.197,95.125,426.146,91.652z"/>
	</g>
</g>
<g id="text_x5F_outline_copy">
	<g>
		<path fill="#FFFFFF" d="M179.986,36.38h-4.62v20.664h3.948c3.528,0,6.034-0.811,7.518-2.436c1.483-1.624,2.226-4.284,2.226-7.98
			c0-3.583-0.659-6.187-1.974-7.812C185.768,37.192,183.402,36.38,179.986,36.38z"/>
		<polygon fill="#FFFFFF" points="313.797,72.332 323.037,72.332 318.417,43.772 		"/>
		<path fill="#FFFFFF" d="M0-0.134v124.267h458V-0.134H0z M28.957,36.464H13.333v19.824h12.768v8.652H13.333v30.996H0.984v-68.04
			h27.972V36.464z M72.636,73.928c0,5.04-0.56,9.227-1.68,12.558c-1.121,3.332-3.081,5.895-5.88,7.686
			c-2.801,1.792-6.665,2.688-11.592,2.688c-4.928,0-8.792-0.896-11.592-2.688c-2.801-1.791-4.761-4.339-5.88-7.644
			c-1.121-3.304-1.68-7.504-1.68-12.6V27.896h12.096v47.46c0,3.92,0.462,6.944,1.386,9.072c0.924,2.129,2.814,3.191,5.67,3.191
			c2.911,0,4.83-1.062,5.754-3.191c0.924-2.128,1.386-5.152,1.386-9.072v-47.46h12.012V73.928z M111.695,37.052h-11.172v58.884
			H88.175V37.052h-11.34v-9.156h34.86V37.052z M154.115,73.928c0,5.04-0.56,9.227-1.68,12.558c-1.121,3.332-3.081,5.895-5.88,7.686
			c-2.801,1.792-6.665,2.688-11.592,2.688c-4.928,0-8.792-0.896-11.592-2.688c-2.801-1.791-4.761-4.339-5.88-7.644
			c-1.121-3.304-1.68-7.504-1.68-12.6V27.896h12.096v47.46c0,3.92,0.462,6.944,1.386,9.072c0.924,2.129,2.814,3.191,5.67,3.191
			c2.911,0,4.83-1.062,5.754-3.191c0.924-2.128,1.386-5.152,1.386-9.072v-47.46h12.012V73.928z M189.395,95.936l-8.148-31.164h-5.88
			v31.164h-12.348v-68.04h16.38c7.167,0,12.516,1.358,16.044,4.074c3.528,2.717,5.292,7.379,5.292,13.986
			c0,4.313-0.63,7.827-1.89,10.542c-1.26,2.717-3.431,4.691-6.51,5.922l9.492,33.516H189.395z M238.029,95.936h-28.728v-68.04h28.56
			v8.736H221.65v19.572h12.768v8.652H221.65v22.596h16.379V95.936z M287.001,95.936h-10.08l-7.561-45.612l-7.476,45.612h-10.332
			l-9.576-68.04h10.332l5.628,44.1l7.057-43.932h8.399l7.309,43.932l5.544-44.1h10.248L287.001,95.936z M327.069,95.936
			l-2.688-15.708h-11.844l-2.772,15.708h-11.676l13.608-68.04h13.271l13.608,68.04H327.069z M373.437,95.936H344.54v-68.04h12.349
			v59.556h16.548V95.936z M405.775,95.936l-11.34-30.912l-3.024,5.124v25.788h-12.348v-68.04h12.348V57.8l13.524-29.904h11.844
			L403.759,58.22l14.364,37.716H405.775z M454.874,88.795c-1.428,2.521-3.431,4.494-6.006,5.923
			c-2.576,1.428-5.544,2.142-8.904,2.142c-6.16,0-10.767-1.735-13.817-5.208c-3.054-3.472-4.719-8.652-4.998-15.54l10.668-2.1
			c0.168,4.312,0.853,7.602,2.058,9.869c1.204,2.269,3.094,3.402,5.67,3.402c1.903,0,3.318-0.573,4.242-1.722
			c0.924-1.147,1.386-2.701,1.386-4.662c0-2.688-0.603-4.956-1.806-6.804c-1.205-1.849-3.095-3.92-5.67-6.217l-8.568-7.476
			c-2.633-2.352-4.606-4.773-5.922-7.266c-1.316-2.491-1.974-5.557-1.974-9.198c0-5.376,1.566-9.52,4.704-12.432
			c3.135-2.911,7.476-4.368,13.02-4.368c5.823,0,9.996,1.667,12.516,4.998c2.521,3.333,3.976,7.826,4.368,13.482l-10.668,1.848
			c-0.168-3.64-0.658-6.412-1.47-8.316c-0.812-1.903-2.395-2.856-4.746-2.856c-1.904,0-3.402,0.588-4.494,1.764
			s-1.638,2.717-1.638,4.62c0,2.184,0.447,4.004,1.344,5.46c0.896,1.457,2.296,3.053,4.2,4.788l8.484,7.476
			c3.191,2.856,5.683,5.825,7.476,8.904c1.792,3.08,2.688,6.692,2.688,10.836C457.016,83.392,456.302,86.276,454.874,88.795z"/>
	</g>
</g>
</svg>
