<?xml version="1.0" encoding="utf-8"?>
<!-- Generator: Adobe Illustrator 17.0.0, SVG Export Plug-In . SVG Version: 6.00 Build 0)  -->
<!DOCTYPE svg PUBLIC "-//W3C//DTD SVG 1.1//EN" "http://www.w3.org/Graphics/SVG/1.1/DTD/svg11.dtd">
<svg version="1.1" id="Layer_1" xmlns="http://www.w3.org/2000/svg" xmlns:xlink="http://www.w3.org/1999/xlink" x="0px" y="0px"
	 width="35px" height="40px" viewBox="0 0 35 40" enable-background="new 0 0 35 40" xml:space="preserve">
<g>
	<path fill="#FFFFFF" d="M10.403,8.083l6.125-5.25v23c0,0.5,0.389,0.833,0.972,0.833s0.972-0.333,0.972-0.833v-23l6.125,5.25
		c0.194,0.167,0.486,0.25,0.681,0.25c0.194,0,0.486-0.083,0.681-0.25c0.389-0.333,0.389-0.833,0-1.167L18.181,0.25
		c-0.389-0.333-0.972-0.333-1.361,0L9.042,6.917c-0.389,0.333-0.389,0.833,0,1.167C9.431,8.417,10.014,8.417,10.403,8.083z"/>
	<path fill="#FFFFFF" d="M34.028,12.5H23.333c-0.583,0-0.972,0.333-0.972,0.833c0,0.5,0.389,0.833,0.972,0.833h9.722v24.167H1.944
		V14.167h9.722c0.583,0,0.972-0.333,0.972-0.833c0-0.5-0.389-0.833-0.972-0.833H0.972C0.389,12.5,0,12.833,0,13.333v25.833
		C0,39.667,0.389,40,0.972,40h33.056C34.611,40,35,39.667,35,39.167V13.333C35,12.833,34.611,12.5,34.028,12.5z"/>
</g>
</svg>
