<?xml version="1.0" encoding="utf-8"?>
<!-- Generator: Adobe Illustrator 17.0.0, SVG Export Plug-In . SVG Version: 6.00 Build 0)  -->
<!DOCTYPE svg PUBLIC "-//W3C//DTD SVG 1.1//EN" "http://www.w3.org/Graphics/SVG/1.1/DTD/svg11.dtd">
<svg version="1.1" id="Layer_1" xmlns="http://www.w3.org/2000/svg" xmlns:xlink="http://www.w3.org/1999/xlink" x="0px" y="0px"
	 width="100px" height="100px" viewBox="0 0 100 100" enable-background="new 0 0 100 100" xml:space="preserve">
<path fill="#444444" d="M0.692,100.307c0.924,0.924,2.421,0.924,3.345,0l7.877-7.877c1.415,0.841,3.057,1.333,4.81,1.333
	l23.819,0.012c2.317-0.074,4.646-0.993,6.399-2.753l48.453-48.455c3.687-3.684,3.692-9.787,0.005-13.478L71.909,5.602
	c-3.693-3.693-9.795-3.685-13.476,0.004L9.979,54.058c-1.763,1.761-2.671,4.071-2.748,6.393v23.822
	c0.001,1.756,0.496,3.398,1.338,4.813l-7.877,7.877C-0.231,97.886-0.231,99.384,0.692,100.307z M15.927,76.381
	c0.001-4.805,3.89-8.697,8.697-8.697c4.801,0,8.697,3.892,8.697,8.697c0,4.803-3.896,8.696-8.697,8.697
	c-1.544,0-2.99-0.407-4.247-1.111l3.717-3.717c1.211,0.183,2.489-0.181,3.422-1.115c1.561-1.561,1.561-4.092,0-5.653
	c-1.561-1.561-4.092-1.561-5.653,0c-0.933,0.933-1.295,2.21-1.115,3.421l-3.716,3.716C16.331,79.365,15.927,77.921,15.927,76.381z"
	/>
</svg>
