<svg id="Layer_1" data-name="Layer 1" xmlns="http://www.w3.org/2000/svg" width="48" height="48" viewBox="0 0 48 48"><defs><style>.cls-1{fill:#7c4dff;}.cls-2{fill:#fff;}.cls-3{fill:none;}</style></defs><title>hot_spot_circle</title><path class="cls-1" d="M24,46A22,22,0,1,1,46,24,22,22,0,0,1,24,46Z" transform="translate(0 0)"/><path class="cls-2" d="M24,4A20,20,0,1,1,4,24,20,20,0,0,1,24,4m0-4A24,24,0,1,0,48,24,24,24,0,0,0,24,0Z" transform="translate(0 0)"/><path class="cls-2" d="M26.46,5.62a35.16,35.16,0,0,1,1.21,7.78,5.68,5.68,0,0,1-5.23,6.09l-.35,0a6,6,0,0,1-5.93-6s0-.09,0-.14v-.58a22.52,22.52,0,0,0-5.23,14.63,13.09,13.09,0,0,0,26.18,0A28,28,0,0,0,26.46,5.62Zm-2.9,30a5.19,5.19,0,0,1-5.27-5.11v0a5.12,5.12,0,0,1,4.59-5.1,12.62,12.62,0,0,0,7.53-4.22,22.81,22.81,0,0,1,1,6.61,7.78,7.78,0,0,1-7.72,7.84Z" transform="translate(0 0)"/><path class="cls-3" d="M7.47,7.57H40.54V40.63H7.47Z" transform="translate(0 0)"/></svg>