<?xml version="1.0" encoding="UTF-8"?>
<svg width="24px" height="24px" viewBox="0 0 24 24" version="1.1" xmlns="http://www.w3.org/2000/svg" xmlns:xlink="http://www.w3.org/1999/xlink">
    <!-- Generator: Sketch 51.3 (57544) - http://www.bohemiancoding.com/sketch -->
    <title>ic_find_point</title>
    <desc>Created with Sketch.</desc>
    <defs>
        <path d="M2.79950716,8.12415065 C3.10807919,3.68672478 6.81732042,0.181608555 11.3465804,0.181608555 C16.0775559,0.181608555 19.9121168,4.00610417 19.9121168,8.72340426 C19.9121168,13.440352 16.0756077,17.2652 11.344279,17.2652 C9.20413279,17.2652 7.18337244,16.4773679 5.62260621,15.0801235 L6.85266579,13.714448 C8.07887624,14.8121882 9.6628609,15.4297349 11.344279,15.4297349 C15.0588178,15.4297349 18.0710558,12.4266526 18.0710558,8.72340426 C18.0710558,5.01963274 15.0605945,2.01707365 11.3465804,2.01707365 C7.79044258,2.01707365 4.87798558,4.76949292 4.63605748,8.25364392 L6.23799797,6.65657256 L7.53982471,7.95444238 L3.78187964,11.7009651 L0.026477203,7.9542019 L1.32878619,6.65681304 L2.79950716,8.12415065 Z M12.2463989,8.34195911 L15.7700841,11.8378911 L14.4714268,13.138913 L10.4053379,9.1048494 L10.4053379,3.48774006 L12.2463989,3.48774006 L12.2463989,8.34195911 Z" id="path-1"></path>
    </defs>
    <g id="Symbols" stroke="none" stroke-width="1" fill="none" fill-rule="evenodd">
        <g id="Side-Menu_Extend" transform="translate(-32.000000, -228.000000)">
            <g id="*/-Text-/-Active-/-Intent" transform="translate(33.000000, 224.000000)" fill="#262626" font-family="NotoSansCJKkr-Regular, Noto Sans CJK KR" font-size="18" font-weight="normal" letter-spacing="0.15">
                <text id="텍스트-메뉴">
                    <tspan x="31" y="21">정글 포인트 찾기</tspan>
                </text>
            </g>
            <g id="Icon-/-Find-Point" transform="translate(32.000000, 228.000000)">
                <g id="✱-/-Color-/-Icons-/-Black-/-Inactive" transform="translate(2.000000, 3.000000)">
                    <mask id="mask-2" fill="white">
                        <use xlink:href="#path-1"></use>
                    </mask>
                    <g id="Mask" fill-rule="nonzero"></g>
                    <g id="✱-/-Color-/-Primary-/-Black" mask="url(#mask-2)" fill="#262626">
                        <g transform="translate(-2.000000, -3.000000)" id="Rectangle">
                            <rect x="0" y="0" width="24" height="24"></rect>
                        </g>
                    </g>
                </g>
            </g>
        </g>
    </g>
</svg>