<?xml version="1.0" encoding="utf-8"?>
<!-- Generator: Adobe Illustrator 21.1.0, SVG Export Plug-In . SVG Version: 6.00 Build 0)  -->
<svg version="1.1" id="Layer_1" xmlns="http://www.w3.org/2000/svg" xmlns:xlink="http://www.w3.org/1999/xlink" x="0px" y="0px"
	 viewBox="0 0 24 24" style="enable-background:new 0 0 24 24;" xml:space="preserve">
<style type="text/css">
	.st0{fill:#FFFFFF;stroke:#000000;stroke-width:6;stroke-miterlimit:10;}
	.st1{fill:#FFFFFF;}
</style>
<g>
	<path class="st0" d="M15,21.2"/>
	<path class="st0" d="M15,3.2"/>
	<path class="st1" d="M5.3,4.5l0-1.2c0,0,0-0.1,0.1-0.1l9.4-1.7c0,0,0,0,0,0L19.4,2c0,0,0.1,0,0.1,0.1v1.2c0,0.1,0,0.1-0.1,0.1
		l-4.5-0.6L5.4,4.6C5.3,4.6,5.3,4.5,5.3,4.5z"/>
	<path class="st1" d="M21.7,20.8h-1.1V5l0.1,0c0,0,0.1,0,0.1-0.1V3.8c0,0,0-0.1-0.1-0.1l-6-0.7l-12,2.2c0,0-0.1,0.1-0.1,0.1l0,1.2
		c0,0.1,0.1,0.1,0.1,0.1l0.2,0v14.2H2.3C2.1,20.8,2,20.9,2,21v1.2c0,0.1,0.1,0.3,0.3,0.3h19.5c0.1,0,0.3-0.1,0.3-0.3V21
		C22,20.9,21.9,20.8,21.7,20.8z M4.5,6.3l10.3-1.9v16.4H4.5V6.3z"/>
	<polygon class="st1" points="7.6,19.4 5.1,19.4 5.1,17.2 7.6,17.1 	"/>
	<polygon class="st1" points="10.8,19.4 8.3,19.4 8.3,17.1 10.8,17 	"/>
	<polygon class="st1" points="13.9,19.4 11.4,19.4 11.4,17 13.9,16.9 	"/>
	<polygon class="st1" points="7.6,16 5.1,16.1 5.1,13.8 7.6,13.7 	"/>
	<polygon class="st1" points="10.8,15.9 8.3,16 8.3,13.6 10.8,13.5 	"/>
	<polygon class="st1" points="13.9,15.8 11.4,15.9 11.4,13.4 13.9,13.3 	"/>
	<polygon class="st1" points="7.6,12.6 5.1,12.8 5.1,10.4 7.6,10.1 	"/>
	<polygon class="st1" points="10.8,12.4 8.3,12.6 8.3,10 10.8,9.8 	"/>
	<polygon class="st1" points="13.9,12.2 11.4,12.4 11.4,9.7 13.9,9.4 	"/>
	<polygon class="st1" points="7.6,9.2 5.1,9.5 5.1,7.2 7.6,6.8 	"/>
	<polygon class="st1" points="10.8,8.8 8.3,9.1 8.3,6.7 10.8,6.3 	"/>
	<polygon class="st1" points="13.9,8.4 11.4,8.7 11.4,6.2 13.9,5.8 	"/>
</g>
</svg>
