<svg xmlns="http://www.w3.org/2000/svg" xmlns:xlink="http://www.w3.org/1999/xlink" viewBox="0 0 64 56">
  <defs>
    <rect id="ic_invite-b" width="801" height="384"/>
    <filter id="ic_invite-a" width="101.5%" height="103.1%" x="-.7%" y="-1.6%" filterUnits="objectBoundingBox">
      <feOffset in="SourceAlpha" result="shadowOffsetOuter1"/>
      <feGaussianBlur in="shadowOffsetOuter1" result="shadowBlurOuter1" stdDeviation="2"/>
      <feColorMatrix in="shadowBlurOuter1" values="0 0 0 0 0   0 0 0 0 0   0 0 0 0 0  0 0 0 0.5 0"/>
    </filter>
    <path id="ic_invite-c" d="M121.230769,50.9230769 L114.769231,50.9230769 L114.769231,44.4615385 L110.461538,44.4615385 L110.461538,50.9230769 L104,50.9230769 L104,55.2307692 L110.461538,55.2307692 L110.461538,61.6923077 L114.769231,61.6923077 L114.769231,55.2307692 L121.230769,55.2307692 L121.230769,50.9230769 Z M142.769231,50.9230769 C146.344615,50.9230769 149.209231,48.0369231 149.209231,44.4615385 C149.209231,40.8861538 146.344615,38 142.769231,38 C142.08,38 141.412308,38.1076923 140.809231,38.3015385 C142.036923,40.0461538 142.747692,42.1569231 142.747692,44.4615385 C142.747692,46.7661538 142.015385,48.8553846 140.809231,50.6215385 C141.412308,50.8153846 142.08,50.9230769 142.769231,50.9230769 Z M132,50.9230769 C135.575385,50.9230769 138.44,48.0369231 138.44,44.4615385 C138.44,40.8861538 135.575385,38 132,38 C128.424615,38 125.538462,40.8861538 125.538462,44.4615385 C125.538462,48.0369231 128.424615,50.9230769 132,50.9230769 Z M146.258462,55.5753846 C148.046154,57.1476923 149.230769,59.1507692 149.230769,61.6923077 L149.230769,66 L155.692308,66 L155.692308,61.6923077 C155.692308,58.3753846 150.587692,56.3292308 146.258462,55.5753846 Z M132,55.2307692 C127.692308,55.2307692 119.076923,57.3846154 119.076923,61.6923077 L119.076923,66 L144.923077,66 L144.923077,61.6923077 C144.923077,57.3846154 136.307692,55.2307692 132,55.2307692 Z"/>
  </defs>
  <g fill="none" fill-rule="evenodd" transform="translate(-532 -64)">
    <g fill-rule="nonzero">
      <use fill="#000" filter="url(#ic_invite-a)" xlink:href="#ic_invite-b"/>
      <use fill="#FFF" xlink:href="#ic_invite-b"/>
    </g>
    <g transform="translate(433 39)">
      <use fill="#7c4dff" fill-rule="nonzero" xlink:href="#ic_invite-c"/>
    </g>
  </g>
</svg>
