<?xml version="1.0" encoding="utf-8"?>
<!-- Generator: Adobe Illustrator 21.1.0, SVG Export Plug-In . SVG Version: 6.00 Build 0)  -->
<svg version="1.1" id="Layer_1" xmlns="http://www.w3.org/2000/svg" xmlns:xlink="http://www.w3.org/1999/xlink" x="0px" y="0px"
	 viewBox="0 0 24 24" style="enable-background:new 0 0 24 24;" xml:space="preserve">
<style type="text/css">
	.st0{fill:none;}
	.st1{fill:#FFFFFF;}
</style>
<path class="st0" d="M0,0h24v24H0V0z"/>
<path class="st1" d="M17,7h-3c-0.6,0-1,0.4-1,1s0.4,1,1,1h3c1.6,0,3,1.4,3,3s-1.4,3-3,3h-3c-0.6,0-1,0.4-1,1c0,0.5,0.4,1,1,1h3
	c2.8,0,5-2.2,5-5S19.8,7,17,7z M8,12c0,0.6,0.4,1,1,1h6c0.6,0,1-0.4,1-1s-0.4-1-1-1H9C8.4,11,8,11.4,8,12z M10,15H7
	c-1.7,0-3-1.4-3-3s1.3-3,3-3h3c0.6,0,1-0.4,1-1s-0.4-1-1-1H7c-2.8,0-5,2.2-5,5s2.2,5,5,5h3c0.6,0,1-0.5,1-1S10.6,15,10,15z"/>
</svg>
