<svg id="Layer_1" data-name="Layer 1" xmlns="http://www.w3.org/2000/svg" width="43.03" height="61.47" viewBox="0 0 43.03 61.47"><defs><style>.cls-1{fill:#6200ee;}.cls-2{fill:#fff;}.cls-3,.cls-4{fill:#651fff;}.cls-3{stroke:#040000;stroke-miterlimit:10;stroke-width:6px;}</style></defs><title>marker_hotel2</title><path class="cls-1" d="M22.5,1A21.5,21.5,0,0,0,1,22.5s0,0,0,0c0,16.13,21.52,40,21.52,40S44,38.66,44,22.53A21.5,21.5,0,0,0,22.53,1Z" transform="translate(-0.98 -1.01)"/><circle class="cls-2" cx="21.52" cy="21.81" r="17.42"/><path class="cls-3" d="M25.77,31.59" transform="translate(-0.98 -1.01)"/><path class="cls-3" d="M25.77,12.29" transform="translate(-0.98 -1.01)"/><path class="cls-4" d="M15.21,13.27V12.06a.1.1,0,0,1,0-.1L25.49,10h0l4.92.58a.09.09,0,0,1,0,.1v1.36a.1.1,0,0,1-.1.1l-4.86-.6L15.4,13.37a.11.11,0,0,1-.19-.1Z" transform="translate(-0.98 -1.01)"/><path class="cls-4" d="M32.93,31.11H31.78V14.23h.15a.09.09,0,0,0,.1-.07V12.87a.09.09,0,0,0,0-.09l-6.54-.73L12.67,14.42a.12.12,0,0,0-.09.1v1.24a.1.1,0,0,0,.1.1h.25V31h-.86a.29.29,0,0,0-.29.29h0v1.34a.29.29,0,0,0,.29.29H32.93a.29.29,0,0,0,.29-.29h0V31.31A.28.28,0,0,0,32.93,31.11ZM14.43,15.57l11.09-2.06V31.11H14.43Z" transform="translate(-0.98 -1.01)"/><polygon class="cls-4" points="16.82 28.64 14.16 28.64 14.16 26.24 16.82 26.16 16.82 28.64"/><polygon class="cls-4" points="20.19 28.64 17.55 28.64 17.55 26.13 20.19 26.05 20.19 28.64"/><polygon class="cls-4" points="23.57 28.64 20.92 28.64 20.92 26.02 23.57 25.95 23.57 28.64"/><polygon class="cls-4" points="16.82 25 14.16 25.08 14.16 22.61 16.82 22.46 16.82 25"/><polygon class="cls-4" points="20.19 24.9 17.55 24.97 17.55 22.42 20.19 22.25 20.19 24.9"/><polygon class="cls-4" points="23.57 24.8 20.92 24.89 20.92 22.2 23.57 22.03 23.57 24.8"/><polygon class="cls-4" points="16.82 21.37 14.16 21.57 14.16 19.01 16.82 18.66 16.82 21.37"/><polygon class="cls-4" points="20.19 21.11 17.55 21.33 17.55 18.59 20.19 18.26 20.19 21.11"/><polygon class="cls-4" points="23.57 20.9 20.92 21.05 20.92 18.18 23.57 17.93 23.57 20.9"/><polygon class="cls-4" points="16.82 17.65 14.16 17.99 14.16 15.51 16.82 15.08 16.82 17.65"/><polygon class="cls-4" points="20.19 17.23 17.55 17.56 17.55 14.98 20.19 14.56 20.19 17.23"/><polygon class="cls-4" points="23.57 16.8 20.92 17.14 20.92 14.44 23.57 14.02 23.57 16.8"/></svg>