<svg id="Layer_1" data-name="Layer 1" xmlns="http://www.w3.org/2000/svg" width="27" height="38.57" viewBox="0 0 27 38.57"><defs><style>.cls-1,.cls-3{fill:#7c4dff;}.cls-2{fill:#fff;}.cls-3{stroke:#040000;stroke-miterlimit:10;stroke-width:6px;}</style></defs><title>marker_hotel</title><path class="cls-1" d="M13.5,0A13.49,13.49,0,0,0,0,13.5C0,23.63,13.5,38.57,13.5,38.57S27,23.63,27,13.5A13.49,13.49,0,0,0,13.5,0Z"/><circle class="cls-2" cx="13.5" cy="13.69" r="10.93"/><path class="cls-3" d="M15.55,19.18"/><path class="cls-3" d="M15.55,7.08"/><path class="cls-1" d="M9,7.91V7.1A.07.07,0,0,1,9,7l6.36-1.17h0l3,.37a.06.06,0,0,1,0,.06v.81a.06.06,0,0,1-.07.06l-3-.38L9,8A.06.06,0,0,1,9,7.91Z"/><path class="cls-1" d="M20,18.88h-.72V8.29h.09a.06.06,0,0,0,.06-.05v-.8a.06.06,0,0,0,0-.05l-4.05-.47-8,1.49a.07.07,0,0,0-.05.07l0,.78a.06.06,0,0,0,.08.06l.14,0v9.58H7a.18.18,0,0,0-.18.18v.84a.18.18,0,0,0,.18.18H20a.18.18,0,0,0,.18-.18v-.84A.18.18,0,0,0,20,18.88ZM8.44,9.13l7-1.29v11h-7Z"/><polygon class="cls-1" points="10.55 17.97 8.88 17.97 8.88 16.46 10.55 16.41 10.55 17.97"/><polygon class="cls-1" points="12.67 17.97 11.01 17.97 11.01 16.39 12.67 16.35 12.67 17.97"/><polygon class="cls-1" points="14.79 17.97 13.12 17.97 13.12 16.33 14.79 16.28 14.79 17.97"/><polygon class="cls-1" points="10.55 15.69 8.88 15.73 8.88 14.19 10.55 14.1 10.55 15.69"/><polygon class="cls-1" points="12.67 15.62 11.01 15.67 11.01 14.07 12.67 13.96 12.67 15.62"/><polygon class="cls-1" points="14.79 15.56 13.12 15.61 13.12 13.93 14.79 13.82 14.79 15.56"/><polygon class="cls-1" points="10.55 13.41 8.88 13.54 8.88 11.92 10.55 11.71 10.55 13.41"/><polygon class="cls-1" points="12.67 13.25 11.01 13.38 11.01 11.66 12.67 11.46 12.67 13.25"/><polygon class="cls-1" points="14.79 13.11 13.12 13.21 13.12 11.41 14.79 11.25 14.79 13.11"/><polygon class="cls-1" points="10.55 11.07 8.88 11.29 8.88 9.73 10.55 9.47 10.55 11.07"/><polygon class="cls-1" points="12.67 10.81 11.01 11.02 11.01 9.4 12.67 9.13 12.67 10.81"/><polygon class="cls-1" points="14.79 10.54 13.12 10.76 13.12 9.06 14.79 8.79 14.79 10.54"/></svg>