<?xml version="1.0" encoding="utf-8"?>
<!-- Generator: Adobe Illustrator 21.1.0, SVG Export Plug-In . SVG Version: 6.00 Build 0)  -->
<svg version="1.1" id="Layer_1" xmlns="http://www.w3.org/2000/svg" xmlns:xlink="http://www.w3.org/1999/xlink" x="0px" y="0px"
	 viewBox="0 0 96 96" style="enable-background:new 0 0 96 96;" xml:space="preserve">
<style type="text/css">
	.st0{fill:#FFFF99;}
	.st1{fill:#FDD835;}
	.st2{fill:#7C4DFF;}
	.st3{fill:#FFFFFF;}
</style>
<g>
	<circle class="st0" cx="48" cy="46.3" r="38.6"/>
	<path id="cash" class="st1" d="M48,12c-18.9,0-34.3,15.4-34.3,34.3S29.1,80.6,48,80.6s34.3-15.4,34.3-34.3S67,12,48,12z"/>
</g>
<g>
	<path class="st2" d="M30.4,87.6c-2.7,0-4.9-2.2-4.9-4.9v-2.9c0-4.3,3.5-8,10-10.6c4.6-1.9,10.6-3.1,15.3-3.1
		c4.6,0,10.7,1.2,15.3,3.1c6.5,2.6,10,6.3,10,10.6v2.9c0,2.7-2.2,4.9-4.9,4.9H30.4z M21.6,73.1c-2.7,0-4.9-2.2-4.9-4.9v-3.8h-3.8
		c-2.7,0-4.9-2.2-4.9-4.9s2.2-4.9,4.9-4.9h3.8v-3.8c0-2.7,2.2-4.9,4.9-4.9s4.9,2.2,4.9,4.9v3.8h3.8c2.7,0,4.9,2.2,4.9,4.9
		s-2.2,4.9-4.9,4.9h-3.8v3.8C26.5,70.9,24.3,73.1,21.6,73.1z M50.7,64.3c-7.5,0-13.6-6.1-13.6-13.6c0-7.5,6.1-13.6,13.6-13.6
		c7.5,0,13.6,6.1,13.6,13.6C64.4,58.2,58.2,64.3,50.7,64.3z"/>
	<path class="st3" d="M50.7,39.1c6.4,0,11.6,5.2,11.6,11.6s-5.2,11.6-11.6,11.6s-11.6-5.2-11.6-11.6S44.3,39.1,50.7,39.1 M21.6,47.8
		c1.6,0,2.9,1.3,2.9,2.9v5.8h5.8c1.6,0,2.9,1.3,2.9,2.9c0,1.6-1.3,2.9-2.9,2.9h-5.8v5.8c0,1.6-1.3,2.9-2.9,2.9s-2.9-1.3-2.9-2.9
		v-5.8h-5.8c-1.6,0-2.9-1.3-2.9-2.9c0-1.6,1.3-2.9,2.9-2.9h5.8v-5.8C18.7,49.1,20,47.8,21.6,47.8 M50.7,68.2
		C58.5,68.2,74,72,74,79.8v2.9c0,1.6-1.3,2.9-2.9,2.9H30.4c-1.6,0-2.9-1.3-2.9-2.9v-2.9C27.5,72,43,68.2,50.7,68.2 M50.7,35.1
		c-8.6,0-15.6,7-15.6,15.6c0,1.5,0.2,3,0.6,4.4c-1.3-1.5-3.2-2.5-5.3-2.5h-1.8v-1.8c0-3.8-3.1-6.9-6.9-6.9s-6.9,3.1-6.9,6.9v1.8
		h-1.8c-3.8,0-6.9,3.1-6.9,6.9c0,3.8,3.1,6.9,6.9,6.9h1.8v1.8c0,3.8,3.1,6.9,6.9,6.9c1.3,0,2.6-0.4,3.6-1c-1.1,1.7-1.8,3.6-1.8,5.8
		v2.9c0,3.8,3.1,6.9,6.9,6.9h40.7c3.8,0,6.9-3.1,6.9-6.9v-2.9c0-9.2-11.8-13.5-20.5-15c5.3-2.5,8.9-7.9,8.9-14.1
		C66.4,42.1,59.3,35.1,50.7,35.1L50.7,35.1z M28.5,66.3h1.8c3.8,0,6.9-3.1,6.9-6.9c0-0.3,0-0.6-0.1-0.9c1.6,2.7,3.9,4.9,6.8,6.2
		c-5.4,0.9-12,2.9-16.2,6.5c0.5-0.9,0.8-2,0.8-3.2V66.3L28.5,66.3z"/>
</g>
</svg>
