<?xml version="1.0" encoding="utf-8"?>
<!-- Generator: Adobe Illustrator 21.1.0, SVG Export Plug-In . SVG Version: 6.00 Build 0)  -->
<svg version="1.1" id="Layer_1" xmlns="http://www.w3.org/2000/svg" xmlns:xlink="http://www.w3.org/1999/xlink" x="0px" y="0px"
	 viewBox="0 0 96 96" style="enable-background:new 0 0 96 96;" xml:space="preserve">
<style type="text/css">
	.st0{fill:#003382;}
	.st1{fill:#FFFFFF;}
	.st2{fill:#FDD835;stroke:#FFFFFF;stroke-width:2;stroke-miterlimit:10;}
	.st3{font-family:'Roboto-Black';}
	.st4{font-size:17.1265px;}
</style>
<g>
	<circle class="st0" cx="48" cy="51" r="35.5"/>
	<g>
		<path class="st1" d="M48.8,50.1c0.4,0.3,0.9,0.5,1.3,0.8c1.4,1,2.2,2.4,2.5,4.1c0.4,1.8,0.1,3.5-0.8,5.1c-0.8,1.5-2,2.5-3.6,3.2
			c-1.3,0.6-2.7,0.9-4.1,0.9c-3.3,0-6.6,0-9.9,0c-0.1,0-0.1,0-0.2,0c0-0.1,0-0.2,0-0.3c0-7.8,0-15.8,0-23.6c0-1.4,1.2-2.8,2.8-2.8
			c2.3,0,4.5,0,6.9,0c2,0,3.7,0.4,5.3,1.6c1.6,1.2,2.4,2.8,2.6,4.7c0.1,1.6-0.2,3.1-1.2,4.5c-0.4,0.4-0.7,0.8-1.2,1.2
			C49.2,49.8,49.1,49.9,48.8,50.1z M39.4,59.6C39.5,59.6,39.5,59.6,39.4,59.6c1.7,0,3.3,0,4.9,0c1.2-0.1,2.1-0.5,2.7-1.7
			c0.6-1.2,0.6-2.6,0-3.8c-0.6-1.2-1.7-1.7-3-1.7c-1.1,0-2.1,0-3.2,0c-0.7,0-1.3,0.4-1.4,1.2c0,0.3-0.1,0.4-0.1,0.7c0,1.7,0,3.3,0,5
			C39.4,59.5,39.4,59.5,39.4,59.6z M39.4,48.3c1.2,0,2.6,0,3.8,0c0.2,0,0.4,0,0.5,0c0.9-0.1,1.7-0.4,2.2-1.2
			c0.4-0.7,0.6-1.5,0.5-2.4c-0.1-1.5-1.1-2.5-2.6-2.7c-1-0.1-2-0.1-2.9,0c-0.6,0-1.2,0.3-1.4,1c-0.1,0.3-0.1,0.6-0.1,1
			c0,1.4,0,2.8,0,4.2C39.4,48.2,39.4,48.2,39.4,48.3z"/>
		<path class="st1" d="M55.4,61.2c0-1.8,1.4-3.1,3.2-3.2c1.8,0,3.2,1.4,3.2,3.2c0,1.7-1.4,3.1-3.1,3.2C56.8,64.4,55.4,63,55.4,61.2z
			"/>
	</g>
</g>
<g>
	<circle class="st2" cx="73.4" cy="28" r="17"/>
	<text transform="matrix(1 0 0 1 62.0519 33.0278)" class="st1 st3 st4">7%</text>
</g>
</svg>
