<svg id="Layer_1" data-name="Layer 1" xmlns="http://www.w3.org/2000/svg" xmlns:xlink="http://www.w3.org/1999/xlink" viewBox="0 0 189.2 124"><defs><style>.cls-1,.cls-2,.cls-6{fill:none;}.cls-2{clip-rule:evenodd;}.cls-3{fill:#058667;}.cls-4{clip-path:url(#clip-path);}.cls-5{clip-path:url(#clip-path-2);}.cls-6{stroke:#00df9a;stroke-miterlimit:10;stroke-width:2px;}.cls-7{fill:#fff;}.cls-8{fill:#00df9a;}</style><clipPath id="clip-path" transform="translate(-0.4)"><path class="cls-1" d="M173.44,45.76,131.18,56.54,82.72,40.79l26-37.29h51.71ZM14.22,52,29.1,3.5h79.67l-26,37.29,48.46,15.75,42.26-10.78L187.17,90.5H2.4L14.22,52l68.5-11.19Z"/></clipPath><clipPath id="clip-path-2" transform="translate(-0.4)"><path class="cls-2" d="M173.44,45.76,131.18,56.54,82.72,40.79l26-37.29h51.71ZM14.22,52,29.1,3.5h79.67l-26,37.29,48.46,15.75,42.26-10.78L187.17,90.5H2.4L14.22,52l68.5-11.19Z"/></clipPath></defs><title>community</title><path class="cls-3" d="M26.2,77l17.2-4.3,4.3,8.6L34.8,89.9l-8.6,4.3L17.6,81.4ZM181,17.1l8.6,4.3V34.2l-17.2,4.3V34.2l-8.6-12.8ZM155.2,34.2l4.3,8.6,8.6,4.3-4.3,17.1H150.9l-38.7,8.6L95,85.5H73.5L56.3,68.4H34.8L21.9,72.7l-4.3-4.3-4.3,4.3V77L9,81.2,13.3,94,.4,89.8V68.4l21.5-47L43.4,8.6,52,12.9h8.6L77.8,0h8.6L99.3,12.8v4.3l12.9,8.6,8.6-4.3,4.3,8.6L138,38.6h4.3V34.3h12.9ZM77.8,89.8h8.6v4.3H77.8Zm12.9,0H95v4.3H90.7ZM95,98.3h4.3v4.3H95ZM47.7,119.7H52V124H47.7Zm-4.3-8.5h4.3v4.3H43.4Zm12.9-8.6h4.3v4.3H56.3ZM52,94.1H64.9v4.3H52Zm-12.9,8.5h8.6v4.3H39.1ZM146.6,25.7V30H138V24.3l-8.6-2.9V17.1l12.9,4.3h8.6v4.3Z" transform="translate(-0.4)"/><g class="cls-4"><path class="cls-3" d="M173.44,45.76,131.18,56.54,82.72,40.79l26-37.29h51.71ZM14.22,52,29.1,3.5h79.67l-26,37.29,48.46,15.75,42.26-10.78L187.17,90.5H2.4L14.22,52l68.5-11.19Z" transform="translate(-0.4)"/></g><g class="cls-5"><path class="cls-6" d="M173.44,45.76,131.18,56.54,82.72,40.79l26-37.29h51.71ZM14.22,52,29.1,3.5h79.67l-26,37.29,48.46,15.75,42.26-10.78L187.17,90.5H2.4L14.22,52l68.5-11.19Z" transform="translate(-0.4)"/></g><path class="cls-7" d="M40.4,70.6a1.9,1.9,0,0,1-1.9-1.9,1.9,1.9,0,1,1,1.9,1.9Zm0-7.1a5.16,5.16,0,0,0-5.2,5.2c0,3.9,5.2,9.8,5.2,9.8s5.2-5.8,5.2-9.8A5,5,0,0,0,40.4,63.5Z" transform="translate(-0.4)"/><path class="cls-7" d="M31.4,41.6a1.9,1.9,0,0,1-1.9-1.9,1.9,1.9,0,1,1,1.9,1.9Zm0-7.1a5.16,5.16,0,0,0-5.2,5.2c0,3.9,5.2,9.8,5.2,9.8s5.2-5.8,5.2-9.8A5,5,0,0,0,31.4,34.5Z" transform="translate(-0.4)"/><path class="cls-7" d="M141.4,18.6a1.9,1.9,0,0,1-1.9-1.9,1.9,1.9,0,1,1,1.9,1.9Zm0-7.1a5.16,5.16,0,0,0-5.2,5.2c0,3.9,5.2,9.8,5.2,9.8s5.2-5.8,5.2-9.8A5,5,0,0,0,141.4,11.5Z" transform="translate(-0.4)"/><path class="cls-7" d="M123.4,41.6a1.9,1.9,0,0,1-1.9-1.9,1.9,1.9,0,1,1,1.9,1.9Zm0-7.1a5.16,5.16,0,0,0-5.2,5.2c0,3.9,5.2,9.8,5.2,9.8s5.2-5.8,5.2-9.8A5,5,0,0,0,123.4,34.5Z" transform="translate(-0.4)"/><path class="cls-7" d="M95.4,70.6a1.9,1.9,0,0,1-1.9-1.9,1.9,1.9,0,1,1,1.9,1.9Zm0-7.1a5.16,5.16,0,0,0-5.2,5.2c0,3.9,5.2,9.8,5.2,9.8s5.2-5.8,5.2-9.8A5,5,0,0,0,95.4,63.5Z" transform="translate(-0.4)"/><path class="cls-7" d="M78.4,41.6a1.9,1.9,0,0,1-1.9-1.9,1.9,1.9,0,1,1,1.9,1.9Zm0-7.1a5.16,5.16,0,0,0-5.2,5.2c0,3.9,5.2,9.8,5.2,9.8s5.2-5.8,5.2-9.8A5,5,0,0,0,78.4,34.5Z" transform="translate(-0.4)"/><path class="cls-7" d="M54.4,18.6a1.9,1.9,0,0,1-1.9-1.9,1.9,1.9,0,1,1,1.9,1.9Zm0-7.1a5.16,5.16,0,0,0-5.2,5.2c0,3.9,5.2,9.8,5.2,9.8s5.2-5.8,5.2-9.8A5,5,0,0,0,54.4,11.5Z" transform="translate(-0.4)"/><path class="cls-7" d="M96.4,18.6a1.9,1.9,0,0,1-1.9-1.9,1.9,1.9,0,1,1,1.9,1.9Zm0-7.1a5.16,5.16,0,0,0-5.2,5.2c0,3.9,5.2,9.8,5.2,9.8s5.2-5.8,5.2-9.8A5,5,0,0,0,96.4,11.5Z" transform="translate(-0.4)"/><circle class="cls-8" cx="60.8" cy="53.8" r="12"/><path class="cls-7" d="M58.7,54.8a3.39,3.39,0,0,0,5,0L63.2,56c.2-.3.8-.4,1.6-.3-.1.7-1,1.4-2.2,1.6l-1.4,2.2-1.4-2.2A3,3,0,0,1,57.7,56c.8.1,1.5.2,1.7.5Zm6.2-5.2h.3v.6a8.23,8.23,0,0,1-.7,2.8,3.87,3.87,0,0,1-3.2,2.4c-2,0-3.6-2.2-3.9-5a24.94,24.94,0,0,0,2.5-.6,17.08,17.08,0,0,0,3.8-2.1h0a.1.1,0,0,0,.1.1,1.18,1.18,0,0,1-.2,1.7Zm-3.7-6.7a11,11,0,0,1,11,11,11.2,11.2,0,0,1-2.1,6.5,6.06,6.06,0,0,0-4-4.6,18.28,18.28,0,0,1,1.9.3C66,55,66,51,66,51c.4-7.7-4.7-7.3-4.7-7.3h0s-5.1-.4-4.7,7.3c0,0,.1,4-2,5.1a11.62,11.62,0,0,0,1.3-.1,5.73,5.73,0,0,0-3.4,4.4,11.2,11.2,0,0,1-2.1-6.5A10.68,10.68,0,0,1,61.2,42.9Zm0-1.1a12,12,0,1,0,12,12A12,12,0,0,0,61.2,41.8Z" transform="translate(-0.4)"/><circle class="cls-8" cx="147.3" cy="58" r="12"/><path class="cls-7" d="M147.7,47a11,11,0,0,1,8.9,17.4,5.81,5.81,0,0,0-5.3-5.5c0,1.1-1.6,1.9-3.6,1.9s-3.6-.9-3.6-1.9a5.81,5.81,0,0,0-5.3,5.5A11,11,0,0,1,147.7,47Zm0-1a12,12,0,1,0,12,12A12,12,0,0,0,147.7,46Z" transform="translate(-0.4)"/><path class="cls-7" d="M144.7,51.1s3.1,1.5,5.2,0c0,0,1.2,1.9.9,2.7l.6-.7v.6c-.2,2.9-1.9,5.1-3.9,5.1s-3.6-2.1-3.9-4.9a.86.86,0,0,1,.6.3C144.3,54.1,143.8,51.5,144.7,51.1Zm-1.6,2.6v.1c.3,3.2,2.1,5.6,4.4,5.6s4.2-2.5,4.4-5.8c0-.2.1-.5.1-.7a1.7,1.7,0,0,0-.1-.7,4.42,4.42,0,0,0-8.8,0c0,.2-.1.5-.1.7v.3C143,53.4,143.1,53.5,143.1,53.7Z" transform="translate(-0.4)"/><circle class="cls-8" cx="28" cy="17.6" r="12"/><path class="cls-7" d="M24.4,13.9a.35.35,0,0,1,.1-.2h.1c.1,0,.1,0,.2.1h0a1.92,1.92,0,0,1,2-1.8,5.28,5.28,0,0,0,2.8.1H30a2.54,2.54,0,0,1,1.3.5c0-.2-.2-.4-.1-.5s.1,0,.2.1a3.37,3.37,0,0,1,.8,1.6h0c.1,0,.1-.1.2-.1h0c.2.1.3.5.2,1s-.2.7-.4.8-.1.1-.2.1h-.1a5.19,5.19,0,0,1-1.8,2.7,2.43,2.43,0,0,1-3.2,0,5.47,5.47,0,0,1-1.8-2.8H25c-.1,0-.1,0-.2-.1a1.21,1.21,0,0,1-.3-.8v-.1A.47.47,0,0,1,24.4,13.9Zm-.1,1.9A8.28,8.28,0,0,0,26,18.5a4.19,4.19,0,0,0,1.4.9,3.55,3.55,0,0,0,1,.2,3,3,0,0,0,1-.2,3.32,3.32,0,0,0,1.4-1,8.28,8.28,0,0,0,1.7-2.7c.3-.1.6-.6.7-1.3s0-1.4-.3-1.5v-.5a4.11,4.11,0,0,0-4-4.4,4.64,4.64,0,0,0-4.5,2.1,4.71,4.71,0,0,0-.4,1.7,3.4,3.4,0,0,0-.1,1h0c-.3.1-.5.7-.3,1.5S24,15.8,24.3,15.8Z" transform="translate(-0.4)"/><path class="cls-7" d="M28.4,6.6a11,11,0,0,1,11,11,11.56,11.56,0,0,1-2,6.4.6.6,0,0,0-.1-.4c-1-3.5-2.9-3.6-3.3-3.7-.8-.2-1.8-.1-2.3-.3a13.35,13.35,0,0,1-2.5,3.2l-.4-1.6a1.09,1.09,0,0,0,.4-.9H27.6a1.09,1.09,0,0,0,.4.9l-.4,1.6a13.35,13.35,0,0,1-2.5-3.2c-.5.2-1.5.1-2.3.3-.4.1-2.3.2-3.3,3.7,0,.1-.1.3-.1.4a10.82,10.82,0,0,1-2-6.4A11.1,11.1,0,0,1,28.4,6.6Zm0-1a12,12,0,1,0,12,12A11.91,11.91,0,0,0,28.4,5.6Z" transform="translate(-0.4)"/></svg>