<?xml version="1.0" encoding="utf-8"?>
<!-- Generator: Adobe Illustrator 21.1.0, SVG Export Plug-In . SVG Version: 6.00 Build 0)  -->
<svg version="1.1" id="Layer_1" xmlns="http://www.w3.org/2000/svg" xmlns:xlink="http://www.w3.org/1999/xlink" x="0px" y="0px"
	 viewBox="0 0 96 96" style="enable-background:new 0 0 96 96;" xml:space="preserve">
<style type="text/css">
	.st0{fill:#FFFF99;}
	.st1{fill:#FDD835;}
</style>
<g>
	<circle class="st0" cx="48" cy="48" r="43.8"/>
	<path id="cash" class="st1" d="M52.5,48.8l0.5,1.8h1.2l0.5-1.8H52.5z M47.4,48.8l-0.5,1.8h2.2l-0.5-1.8H47.4z M41.2,48.8l0.5,1.8
		h1.1l0.5-1.8H41.2z M36.6,38.6c0.9,0,1.7,0.5,2.1,1.3l1.6,5.3h4.5l1.6-5.3c0.2-0.7,1-1.3,1.7-1.3s1.6,0.5,1.7,1.3l1.6,5.3h4.5
		l1.6-5.3c0.2-0.9,1-1.2,1.7-1.3c1.2-0.1,2.2,1.2,1.7,2.3L59.5,45h0.4c1,0,1.8,0.9,1.8,1.8s-0.9,1.8-1.8,1.8h-1.2l-0.5,1.8h0.4
		c1,0,1.8,0.9,1.8,1.8s-0.9,2.1-1.8,2.1h-1.3l-1.6,5.3c-0.2,0.7-1,1.3-1.7,1.3c-0.9,0-1.6-0.6-1.7-1.3l-1.8-5.2h-4.5l-1.6,5.2
		c-0.2,0.7-1,1.3-1.7,1.3c-0.9,0-1.6-0.6-1.7-1.3l-1.6-5.3h-1.6c-1,0-1.8-0.9-1.8-1.8s0.9-1.9,1.8-1.9H38l-0.5-1.8H36
		c-1,0-1.8-0.9-1.8-1.8s0.9-1.8,1.8-1.8h0.4L35.1,41C34.6,39.8,35.4,38.6,36.6,38.6z M48,9.1C26.6,9.1,9.1,26.6,9.1,48
		S26.6,86.9,48,86.9S86.9,69.4,86.9,48S69.5,9.1,48,9.1z"/>
</g>
</svg>
