<?xml version="1.0" encoding="utf-8"?>
<!-- Generator: Adobe Illustrator 21.1.0, SVG Export Plug-In . SVG Version: 6.00 Build 0)  -->
<svg version="1.1" id="Layer_1" xmlns="http://www.w3.org/2000/svg" xmlns:xlink="http://www.w3.org/1999/xlink" x="0px" y="0px"
	 viewBox="0 0 64 56" style="enable-background:new 0 0 64 56;" xml:space="preserve">
<style type="text/css">
	.st0{fill:#7C4DFF;}
</style>
<g>
	<path class="st0" d="M15.8,24.7H12v-3.8c0-0.6-0.4-1-1-1H9.8c-0.6,0-1,0.4-1,1v3.8H5.1c-0.6,0-1,0.4-1,1v1.2c0,0.6,0.4,1,1,1h3.8
		v3.8c0,0.6,0.4,1,1,1H11c0.6,0,1-0.4,1-1v-3.8h3.8c0.6,0,1-0.4,1-1v-1.2C16.8,25.1,16.3,24.7,15.8,24.7z"/>
	<g>
		<path class="st0" d="M38.9,26.8c4,0,7.3-3.3,7.3-7.3s-3.2-7.3-7.3-7.3c-0.8,0-1.5,0.1-2.2,0.3c1.4,2,2.2,4.4,2.2,7
			c0,2.6-0.8,5-2.2,7C37.4,26.7,38.1,26.8,38.9,26.8z"/>
		<path class="st0" d="M28.7,26.8c4,0,7.3-3.3,7.3-7.3s-3.2-7.3-7.3-7.3s-7.3,3.3-7.3,7.3S24.6,26.8,28.7,26.8z"/>
		<path class="st0" d="M42.9,32c2,1.8,3.4,4,3.4,6.9v4.9h7.3v-4.9C53.5,35.2,47.8,32.9,42.9,32z"/>
		<path class="st0" d="M28.7,31.6c-4.9,0-14.6,2.4-14.6,7.3v4.9h29.2v-4.9C43.3,34.1,33.5,31.6,28.7,31.6z"/>
	</g>
</g>
</svg>
