<?xml version="1.0" encoding="utf-8"?>
<!-- Generator: Adobe Illustrator 21.1.0, SVG Export Plug-In . SVG Version: 6.00 Build 0)  -->
<svg version="1.1" id="Capa_1" xmlns="http://www.w3.org/2000/svg" xmlns:xlink="http://www.w3.org/1999/xlink" x="0px" y="0px"
	 viewBox="0 0 1091.3 181.5" style="enable-background:new 0 0 1091.3 181.5;" xml:space="preserve">
<style type="text/css">
	.st0{fill-rule:evenodd;clip-rule:evenodd;fill:#0094D0;}
	.st1{fill-rule:evenodd;clip-rule:evenodd;fill:#00327B;}
	.st2{fill-rule:evenodd;clip-rule:evenodd;fill:#002E5F;}
	.st3{fill-rule:evenodd;clip-rule:evenodd;fill:#0085A8;}
	.st4{fill:#00327B;}
	.st5{fill:#0094D0;}
</style>
<g>
	<path class="st0" d="M941.2,43.2c0.2-0.2,0.5-0.2,0.7-0.2c4.8,0.1,9.6-0.3,14.3,0.2c4.7,0.5,9.6,3.1,10.8,8.9
		c0.1,0.7,0.4,1.3,0.5,2c0.2,0.7,0.3,1.2,1.1,0.3c2.7-2.9,5.5-5.7,8.8-7.9c4.6-2.9,9.5-4.8,14.9-5.6c3.8-0.5,7.5-0.4,11.1,0.2
		c9.3,1.5,16.4,6.3,20.8,14.8c1.1,2,1.2,2.1,2.5,0.3c3.9-5.1,8.6-9,14.4-11.7c3.8-1.8,7.9-2.9,12.1-3.5c3.9-0.5,7.7-0.4,11.5,0.1
		c11.2,1.6,19.3,7.3,23.4,18.2c1.6,4.3,2.4,8.7,2.9,13.3c0,0.2,0,0.4,0.2,0.6c0,23.2,0,46.4,0,69.6c-4.8,0-9.6,0.1-14.4-0.1
		c-3.9-0.1-7.6-1-10.2-4.1c-1.9-2.3-2.8-5.1-2.8-8c-0.1-15.1-0.1-30.2-0.1-45.3c0-3.7-0.2-7.4-1-11.1c-1-4.3-3.6-7.6-9.1-7.9
		c-8.3-0.5-14,3.5-18.3,10.1c-2.6,3.9-3.9,8.3-4.8,12.8c-0.8,3.4-1,6.9-1,10.4c0,13.9,0,27.7,0,41.6c0,1.2-0.4,1.5-1.5,1.5
		c-8.2,0-16.3,0-24.5,0c-1.1,0-1.5-0.2-1.5-1.4c0-19.1,0.1-38.2,0-57.3c0-3.8-0.3-7.7-1.9-11.3c-2.2-5.2-6.6-6.9-11.8-6.6
		c-5.8,0.4-9.9,3.5-13.2,7.9c-3,4-4.8,8.6-5.9,13.5c-1.1,4.6-1.4,9.1-1.4,13.8c0,13.3,0,26.6,0,39.9c0,1.2-0.3,1.4-1.5,1.4
		c-8.2-0.1-16.3,0-24.5,0c-1.1,0-1.5-0.2-1.5-1.4c0.1-12.3,0-24.6,0-36.9c0-0.4-0.1-0.9,0.1-1.3c0.2,0.2,0.2,0.4,0.2,0.6
		c0,12.6,0,25.2,0,37.8c0,0.2,0.3,0,0.1,0c0,0-0.1,0-0.1-0.1c0-0.4,0-0.8,0-1.2c0-31.9,0-63.8,0-95.7
		C941,44.2,940.9,43.7,941.2,43.2z"/>
	<path class="st1" d="M447.1,0c2,0.6,4,1.1,5.8,2.2c5.9,3.5,9.2,10.4,8.1,17.2c-1.2,6.7-6.4,12.2-13,13.5c-9.3,1.9-18-3.9-19.7-13.4
		c-1.7-9.1,4.3-17.5,13.1-19.3c0.2-0.1,0.5,0,0.7-0.3C443.8,0,445.5,0,447.1,0z"/>
	<path class="st1" d="M423.3,142.8c-9-0.2-17.8,0.3-26.6-0.3c-4.9-0.3-8.6-2.7-11.2-6.8c-2.8-4.5-5.1-9.4-7.6-14.1
		c-3.1-5.8-6.2-11.6-9.3-17.5c-0.9-1.7-2.2-2.4-3.9-2.7c-1.3-0.2-2.5-0.3-3.8-0.2c-2,0.1-1.8-0.3-1.8,1.7c0,11.8,0,23.6,0,35.4
		c0,1.1,0,2.2,0,3.3c0,0.8-0.2,1.1-1.1,1.1c-8.9,0-17.8,0-26.7,0c-0.8,0-1.1-0.2-1-1c0.1-1.3,0-2.5,0-3.8c0-44,0-88,0-132
		c0-2-0.2-1.7,1.7-1.7c5.2,0.1,10.4-0.2,15.7,0.2c6,0.4,9.6,3.1,10.9,8.3c0.5,1.7,0.6,3.6,0.6,5.3c0,18.8,0,37.6,0,56.4
		c0,1.8,0,1.8,1.9,1.8c1.5,0,3,0,4.5-0.2c2.4-0.2,4.3-1.2,5.6-3.3c6.2-9.7,12.5-19.4,18.8-29.2c0.4-0.7,0.9-1,1.7-1
		c10.2,0,20.4,0,30.6,0c0.2,0,0.4,0,0.8,0c-0.8,1.2-1.5,2.3-2.2,3.4c-8.2,12.1-16.3,24.3-24.5,36.4c-1.3,1.9-2.7,3.7-4.4,5.4
		c-0.3,0.3-0.7,0.6-0.2,1.1c3.8,3.7,5.8,8.5,8,13c6.3,12.6,13.9,24.5,21.1,36.6C421.5,139.9,422.3,141.2,423.3,142.8z"/>
	<path class="st1" d="M504.4,54c1.7-1.6,3.1-3.2,4.8-4.6c6.9-5.7,14.8-8.5,23.7-8.9c6.1-0.3,12.1,0.3,17.8,2.4
		c9.2,3.5,14.9,10.2,17.8,19.4c1.6,5.1,2.3,10.4,2.3,15.7c0,9.3,0,18.6,0,27.9c0,11.7,0.1,23.4,0.1,35.2c0,1.9,0.2,1.7-1.7,1.6
		c-4.9-0.1-9.7,0.2-14.6-0.2c-7.6-0.5-12-5.1-12.4-12.7c-0.3-7.4-0.1-14.7-0.1-22.1c0-8.3,0-16.6,0-24.9c0-2.5-0.2-5-0.9-7.4
		c-1.4-5.5-4.9-8.1-10.5-8.3c-11.2-0.4-21.2,6.1-24.6,19.3c-0.8,3.2-1.2,6.5-1.2,9.8c0,15,0,29.9,0,44.9c0,1.2-0.2,1.6-1.6,1.6
		c-8.6-0.1-17.1-0.1-25.7,0c-1.1,0-1.4-0.3-1.4-1.4c0-29.1,0-58.2,0-87.3c0-3.5,0-6.9,0-10.4c0-0.5-0.1-1,0.8-1
		c5.1,0.1,10.2-0.3,15.3,0.2c5.6,0.6,10.4,3.4,11.7,10.2C504.1,53.4,504.3,53.7,504.4,54z"/>
	<path class="st0" d="M818.4,69.2c0,2.4,0,4.7,0,7.1c0,0.8-0.2,1.2-1.1,1.1c-4.6,0-9.1,0.1-13.7-0.1c-4.9-0.2-8.6-2.7-10.1-7.9
		c-0.6-2.1-2.4-3-4.2-3.6c-9.6-3.3-21.2-0.3-27.7,7.5c-2.8,3.4-4.6,7.2-5.6,11.5c-1.1,4.7-1.3,9.4-0.4,14.1
		c1.7,8.4,6.2,14.7,14,18.5c5.9,2.8,12.1,3.6,18.4,2.6c6.3-1,12-3.8,17.1-7.6c2.2-1.7,4.3-3.4,6.1-5.5c0.5-0.5,0.7-0.6,1.1,0.1
		c3.6,6.1,7.3,12.1,11,18.2c0.4,0.7,0.2,1.2-0.3,1.8c-3.4,3.9-7.5,7-11.8,9.7c-4.8,3-10,5.1-15.4,6.5c-7.5,1.9-15.2,2.2-23,1.2
		c-8.2-1-15.9-3.6-22.8-8.1c-9.1-5.9-15.6-14-19.4-24.2c-2.5-6.7-3.6-13.6-3.4-20.7c0.4-13.8,5.1-25.9,15.1-35.7
		c5.8-5.7,12.6-9.6,20.3-12.1c5.6-1.8,11.4-2.7,17.3-2.9c8-0.2,15.8,1,23.2,4.1c5.5,2.3,10.3,5.5,13.1,11c1.4,2.6,2,5.3,2,8.2
		C818.4,65.8,818.4,67.5,818.4,69.2C818.4,69.2,818.4,69.2,818.4,69.2z"/>
	<path class="st1" d="M431.4,92.8c0-16.3,0-32.6,0-48.8c0-0.6-0.2-1.2,0.8-1.2c5.2,0.1,10.4-0.2,15.7,0.2
		c6.9,0.6,11.2,4.9,11.9,11.8c0.1,1.3,0.2,2.5,0.2,3.8c0,27.6,0,55.2,0,82.8c0,1.1-0.2,1.5-1.4,1.5c-8.6-0.1-17.1-0.1-25.7,0
		c-1.2,0-1.4-0.4-1.4-1.5C431.5,125.1,431.5,108.9,431.4,92.8C431.5,92.8,431.5,92.8,431.4,92.8z"/>
	<path class="st0" d="M706.3,143.9c-8.8,0.3-16.7-7.2-16.7-16.7c0-9.4,7.8-16.6,16.6-16.7c9.1-0.1,16.8,7.7,16.8,16.7
		C723,136.2,715.5,144.2,706.3,143.9z"/>
	<path class="st2" d="M678.3,137.8c-0.3-0.8-0.1-1.6-0.1-2.3c0-30.3,0-60.6,0-91c0-1.8,0-1.8-1.9-1.8c-4.2,0-8.3,0-12.5,0
		c0.4-0.4,0.8-0.2,1.3-0.2c4.1,0,8.2,0,12.2,0c0.9,0,1.2,0.2,1.2,1.1c0,30.8,0,61.6-0.1,92.4C678.5,136.6,678.4,137.2,678.3,137.8z"
		/>
	<path class="st3" d="M941.2,43.2c0,33,0,66.1,0,99.4c-0.4-0.7-0.3-1.2-0.3-1.6c0-12,0-24,0-35.9c0-0.6,0-1.1,0-1.7
		c0-11.9,0-23.7,0-35.6c0-7.6,0-15.1,0-22.7C940.8,44.4,940.6,43.7,941.2,43.2z"/>
	<g>
		<path class="st4" d="M78.3,71.1c-1-0.5-1.9-1.1-3-1.7c0.7-0.6,1.3-1.1,1.9-1.6c2.2-1.9,4.3-3.8,6.1-6.1c5.3-7,7.3-14.9,6.8-23.6
			c-0.7-12.4-6.5-21.7-17.3-27.8C65.3,6,56.9,4.4,48.4,4.4c-11.3-0.1-22.7-0.1-34,0C9.8,4.4,6,6.3,3.1,9.9c-1.6,2-2.4,4.3-3.1,6.7
			c0,41.9,0,83.8,0,125.7c0.5,0,1,0,1.4,0c15.7,0,31.4,0,47.1,0c6.8,0,13.5-0.9,19.9-3.2c9.5-3.2,17.3-8.7,22.3-17.6
			c4.9-8.8,6-18.3,3.9-28.1C92.6,83.5,87.3,75.9,78.3,71.1z M26.6,47.1C26.6,47.1,26.6,47.1,26.6,47.1c0-3.8-0.1-7.5,0.1-11.3
			c0.2-5.5,2.7-8.3,8.2-8.6c5.3-0.3,10.6-0.5,15.9,0.2c6.6,1,10.9,5.1,12.1,11.6c1.1,5.7,0.4,11.1-3.3,15.8
			c-2.9,3.8-7.1,5.2-11.7,5.3c-6.7,0.1-13.4,0-20.1,0c-0.9,0-1.2-0.3-1.1-1.2C26.6,55,26.6,51,26.6,47.1z M64.4,112.6
			c-3.4,4.3-8,6.1-13.2,6.2c-7.9,0.2-15.7,0-23.6,0.1c-0.9,0-1-0.3-1-1c0-4.7,0-9.5,0-14.2c0,0,0,0,0,0c0-4.5-0.1-9,0-13.6
			c0.1-5.6,3.2-8.5,8.8-8.5c5,0,9.9-0.1,14.9,0c6.4,0.2,11.8,2.3,15.2,8C69.6,96.1,69.1,106.6,64.4,112.6z"/>
		<path class="st4" d="M677.1,42.5c-3.2,0.1-6.3,0-9.5,0c-1.3,0-2.5-0.1-3.8,0.1c-5.2,0.1-8.8,2.6-11,7.4c-2-1.8-4-3.4-6.3-4.6
			c-8.7-4.9-18.1-6-27.8-4.7c-16.8,2.3-28.3,11.8-34.3,27.5c-4.9,12.9-5.1,26.2-1.4,39.5c2.5,9,7.2,16.8,14.4,22.9
			c9,7.6,19.5,10.5,31.2,9.9c7.6-0.4,14.6-2.5,20.6-7.5c0.2-0.1,0.3-0.3,0.6-0.2c0.1,1.8,0,3.5-0.1,5.3c-0.7,6.9-4,12.2-10.5,15.1
			c-7,3.2-14.4,3-21.8,1.9c-4.1-0.6-8.1-2-12-3.1c-4.9-1.4-8.2,0.1-10.4,4.7c-0.2,0.4-0.4,0.9-0.6,1.3c-1.7,4.3-3.4,8.5-5.1,12.8
			c-0.4,0.9-0.2,1.2,0.6,1.7c7.4,4,15.2,6.5,23.4,7.9c2.4,0.4,4.7,0.7,7.1,1c3.6,0,7.2,0,10.8,0c0.2-0.3,0.5-0.2,0.7-0.2
			c3.5-0.2,6.9-0.8,10.2-1.7c8.9-2.2,17-6,23.6-12.5c8.2-8.1,11.9-18,12.5-29.3c0-0.5,0-1.1,0-1.6c0-30.5,0-61.1,0-91.6
			c0-0.3,0-0.5,0-0.8C678.5,42.8,678.1,42.5,677.1,42.5z M648.4,103.8c-2.7,7.4-8.7,11.7-16.7,11.8c-9.9,0.1-16.8-4.7-19.9-14.1
			c-2.7-8.3-2.8-16.6,0.4-24.7c2.9-7.3,8.5-11,16.3-11.3c4.1-0.1,8.2,0.3,11.9,2.2c5.2,2.6,7.7,7.2,9,12.6c0.8,3.3,1,6.7,1.1,10.3
			C650.4,94.9,650,99.5,648.4,103.8z"/>
		<path class="st5" d="M929.4,79.1c-0.9-4.2-2.5-8.2-4.6-12c-4.5-8.4-10.8-14.9-19.1-19.6c-6.5-3.7-13.5-5.7-20.9-6.5
			c-5.1-0.6-10.1-0.4-15.1,0.3c-5.4,0.8-10.5,2.3-15.4,4.7c-8.3,4-15.1,9.9-20.1,17.7c-5.6,8.8-8.1,18.5-8,28.9
			c0.1,2.6,0.1,5.2,0.5,7.7c0.8,5.7,2.4,11.1,4.9,16.3c3.7,7.7,9.1,13.9,16.2,18.7c7.6,5.2,16.1,8,25.2,8.8
			c9.1,0.8,17.9-0.3,26.4-3.6c8.2-3.2,15.2-8.3,20.7-15.3c3.9-4.9,6.7-10.4,8.5-16.4c1.2-3.9,1.8-7.9,2.2-12
			C931.3,90.8,930.7,84.9,929.4,79.1z M902.7,91.7c0,7.4-1.4,13.5-5.3,18.8c-3.2,4.5-7.5,7.4-12.9,8.6c-5.5,1.3-10.8,1-15.9-1.3
			c-5.2-2.3-8.9-6.2-11.3-11.3c-2.3-4.8-3.3-9.9-3.1-15.1c0.3-7.7,2.4-14.8,8.2-20.3c5.2-4.9,11.5-6.7,18.6-6
			c10.1,1.1,16.4,6.9,19.9,16.1C902.3,84.9,902.9,88.8,902.7,91.7z"/>
		<path class="st4" d="M292.4,46.3c-13.7-6.7-28-7.4-42.4-2.8c-14.8,4.7-25.2,14.5-30.9,29c-4,10.1-4.6,20.6-2.5,31.3
			c2.4,12.3,8.5,22.5,18.5,30.1c9.6,7.3,20.6,10.4,32.5,10.4c4.5,0,9-0.4,13.4-1.5c15.2-3.7,26.7-12.3,33.7-26.4
			c5.6-11.4,6.7-23.6,4.1-36C315.5,64.9,306.7,53.3,292.4,46.3z M292.1,92.7c0,6.9-1.5,13.3-5.9,18.8c-5,6.3-11.8,8.8-19.7,8.5
			c-11.2-0.5-19.7-8.4-22.1-20.1c-1.7-8.4-0.9-16.5,3.7-24c5.1-8.2,13.6-11.9,23.1-10.6c10.6,1.5,16.8,8,19.8,18
			C291.8,86.3,292.1,89.5,292.1,92.7z"/>
		<path class="st4" d="M180.8,46.4c-12.3-6.2-25.3-7.2-38.5-4.1c-15.8,3.8-27.3,13.1-34,28c-4.5,9.9-5.5,20.3-3.9,31
			c1.7,11.8,6.8,21.9,15.6,29.9c10.2,9.2,22.4,13.1,35.9,13.2c5.3,0,10.4-0.6,15.5-2c14.6-4.2,25.5-12.9,32-26.7
			c5.1-11,6.2-22.5,3.8-34.3C203.9,65.4,195.2,53.6,180.8,46.4z M176.4,108.1c-3.9,7.2-10.2,11-18.3,11.7
			c-13.1,1.2-22.7-7.2-25.5-19.3c-0.2-0.9-0.4-1.9-0.5-2.8c-0.3-1.7-0.4-3.5-0.3-5.2c0-7.1,1.6-13.6,6.2-19.2
			c5.5-6.7,12.8-9.1,21.3-8c9.5,1.2,15.8,6.8,19,15.7C181.5,90.2,181.1,99.4,176.4,108.1z"/>
	</g>
</g>
</svg>
