<?xml version="1.0" encoding="utf-8"?>
<!-- Generator: Adobe Illustrator 21.1.0, SVG Export Plug-In . SVG Version: 6.00 Build 0)  -->
<svg version="1.1" id="Layer_1" xmlns="http://www.w3.org/2000/svg" xmlns:xlink="http://www.w3.org/1999/xlink" x="0px" y="0px"
	 viewBox="0 0 96 96" style="enable-background:new 0 0 96 96;" xml:space="preserve">
<style type="text/css">
	.st0{fill:#003382;}
	.st1{fill:#FFFFFF;}
	.st2{fill:#FDD835;stroke:#FFFFFF;stroke-width:2;stroke-miterlimit:10;}
	.st3{font-family:'Roboto-Black';}
	.st4{font-size:17.1265px;}
</style>
<g>
	<circle class="st0" cx="48" cy="51" r="34"/>
	<g>
		<path class="st1" d="M48.8,50.1c0.4,0.3,0.9,0.5,1.3,0.8c1.4,0.9,2.1,2.3,2.4,3.9c0.3,1.7,0.1,3.3-0.8,4.9c-0.8,1.4-2,2.4-3.4,3.1
			c-1.3,0.6-2.6,0.9-3.9,0.9c-3.2,0-6.3,0-9.5,0c-0.1,0-0.1,0-0.2,0c0-0.1,0-0.2,0-0.3c0-7.5,0-15.1,0-22.6c0-1.4,1.2-2.6,2.6-2.6
			c2.2,0,4.3,0,6.6,0c1.9,0,3.6,0.4,5.1,1.5c1.5,1.1,2.3,2.6,2.5,4.5c0.1,1.5-0.2,3-1.1,4.3c-0.3,0.4-0.7,0.8-1.1,1.2
			C49.2,49.9,49,50,48.8,50.1z M39.7,59.3C39.8,59.3,39.8,59.3,39.7,59.3c1.6,0,3.2,0,4.7,0c1.1-0.1,2-0.5,2.6-1.6
			c0.6-1.2,0.6-2.5,0-3.7c-0.6-1.1-1.6-1.6-2.9-1.6c-1,0-2,0-3.1,0c-0.7,0-1.3,0.4-1.4,1.2c0,0.3-0.1,0.4-0.1,0.7c0,1.6,0,3.2,0,4.8
			C39.7,59.1,39.7,59.2,39.7,59.3z M39.7,48.4c1.2,0,2.5,0,3.7,0c0.2,0,0.3,0,0.5,0c0.9-0.1,1.6-0.4,2.1-1.2
			c0.4-0.7,0.6-1.4,0.5-2.3c-0.1-1.4-1-2.4-2.5-2.6c-0.9-0.1-1.9-0.1-2.8,0c-0.6,0-1.2,0.3-1.4,0.9c-0.1,0.3-0.1,0.6-0.1,0.9
			c0,1.4,0,2.6,0,4C39.7,48.3,39.7,48.4,39.7,48.4z"/>
		<path class="st1" d="M55.1,60.8c0-1.7,1.4-3,3.1-3.1c1.7,0,3.1,1.4,3.1,3.1c0,1.6-1.4,3-3,3.1C56.4,63.9,55.1,62.5,55.1,60.8z"/>
	</g>
</g>
<g>
	<circle class="st2" cx="73.4" cy="28" r="17"/>
	<text transform="matrix(1 0 0 1 62.0519 35.0278)" class="st1 st3 st4">7%</text>
</g>
</svg>
