<svg id="Layer_1" data-name="Layer 1" xmlns="http://www.w3.org/2000/svg" width="30.45" height="43.55" viewBox="0 0 30.45 43.55"><defs><style>.cls-1{fill:#f50057;}.cls-2{fill:#fff;}.cls-3{fill:none;}</style></defs><title>hot_spot</title><path class="cls-1" d="M15.23,0A15.23,15.23,0,0,0,0,15.23H0C0,26.65,15.24,43.55,15.24,43.55S30.45,26.67,30.45,15.25A15.23,15.23,0,0,0,15.25,0h0Z"/><circle class="cls-2" cx="15.23" cy="15.45" r="12.34"/><path class="cls-1" d="M16.49,6a18.08,18.08,0,0,1,.62,4,2.92,2.92,0,0,1-2.87,3.14A3.06,3.06,0,0,1,11.19,10l0-.3A11.58,11.58,0,0,0,8.5,17.22a6.73,6.73,0,0,0,13.46,0A14.39,14.39,0,0,0,16.49,6ZM15,21.43a2.67,2.67,0,0,1-2.71-2.64,2.63,2.63,0,0,1,2.36-2.62A6.49,6.49,0,0,0,18.52,14a11.73,11.73,0,0,1,.5,3.4A4,4,0,0,1,15,21.43Z"/><path class="cls-3" d="M6.73,7h17V24h-17Z"/></svg>