<?xml version="1.0" encoding="utf-8"?>
<!-- Generator: Adobe Illustrator 21.1.0, SVG Export Plug-In . SVG Version: 6.00 Build 0)  -->
<svg version="1.1" id="Layer_1" xmlns="http://www.w3.org/2000/svg" xmlns:xlink="http://www.w3.org/1999/xlink" x="0px" y="0px"
	 viewBox="0 0 48 48" style="enable-background:new 0 0 48 48;" xml:space="preserve">
<style type="text/css">
	.st0{fill:#7C4DFF;}
	.st1{fill:#FFFFFF;}
	.st2{fill:none;}
</style>
<title>hot_spot_circle</title>
<path class="st0" d="M24,46C11.8,46,2,36.2,2,24S11.8,2,24,2s22,9.8,22,22S36.2,46,24,46z"/>
<path class="st1" d="M24,4c11,0,20,9,20,20s-9,20-20,20S4,35,4,24S13,4,24,4 M24,0C10.7,0,0,10.7,0,24s10.7,24,24,24s24-10.7,24-24
	S37.3,0,24,0z"/>
<path class="st1" d="M26,9.9c0.6,2.1,0.9,4.2,1,6.3c0.2,2.5-1.7,4.8-4.3,5h-0.3c-2.7,0-4.8-2.2-4.8-4.9c0,0,0-0.1,0-0.1v-0.5
	c-2.8,3.3-4.3,7.6-4.3,11.9c0,5.9,4.8,10.7,10.7,10.7s10.7-4.8,10.7-10.7C34.6,20.7,31.4,14.1,26,9.9z M23.6,34.3
	c-2.3,0-4.3-1.8-4.3-4.2c0,0,0,0,0,0l0,0c0-2.1,1.6-3.9,3.7-4.2c2.4-0.4,4.6-1.6,6.1-3.4c0.5,1.7,0.8,3.6,0.8,5.4
	c0,3.5-2.8,6.4-6.3,6.4c0,0,0,0,0,0L23.6,34.3z"/>
<path class="st2" d="M7.5,7.6h33.1v33.1H7.5V7.6z"/>
</svg>
