<svg id="fcd6ede1-5289-4f3d-9fa7-da2a094d07c9" data-name="Layer 1" xmlns="http://www.w3.org/2000/svg" width="24" height="24" viewBox="0 0 24 24"><defs><style>.a92d6757-9acb-4046-b7fc-03e308e48d9b{fill:none;}.b9064f5f-21e2-46fc-97d3-c3edbc6a2ee7{fill:#7c4dff;}</style></defs><title>ic_calender_period_purple</title><path class="a92d6757-9acb-4046-b7fc-03e308e48d9b" d="M0,0H24V24H0Z" transform="translate(0 0)"/><path class="b9064f5f-21e2-46fc-97d3-c3edbc6a2ee7" d="M19,4H18V3a1,1,0,0,0-2,0V4H8V3A1,1,0,0,0,6,3V4H5A2,2,0,0,0,3,6V20a2,2,0,0,0,2,2H19a2,2,0,0,0,2-2V6A2,2,0,0,0,19,4Zm0,15a1,1,0,0,1-1,1H6a1,1,0,0,1-1-1V9H19ZM7,14.5h6v2H7ZM7,11H17v2H7Z" transform="translate(0 0)"/></svg>