<svg id="a4e9141d-4cac-416d-b321-fdbba51db43e" data-name="Layer 1" xmlns="http://www.w3.org/2000/svg" width="24" height="24" viewBox="0 0 24 24"><defs><style>.b68a51a4-56d5-443d-a853-a4bf6d4d9db6{fill:none;}.f7da3916-d25f-4b8a-9983-0ea9bd3711b1{fill:#7c4dff;}</style></defs><title>ic_calender_day_purple</title><path class="b68a51a4-56d5-443d-a853-a4bf6d4d9db6" d="M0,0H24V24H0Z" transform="translate(0 0)"/><path class="f7da3916-d25f-4b8a-9983-0ea9bd3711b1" d="M16,13H13a1,1,0,0,0-1,1v3a1,1,0,0,0,1,1h3a1,1,0,0,0,1-1V14A1,1,0,0,0,16,13ZM16,3V4H8V3A1,1,0,0,0,6,3V4H5A2,2,0,0,0,3,6V20a2,2,0,0,0,2,2H19a2,2,0,0,0,2-2V6a2,2,0,0,0-2-2H18V3a1,1,0,0,0-2,0Zm2,17H6a1,1,0,0,1-1-1V9H19V19A1,1,0,0,1,18,20Z" transform="translate(0 0)"/></svg>