<svg id="a9570136-9fd5-4c92-aad6-dbdc048e05f8" data-name="Layer 1" xmlns="http://www.w3.org/2000/svg" width="24" height="24" viewBox="0 0 24 24"><defs><style>.a354e5ca-e452-488b-b497-241f2f7a7c89{fill:none;}.bb85a6cd-3139-48f0-91b9-a70397727df6{fill:#7c4dff;}</style></defs><title>ic_calender_empty_purple</title><path class="a354e5ca-e452-488b-b497-241f2f7a7c89" d="M0,0H24V24H0Z" transform="translate(0 0)"/><path class="bb85a6cd-3139-48f0-91b9-a70397727df6" d="M19,4H18V3a1,1,0,0,0-2,0V4H8V3A1,1,0,0,0,6,3V4H5A2,2,0,0,0,3,6V20a2,2,0,0,0,2,2H19a2,2,0,0,0,2-2V6A2,2,0,0,0,19,4Zm0,15a1,1,0,0,1-1,1H6a1,1,0,0,1-1-1V9H19Z" transform="translate(0 0)"/></svg>