<?xml version="1.0" encoding="utf-8"?>
<!-- Generator: Adobe Illustrator 23.0.1, SVG Export Plug-In . SVG Version: 6.00 Build 0)  -->
<svg version="1.1" id="Layer_1" xmlns="http://www.w3.org/2000/svg" xmlns:xlink="http://www.w3.org/1999/xlink" x="0px" y="0px"
	 viewBox="0 0 86 73.3" style="enable-background:new 0 0 86 73.3;" xml:space="preserve">
<style type="text/css">
	.st0{display:none;}
	.st1{display:inline;}
	.st2{fill:none;}
	.st3{fill:#4DA3FA;}
	.st4{fill:#FFDD00;}
	.st5{fill:#FFFFFF;}
</style>
<g class="st0">
	<rect x="-296.2" y="-640.1" class="st1" width="1329.1" height="1263.1"/>
</g>
<circle class="st2" cx="16" cy="68.5" r="1.8"/>
<circle class="st2" cx="77.8" cy="20.7" r="1.8"/>
<circle class="st2" cx="74.4" cy="60.7" r="1.8"/>
<circle class="st2" cx="7.2" cy="24.3" r="1.8"/>
<circle class="st2" cx="51.6" cy="4.8" r="1.8"/>
<polygon class="st3" points="30.9,2.1 29.9,1 27.7,3.2 25.6,1 24.5,2.1 23.5,3.1 25.6,5.3 23.5,7.4 25.6,9.5 27.7,7.4 29.9,9.5 
	32,7.4 29.8,5.3 32,3.1 "/>
<polygon class="st3" points="83.8,37.2 81.7,39.4 79.5,37.2 77.4,39.3 79.6,41.5 77.4,43.6 79.5,45.7 81.7,43.6 83.8,45.7 
	85.9,43.6 83.8,41.5 85.9,39.3 "/>
<polygon class="st3" points="1.1,52 2.2,53 4.3,50.9 6.5,53 7.5,52 8.6,50.9 6.4,48.8 8.6,46.6 7.5,45.6 6.5,44.5 4.3,46.6 
	2.2,44.5 1.1,45.6 0.1,46.6 2.2,48.8 0.1,50.9 "/>
<path class="st4" d="M56.4,4.8c0-2.6-2.1-4.8-4.8-4.8s-4.8,2.1-4.8,4.8s2.1,4.8,4.8,4.8S56.4,7.4,56.4,4.8z M51.6,6.5
	c-1,0-1.8-0.8-1.8-1.8c0-1,0.8-1.8,1.8-1.8s1.8,0.8,1.8,1.8C53.4,5.7,52.6,6.5,51.6,6.5z"/>
<path class="st4" d="M69.6,60.7c0,2.6,2.1,4.8,4.8,4.8s4.8-2.1,4.8-4.8s-2.1-4.8-4.8-4.8C71.8,55.9,69.6,58.1,69.6,60.7z M74.4,58.9
	c1,0,1.8,0.8,1.8,1.8s-0.8,1.8-1.8,1.8s-1.8-0.8-1.8-1.8S73.4,58.9,74.4,58.9z"/>
<path class="st4" d="M2.4,24.3c0,2.6,2.1,4.8,4.8,4.8c2.6,0,4.8-2.1,4.8-4.8s-2.1-4.8-4.8-4.8C4.5,19.5,2.4,21.6,2.4,24.3z
	 M8.9,24.3c0,1-0.8,1.8-1.8,1.8s-1.8-0.8-1.8-1.8c0-1,0.8-1.8,1.8-1.8S8.9,23.3,8.9,24.3z"/>
<path class="st4" d="M77.8,25.4c2.6,0,4.8-2.1,4.8-4.8s-2.1-4.8-4.8-4.8c-2.6,0-4.8,2.1-4.8,4.8S75.1,25.4,77.8,25.4z M77.8,18.9
	c1,0,1.8,0.8,1.8,1.8c0,1-0.8,1.8-1.8,1.8S76,21.6,76,20.7C76,19.7,76.8,18.9,77.8,18.9z"/>
<path class="st4" d="M16,63.8c-2.6,0-4.8,2.1-4.8,4.8s2.1,4.8,4.8,4.8s4.8-2.1,4.8-4.8S18.6,63.8,16,63.8z M16,70.3
	c-1,0-1.8-0.8-1.8-1.8s0.8-1.8,1.8-1.8s1.8,0.8,1.8,1.8S16.9,70.3,16,70.3z"/>
<g>
	<g>
		<circle class="st5" cx="38.8" cy="33" r="2.6"/>
		<circle class="st5" cx="47.2" cy="33" r="2.6"/>
		<path class="st5" d="M59,27.6c-0.4,0-0.8,0-1.3,0.1c-5.6-8.1-16.8-10.1-24.9-4.5c-1.8,1.2-3.3,2.8-4.5,4.5
			C25,27,21.8,29,21.1,32.3c-0.7,3,1.1,6.1,4,7c0.7,9.9,9.3,17.3,19.2,16.6c8.9-0.7,15.9-7.7,16.6-16.6c3.2-1,4.9-4.5,3.8-7.6
			C63.9,29.3,61.6,27.6,59,27.6z M25.4,36.4c-1.5,0-2.6-1.2-2.6-2.6c0-1.5,1.2-2.6,2.6-2.6s2.6,1.2,2.6,2.6
			C28.1,35.2,26.9,36.4,25.4,36.4C25.4,36.4,25.4,36.4,25.4,36.4z M29.5,42.9v-0.2c0-2.6,1.2-4.9,3.2-6.8c-0.8-1.1-1.2-2.3-1.2-3.7
			c0-3.5,2.8-6.3,6.3-6.3l0,0c2.1,0,4,1,5.2,2.7c2-2.9,5.9-3.6,8.8-1.6c1.7,1.2,2.7,3.1,2.7,5.2c0,1.3-0.4,2.6-1.2,3.7
			c2,1.8,3.2,4.2,3.2,6.8v0.2l-0.4,2.3c-1.5,4.6-6.8,8-13.1,8s-11.7-3.4-13.1-8 M60.6,36.4c-1.5,0-2.6-1.2-2.6-2.6
			c0-1.5,1.2-2.6,2.6-2.6s2.6,1.2,2.6,2.6C63.3,35.2,62.1,36.4,60.6,36.4z"/>
	</g>
	<path class="st5" d="M43,51c-5.3,0-9.7-2.8-11-6.7c2.5,1.3,6.5,2.1,11,2.1c4.4,0,8.5-0.8,11-2.1C52.7,48.1,48.3,51,43,51z"/>
</g>
</svg>
