<?xml version="1.0" encoding="utf-8"?>
<!-- Generator: Adobe Illustrator 23.0.1, SVG Export Plug-In . SVG Version: 6.00 Build 0)  -->
<svg version="1.1" id="Layer_1" xmlns="http://www.w3.org/2000/svg" xmlns:xlink="http://www.w3.org/1999/xlink" x="0px" y="0px"
	 viewBox="0 0 1026.7 554.7" style="enable-background:new 0 0 1026.7 554.7;" xml:space="preserve">
<style type="text/css">
	.st0{fill:#7c4dff;}
</style>
<polygon class="st0" points="458.7,33.4 402.3,33.4 402.3,47.8 420.4,47.8 420.4,113.5 440.4,113.5 440.4,47.8 458.7,47.8 "/>
<path class="st0" d="M502.6,33.4h-23.9l-22.2,80.1h19.3l4.6-18.3h18.4l4.4,18.3h19.3L502.6,33.4z M482.3,83.1l3.8-16.6
	c1.1-4.6,2.6-13,3.7-18.3h0.5c0.9,5.3,2.3,13.3,3.3,18.2l3.3,16.8L482.3,83.1L482.3,83.1z"/>
<path class="st0" d="M545.1,113.5l5.5-14.5c1.5-4.5,3.2-9.4,4.9-14.5h0.3c1.8,5.1,3.5,9.6,5.5,14.3l6.5,14.7h20.6l-20.3-40.3
	l19.2-39.8h-20L562.1,48c-1.4,4.4-2.6,8.2-4.3,13.1h-0.3c-1.7-4.5-3.1-8.7-4.7-12.8l-5.9-14.9H526l18.4,39.1l-19.2,41H545.1z"/>
<rect x="596.6" y="33.4" class="st0" width="20" height="80.1"/>
<g>
	<g>
		<circle class="st0" cx="340.3" cy="316.5" r="14.1"/>
		<circle class="st0" cx="386" cy="316.5" r="14.1"/>
		<g>
			<path class="st0" d="M449.7,287.1c-2.4,0-4.5,0.2-6.9,0.7c-17.4-25.3-46.7-41.7-79.6-41.7s-62.2,16.4-79.6,41.7
				c-2.1-0.5-4.5-0.7-6.9-0.7c-18.1,0-32.6,14.5-32.6,32.4c0,14.3,9.3,26.7,22.4,31c3.6,50.3,45.5,89.8,96.8,89.8
				s93.2-39.6,96.8-89.8c12.9-4.3,22.4-16.4,22.4-31C482.3,301.7,467.8,287.1,449.7,287.1z M267.8,335c-7.9,0-14.3-6.4-14.3-14.3
				c0-7.9,6.4-14.3,14.3-14.3c7.9,0,14.3,6.4,14.3,14.3C282.3,328.6,275.9,335,267.8,335z M363.1,425.6c-34.3,0-63.2-18.4-71-43.4
				c16.2,8.3,42.2,13.6,71,13.6s54.8-5.2,71-13.6C426.3,407,397.5,425.6,363.1,425.6z M436.3,369.8c-11.7,8.6-38.1,16.2-73.2,16.2
				s-61.5-7.6-73.2-16.2c0-0.2,0-0.7,0-1c0-14.1,6.4-26.7,17.4-36.7c-4.1-5.5-6.4-12.4-6.4-19.8c0-18.8,15.3-34.1,34.1-34.1
				c11.7,0,21.9,6,28.1,14.8c6.2-9.1,16.4-14.8,28.1-14.8c18.8,0,34.1,15.3,34.1,34.1c0,7.4-2.4,14.3-6.4,19.8
				c10.7,9.8,17.4,22.6,17.4,36.7C436.3,369.1,436.3,369.4,436.3,369.8z M458.5,335c-7.9,0-14.3-6.4-14.3-14.3
				c0-7.9,6.4-14.3,14.3-14.3c7.9,0,14.3,6.4,14.3,14.3C472.8,328.6,466.3,335,458.5,335z"/>
		</g>
	</g>
</g>
<path class="st0" d="M665.2,226.7c-60.1,0-108.7,48.7-108.7,108.8s48.6,108.8,108.7,108.8c60.2,0,108.9-48.7,108.9-108.8
	S725.3,226.7,665.2,226.7z M665.3,422.6c-48.1,0-87-39-87-87s39-87,87-87c48.1,0,87,39,87,87S713.4,422.6,665.3,422.6z M703.4,324.6
	c9,0,16.3-7.3,16.3-16.3c0-9-7.3-16.3-16.3-16.3c-9,0-16.3,7.3-16.3,16.3C687,317.3,694.3,324.6,703.4,324.6z M627.2,324.6
	c9,0,16.3-7.3,16.3-16.3c0-9-7.3-16.3-16.3-16.3c-9,0-16.3,7.3-16.3,16.3C610.9,317.3,618.2,324.6,627.2,324.6z M665.3,395.4
	c22.1,0,41.3-12.1,51.7-29.9c2.1-3.6-0.5-8.2-4.8-8.2h-93.8c-4.1,0-6.9,4.6-4.8,8.2C623.9,383.3,643.2,395.4,665.3,395.4z"/>
<path class="st0" d="M38.1,445.5l42.3,18.8c-27.2,18.4-47.9,47.8-58.7,82.6h983.4c-10.8-34.7-31.5-64.1-58.7-82.6l42.3-18.8
	c17.1-7.6,25.9-29.7,17.3-47.5c-4.4-9.2-12.7-16.4-23.9-18c0,0-34.3-11.2-63.4-6.7c-8.7,1.4-16.4,6.7-21.4,14.5l-0.1,0.2l-9.2,14.2
	l-41-125.3c-22.3-51.9-62.9-127.4-108.8-133.3c-15.5-2-31-3.6-46.5-5.2l-15.9-79.3C668.9,24.7,638.7,0,603.6,0h-90.3H423
	c-35.1,0-65.3,24.7-72.2,59.1L335,138.4c-15.5,1.6-31,3.2-46.5,5.2c-45.9,5.9-86.5,81.4-108.8,133.3l-40.9,125.3l-9.2-14.2l-0.1-0.2
	c-5.1-7.8-12.8-13.2-21.4-14.5C79,368.7,44.7,380,44.7,380c-11.2,1.6-19.4,8.8-23.9,18C12.2,415.9,21,438,38.1,445.5z M359.2,60.8
	c6.1-30.3,33-52.4,63.9-52.4h180.5c30.9,0,57.8,22,63.9,52.4l15.4,76.6c-112.9-10.9-226.2-10.9-339.1,0L359.2,60.8z M209.6,298.1
	c16.9-39.3,47.6-106.4,82.3-110.8c73.3-9.4,147.8-14.2,221.5-14.2s148.2,4.8,221.4,14.2c34.7,4.5,65.5,71.6,82.4,110.8l49.5,175.2
	c-68.2-5-203.9-7.4-344.4-7.4c-142.6,0-290.1,2.6-362.3,7.6L209.6,298.1z"/>
</svg>
