<?xml version="1.0" encoding="utf-8"?>
<!-- Generator: Adobe Illustrator 21.1.0, SVG Export Plug-In . SVG Version: 6.00 Build 0)  -->
<svg version="1.1"
	 id="Layer_1" xmlns:cc="http://creativecommons.org/ns#" xmlns:dc="http://purl.org/dc/elements/1.1/" xmlns:inkscape="http://www.inkscape.org/namespaces/inkscape" xmlns:rdf="http://www.w3.org/1999/02/22-rdf-syntax-ns#" xmlns:sodipodi="http://sodipodi.sourceforge.net/DTD/sodipodi-0.dtd" xmlns:svg="http://www.w3.org/2000/svg"
	 xmlns="http://www.w3.org/2000/svg" xmlns:xlink="http://www.w3.org/1999/xlink" x="0px" y="0px" viewBox="0 0 24 24"
	 style="enable-background:new 0 0 24 24;" xml:space="preserve">
<style type="text/css">
	.st0{fill:#FFFFFF;}
</style>
<g transform="translate(0,-952.36218)">
	<path class="st0" d="M16.3,955.4c-2.2,0.6-4.4,1.3-6.5,2c-0.2,0-0.3,0.2-0.3,0.4v3.3l-6,2.8c-0.1,0.1-0.2,0.2-0.2,0.4v8.8
		c0,0.2,0.2,0.4,0.4,0.4h16.8c0.2,0,0.4-0.2,0.4-0.4v-15.1c0-0.1-0.1-0.3-0.2-0.3l-4.1-2.2C16.4,955.4,16.3,955.4,16.3,955.4
		L16.3,955.4z M16.7,956.4l3.3,1.7v14.4h-3.3C16.7,967.2,16.7,961.8,16.7,956.4z M17.3,959.5v1.6h0.8v-1.6H17.3z M18.7,959.5v1.6
		h0.8v-1.6H18.7z M12,960.9l3.9,0.8c0,3.6,0,7.2,0,10.8H12L12,960.9z M17.3,961.8v1.6h0.8v-1.6H17.3z M18.7,961.8v1.6h0.8v-1.6H18.7
		z M12.4,962.2v1.6h0.8v-1.6H12.4z M13.6,962.2v1.6h0.8v-1.6H13.6z M14.7,962.2v1.6h0.8v-1.6H14.7z M12.4,964.2v1.6h0.8v-1.6H12.4z
		 M13.6,964.2v1.6h0.8v-1.6H13.6z M14.7,964.2v1.6h0.8v-1.6H14.7z M17.3,964.2v1.6h0.8v-1.6H17.3z M18.7,964.2v1.6h0.8v-1.6H18.7z
		 M12.4,966.5v1.6h0.8v-1.6H12.4z M13.6,966.5v1.6h0.8v-1.6H13.6z M14.7,966.5v1.6h0.8v-1.6H14.7z M17.3,966.5v1.6h0.8v-1.6H17.3z
		 M18.7,966.5v1.6h0.8v-1.6H18.7z M12.4,968.9v1.6h0.8v-1.6H12.4z M13.6,968.9v1.6h0.8v-1.6H13.6z M14.7,968.9v1.6h0.8v-1.6H14.7z
		 M17.3,968.9v1.6h0.8v-1.6H17.3z M18.7,968.9v1.6h0.8v-1.6H18.7z"/>
</g>
</svg>
