<svg id="186092e7-3880-4ce8-ba4d-9f00931d2e03" data-name="Layer 1" xmlns="http://www.w3.org/2000/svg" viewBox="0 0 24 24">
  <defs>
    <style>
      .\38 f612625-d8c0-4ae9-8347-ae603d23c909 {
        fill: none;
      }

      .\34 649cca6-c6c3-46bc-9102-73697ca59a43 {
        fill: #f6f4fa;
      }
    </style>
  </defs>
  <title>ic_like_white_middle</title>
  <path class="8f612625-d8c0-4ae9-8347-ae603d23c909" d="M24,24H0V0H24Z"/>
  <path class="4649cca6-c6c3-46bc-9102-73697ca59a43" d="M2,20H4a1,1,0,0,0,1-1V10A1,1,0,0,0,4,9H2Zm19.83-7.12a2,2,0,0,0,.17-.8V11a2,2,0,0,0-2-2H14.5l.92-4.65a1,1,0,0,0-.08-.66,4.8,4.8,0,0,0-.88-1.22L14,2,7.59,8.41A2,2,0,0,0,7,9.83v7.84A2.34,2.34,0,0,0,9.34,20h8.11a2,2,0,0,0,1.72-1Z"/>
</svg>
