<?xml version="1.0" encoding="utf-8"?>
<!-- Generator: Adobe Illustrator 23.0.1, SVG Export Plug-In . SVG Version: 6.00 Build 0)  -->
<svg version="1.1" id="Layer_1" xmlns="http://www.w3.org/2000/svg" xmlns:xlink="http://www.w3.org/1999/xlink" x="0px" y="0px"
	 viewBox="0 0 91 58.7" style="enable-background:new 0 0 91 58.7;" xml:space="preserve">
<style type="text/css">
	.st0{fill:#FFFFFF;}
</style>
<g>
	<path class="st0" d="M33.2,28.9c1.3,1,3.9,2.3,6.8,2.3c2.1,0,4.3-0.6,6.6-2.2c1.1-0.8,1.4-2.3,0.6-3.5c-0.8-1.1-2.3-1.4-3.5-0.6
		c-3.8,2.7-7.1,0.3-7.5,0.1c-1.1-0.8-2.6-0.6-3.5,0.4C31.9,26.5,32.1,28.1,33.2,28.9z"/>
	<circle class="st0" cx="34.4" cy="18.2" r="2.8"/>
	<path class="st0" d="M48.4,18.2c0-1.6-1.3-2.8-2.8-2.8c-1.6,0-2.8,1.3-2.8,2.8c0,1.6,1.3,2.8,2.8,2.8C47.1,21,48.4,19.7,48.4,18.2z
		"/>
	<path class="st0" d="M65.3,25.4c1.3,1,3.9,2.3,6.9,2.3c2.1,0,4.3-0.6,6.6-2.2c1.1-0.8,1.4-2.3,0.6-3.5c-0.8-1.1-2.3-1.4-3.5-0.6
		c-3.8,2.7-7.1,0.3-7.5,0.1c-1.1-0.8-2.6-0.6-3.5,0.4C64,23,64.2,24.6,65.3,25.4z"/>
	<path class="st0" d="M69.3,14.7c0-1.6-1.3-2.8-2.8-2.8s-2.8,1.3-2.8,2.8c0,1.6,1.3,2.8,2.8,2.8S69.3,16.3,69.3,14.7z"/>
	<path class="st0" d="M80.5,14.7c0-1.6-1.3-2.8-2.8-2.8c-1.6,0-2.8,1.3-2.8,2.8c0,1.6,1.3,2.8,2.8,2.8
		C79.2,17.5,80.5,16.3,80.5,14.7z"/>
	<path class="st0" d="M10.4,47.4c0.2,1.5,1.1,2.7,2.5,3.2c0.5,0.2,1,0.2,1.6,0.2c0.2,0,0.5,0,0.7,0c-0.6,1.1-1.1,2.2-1.7,3.2
		l-0.1,0.2c-0.6,1.2-0.1,2.7,1.1,3.3c0.4,0.2,0.7,0.3,1.1,0.3c0.9,0,1.8-0.5,2.2-1.4l0.1-0.2c1.9-3.8,3.9-7.8,7-9.9
		c1.6,0.8,3.2,1.5,5,2c0.2,0.1,0.4,0.1,0.6,0.1c1.1,0,2.1-0.7,2.4-1.9c0.3-1.3-0.5-2.7-1.8-3c-7.9-2-13.3-9.1-13.3-17.3
		c0-9.8,8-17.8,17.8-17.8c9.8,0,17.8,8,17.8,17.8c0,6.1-3.2,11.8-8.3,15c0,0,0,0,0,0c-0.7,0.5-1.5,0.9-2.3,1.2
		c-1.3,0.6-1.8,2-1.3,3.3c0.6,1.3,2,1.8,3.3,1.3c0.5-0.2,1-0.5,1.5-0.8c3.3,2.1,6.5,6.1,8.7,10.9c0.4,0.9,1.3,1.5,2.3,1.5
		c0.3,0,0.7-0.1,1-0.2c1.2-0.6,1.8-2,1.2-3.3c-2.2-4.9-5.4-9.1-8.9-11.8c1-0.9,1.9-1.8,2.7-2.8c2.5,2,5.4,3.5,8.6,4.3
		c0.2,0.1,0.4,0.1,0.6,0.1c1.1,0,2.1-0.7,2.4-1.9c0.3-1.3-0.4-2.7-1.8-3c-2.6-0.7-5.1-2-7.1-3.8c1.5-3.1,2.3-6.5,2.3-10
		c0-5.4-1.9-10.3-5-14.2C56.9,7.6,62.1,5,67.8,5c9.8,0,17.8,8,17.8,17.8c0,6.1-3.2,11.8-8.3,15c0,0,0,0,0,0
		c-0.7,0.5-1.5,0.9-2.3,1.2c-1.3,0.6-1.8,2-1.3,3.3c0.4,0.9,1.3,1.5,2.3,1.5c0.3,0,0.7-0.1,1-0.2c0.5-0.2,1-0.5,1.5-0.7
		c3.1,2.3,5.2,7,6.9,10.9L86,55c0.4,0.9,1.3,1.5,2.3,1.5c0.3,0,0.7-0.1,1-0.2c1.2-0.6,1.8-2,1.2-3.3L90,51.9
		c-1.8-4-3.9-8.7-7.3-11.8c4.9-4.3,7.9-10.5,7.9-17.2C90.6,10.2,80.4,0,67.8,0c-7,0-13.5,3.1-17.8,8.5c-3.9-3.2-8.9-5.1-14.3-5.1
		c-12.6,0-22.8,10.2-22.8,22.8c0,3.6,0.9,7,2.4,10.1C13.1,38.8,10,44.4,10.4,47.4z M18.1,40.8c0.8,0.9,1.6,1.8,2.5,2.6
		c-0.9,0.8-3.4,2.1-5.1,2.5C16,44.4,17.2,42.2,18.1,40.8z"/>
	<path class="st0" d="M8.2,33.7c0.5,0.4,1.1,0.7,1.7,0.7c0.7,0,1.3-0.3,1.8-0.8c0.9-1,0.9-2.6-0.1-3.5L8.2,27
		c-1-0.9-2.6-0.9-3.5,0.1c-0.9,1-0.9,2.6,0.1,3.5L8.2,33.7z"/>
	<path class="st0" d="M2.4,39.2c0.9,0.1,3.6,0.4,4.8,0.7C7.5,40,7.7,40,7.8,40c1.1,0,2.1-0.8,2.4-1.9c0.3-1.3-0.5-2.7-1.9-3
		c-1.8-0.4-5.3-0.8-5.4-0.8c-1.4-0.2-2.6,0.8-2.7,2.2C0.1,37.8,1.1,39.1,2.4,39.2z"/>
	<path class="st0" d="M7,47.1c0.6-0.3,1.1-0.6,1.6-0.9c1.3-0.6,1.8-2,1.3-3.3c-0.6-1.3-2-1.8-3.3-1.3c-0.8,0.3-1.4,0.7-2.1,1.1
		c-0.6,0.4-1.2,0.7-1.7,0.9c-1.3,0.5-1.9,2-1.3,3.2c0.4,0.9,1.3,1.5,2.3,1.5c0.3,0,0.6-0.1,1-0.2C5.5,47.9,6.3,47.5,7,47.1z"/>
</g>
</svg>
