<svg id="b9a7328f-1249-46eb-94c2-4d24a0153568" data-name="Layer 1" xmlns="http://www.w3.org/2000/svg" width="20" height="18" viewBox="0 0 20 18"><defs><style>.eeb776bc-4034-42fb-a426-268c9c87dcf7{fill:#383838;}</style></defs><title>ic_photo_black</title><circle class="eeb776bc-4034-42fb-a426-268c9c87dcf7" cx="10" cy="10" r="3.2"/><path class="eeb776bc-4034-42fb-a426-268c9c87dcf7" d="M9,3,7.17,5H4A2,2,0,0,0,2,7V19a2,2,0,0,0,2,2H20a2,2,0,0,0,2-2V7a2,2,0,0,0-2-2H16.83L15,3Zm3,15a5,5,0,1,1,5-5A5,5,0,0,1,12,18Z" transform="translate(-2 -3)"/></svg>