<svg id="af586ff7-15de-414b-b807-fef9124b6e9b" data-name="Layer 1" xmlns="http://www.w3.org/2000/svg" width="20" height="10.57" viewBox="0 0 20 10.57"><defs><style>.a0919758-f6a1-473e-9555-6c41cdd3735b{fill:#a0a0a0;}</style></defs><title>ic_view_middle</title><path class="a0919758-f6a1-473e-9555-6c41cdd3735b" d="M21.91,11.75a12.79,12.79,0,0,0-9.91-5,12.79,12.79,0,0,0-9.91,5,.45.45,0,0,0,0,.54,12.87,12.87,0,0,0,9.91,5,12.79,12.79,0,0,0,9.91-5A.39.39,0,0,0,21.91,11.75ZM12,16a4,4,0,1,1,4-4A4,4,0,0,1,12,16Z" transform="translate(-2 -6.71)"/><circle class="a0919758-f6a1-473e-9555-6c41cdd3735b" cx="10" cy="5.29" r="1.42"/></svg>