<svg xmlns="http://www.w3.org/2000/svg" viewBox="0 0 48 48">
  <g fill="none" fill-rule="evenodd">
    <circle cx="24" cy="24" r="24" fill="#7c4dff" fill-rule="nonzero"/>
    <g transform="translate(12 13)">
      <path fill="#EEE" d="M0.300019726,9.67498521 C0.300019726,12.9689162 2.48992438,15.8590948 5.78417096,17.4911474 C5.60490082,18.1092033 4.63248658,21.4673622 4.59374466,21.7311386 C4.59374466,21.7311386 4.57046795,21.9294247 4.69884493,22.0050148 C4.82722192,22.0806049 4.97816548,22.0219003 4.97816548,22.0219003 C5.34633205,21.9704548 9.2467989,19.2306674 9.92190247,18.7548756 C10.5963748,18.8503496 11.2908099,18.8999803 12,18.8999803 C18.4617732,18.8999803 23.6999803,14.7699025 23.6999803,9.67498521 C23.6999803,4.58022575 18.4617732,0.449990137 12,0.449990137 C5.53822685,0.449990137 0.300019726,4.58022575 0.300019726,9.67498521 Z"/>
      <path fill="#262626" d="M5.53128329 12.8952986C5.1590137 12.8952986 4.85625863 12.606194 4.85625863 12.2506521L4.85625863 8.2405874 3.80304658 8.2405874C3.43772055 8.2405874 3.14064658 7.94406575 3.14064658 7.57968658 3.14064658 7.2153074 3.43787836 6.91878575 3.80304658 6.91878575L7.2594411 6.91878575C7.62476712 6.91878575 7.9218411 7.2153074 7.9218411 7.57968658 7.9218411 7.94406575 7.62468822 8.2405874 7.2594411 8.2405874L6.20622904 8.2405874 6.20622904 12.2506521C6.20622904 12.606194 5.90347397 12.8952986 5.53128329 12.8952986M10.1992504 10.51776L9.52501479 8.60244164 8.85077918 10.51776 10.1992504 10.51776zM11.4501173 12.8865403C11.1685874 12.8865403 10.953337 12.7722082 10.8883989 12.5884405L10.5541611 11.713394 8.49586849 11.7132362 8.16139397 12.5888351C8.0966926 12.772366 7.8815211 12.8865403 7.59999123 12.8865403 7.45141479 12.8865403 7.30291726 12.8543474 7.17091068 12.7933545 6.98485479 12.7075858 6.80597918 12.4715047 7.01097205 11.8349063L8.62558685 7.58505205C8.73928767 7.26186082 9.08480877 6.92888548 9.52446247 6.91886466 9.96529973 6.92872767 10.3108208 7.26186082 10.4247584 7.58576219L12.038663 11.8336438C12.2441293 12.4717414 12.0652537 12.7079014 11.8791978 12.7935123 11.7469545 12.8543474 11.5986937 12.8865403 11.4501173 12.8865403zM13.1250148 12.7969052C12.7682893 12.7969052 12.4781589 12.5192416 12.4781589 12.1781392L12.4781589 7.59373151C12.4781589 7.22146192 12.7873052 6.91878575 13.1671496 6.91878575 13.5470729 6.91878575 13.8562192 7.22146192 13.8562192 7.59373151L13.8562192 11.5593732 15.290617 11.5593732C15.6473425 11.5593732 15.9374729 11.8370367 15.9374729 12.1781392 15.9374729 12.5192416 15.6473425 12.7969052 15.290617 12.7969052L13.1250148 12.7969052M16.8750904 12.8865403C16.5028208 12.8865403 16.2000658 12.5837852 16.2000658 12.2115156L16.2000658 7.59373151C16.2000658 7.22146192 16.5028208 6.91878575 16.8750904 6.91878575 17.24736 6.91878575 17.5500362 7.22146192 17.5500362 7.59373151L17.5500362 9.04454137 19.4333195 7.16133699C19.5302137 7.06444274 19.663246 7.01110356 19.8077195 7.01110356 19.9762586 7.01110356 20.145429 7.08377425 20.2722279 7.21049425 20.3905052 7.3286137 20.4610455 7.48058301 20.4706718 7.63839123 20.4804559 7.79761973 20.4275112 7.94351342 20.3217008 8.04940274L18.7835441 9.58740164 20.4450279 11.7885107C20.5536789 11.9324318 20.5997589 12.109966 20.5746674 12.2886049 20.5496548 12.4672438 20.4566268 12.6252099 20.3127058 12.7337819 20.1945863 12.8229436 20.0542948 12.8699704 19.9067441 12.8699704 19.6927562 12.8699704 19.4963638 12.772366 19.3675134 12.6016964L17.7845392 10.5042674 17.5502729 10.7384548 17.5502729 12.2112C17.5500362 12.5837063 17.24736 12.8865403 16.8750904 12.8865403"/>
    </g>
  </g>
</svg>
