<svg xmlns="http://www.w3.org/2000/svg" viewBox="0 0 48 48">
  <path fill="#333" d="M24,0.428571429 C10.9714286,0.428571429 0.428571429,10.9714286 0.428571429,24 C0.428571429,37.0285714 10.9714286,47.5714286 24,47.5714286 C37.0285714,47.5714286 47.5714286,37.0285714 47.5714286,24 C47.5714286,10.9714286 37.0285714,0.428571429 24,0.428571429 Z M30.2571429,23.9142857 L26.1428571,23.9142857 C26.1428571,30.4285714 26.1428571,38.4857143 26.1428571,38.4857143 L20.0571429,38.4857143 C20.0571429,38.4857143 20.0571429,30.5142857 20.0571429,23.9142857 L17.1428571,23.9142857 L17.1428571,18.7714286 L20.0571429,18.7714286 L20.0571429,15.4285714 C20.0571429,13.0285714 21.1714286,9.34285714 26.1428571,9.34285714 L30.6,9.34285714 L30.6,14.3142857 C30.6,14.3142857 27.8571429,14.3142857 27.3428571,14.3142857 C26.8285714,14.3142857 26.0571429,14.5714286 26.0571429,15.6857143 L26.0571429,18.6857143 L30.6857143,18.6857143 L30.2571429,23.9142857 Z"/>
</svg>
