<svg id="Layer_1" data-name="Layer 1" xmlns="http://www.w3.org/2000/svg" width="247.94" height="55.33" viewBox="0 0 247.94 55.33"><defs><style>.cls-1,.cls-2{fill:#fff;}.cls-1{fill-rule:evenodd;}</style></defs><title>logo_ver4_white</title><path class="cls-1" d="M60.12,46.21l5.27-5.27a4.33,4.33,0,0,0,.29.52,3.59,3.59,0,0,0,1.41,1.26,5.1,5.1,0,0,0,2.33.46,4.52,4.52,0,0,0,2.46-.56,3.24,3.24,0,0,0,1.26-1.46,6,6,0,0,0,.46-1.95q.08-1,.08-2V12.61a2.14,2.14,0,0,1,2.14-2.14h5.91V37.54a24.27,24.27,0,0,1-.36,3.95A9.64,9.64,0,0,1,76,48.64a14.19,14.19,0,0,1-6.51,1.26,15.55,15.55,0,0,1-4.46-.64,11.16,11.16,0,0,1-3.84-2A9.28,9.28,0,0,1,60.12,46.21Z" transform="translate(0 -5)"/><path class="cls-1" d="M103.34,46.84A9.75,9.75,0,0,1,99.6,49.1a11.43,11.43,0,0,1-4.51.49,12.73,12.73,0,0,1-4.79-.77,6.91,6.91,0,0,1-2.95-2.18,8.51,8.51,0,0,1-1.51-3.43,21.36,21.36,0,0,1-.44-4.48V22.43h5.14a2.14,2.14,0,0,1,2.14,2.14V37.39a9.28,9.28,0,0,0,1,4.89,4,4,0,0,0,3.64,1.61,5,5,0,0,0,4.31-1.77Q103,40.37,103,36.32V22.43h7.28V49.59H106.1A2.76,2.76,0,0,1,103.34,46.84Z" transform="translate(0 -5)"/><path class="cls-1" d="M120.86,25.2a9.75,9.75,0,0,1,3.74-2.26,11.43,11.43,0,0,1,4.51-.49,12.73,12.73,0,0,1,4.79.77,6.91,6.91,0,0,1,2.95,2.18,8.51,8.51,0,0,1,1.51,3.43,21.36,21.36,0,0,1,.44,4.48v16.3h-5.14a2.14,2.14,0,0,1-2.14-2.14V34.64a9.28,9.28,0,0,0-1-4.89,4,4,0,0,0-3.64-1.61,5,5,0,0,0-4.31,1.77q-1.33,1.77-1.33,5.82V49.61h-7.28V22.44h4.16A2.76,2.76,0,0,1,120.86,25.2Z" transform="translate(0 -5)"/><path class="cls-1" d="M230,25.2a9.75,9.75,0,0,1,3.74-2.26,11.43,11.43,0,0,1,4.51-.49,12.73,12.73,0,0,1,4.79.77A6.91,6.91,0,0,1,246,25.39a8.51,8.51,0,0,1,1.51,3.43,21.36,21.36,0,0,1,.44,4.48v16.3H242.8a2.14,2.14,0,0,1-2.14-2.14V34.64a9.28,9.28,0,0,0-1-4.89A4,4,0,0,0,236,28.13a5,5,0,0,0-4.31,1.77q-1.33,1.77-1.33,5.82V49.61h-7.28V22.44h4.16A2.76,2.76,0,0,1,230,25.2Z" transform="translate(0 -5)"/><path class="cls-1" d="M172.57,48.88h7.28V18.42a2.14,2.14,0,0,0-2.14-2.14h-5.14Z" transform="translate(0 -5)"/><path class="cls-1" d="M183.53,48.93h7.28V27.56a2.14,2.14,0,0,0-2.14-2.14h-5.14Z" transform="translate(0 -5)"/><path class="cls-1" d="M187.17,23.56h0a3.64,3.64,0,1,0,0-7.28h0a3.64,3.64,0,1,0,0,7.28Z" transform="translate(0 -5)"/><path class="cls-2" d="M56.8,25.26a4.54,4.54,0,0,0-1.29.2C54.1,14.3,43.7,5,31.1,5s-23,9.34-24.41,20.5a4.77,4.77,0,0,0-1.29-.2c-3,0-5.4,2-5.4,5.72s3.63,7.69,6.61,7.69a3.63,3.63,0,0,0,1.61-.36C11.8,48.74,20.7,56.08,31.1,56.08S50.35,48.74,54,38.35a3.16,3.16,0,0,0,1.61.36c3,0,6.61-4,6.61-7.69S59.78,25.26,56.8,25.26ZM6.53,37.14c-1.73,0-3.83-2.34-3.83-4.51a3,3,0,0,1,3.1-3.34,2.28,2.28,0,0,1,.73.12,33.11,33.11,0,0,0,1.21,7.41A2.35,2.35,0,0,1,6.53,37.14Zm38.79,3.34a7.76,7.76,0,0,1,0,1c0,6.4-7.85,11.6-14.3,11.6S16.8,47.86,16.8,41.41c0-.32,0-.64,0-1a12.11,12.11,0,0,1-3.5-8.7c0-6,3.95-11,8.86-11,4.35,0,8,3.87,8.7,9h.28c.73-5.12,4.35-9,8.7-9,4.87,0,8.86,4.91,8.86,11a11.79,11.79,0,0,1-3.42,8.74Zm10.31-3.34a1.92,1.92,0,0,1-1.17-.36,30.6,30.6,0,0,0,1.17-7.41,2.28,2.28,0,0,1,.73-.12,3.05,3.05,0,0,1,3.1,3.34C59.45,34.73,57.32,37.14,55.63,37.14Z" transform="translate(0 -5)"/><path class="cls-2" d="M22.36,41.49a8.74,8.74,0,0,0,17.48,0" transform="translate(0 -5)"/><path class="cls-1" d="M39.29,33h0a3,3,0,1,0,0-6.08h0a3,3,0,1,0,0,6.08Z" transform="translate(0 -5)"/><path class="cls-1" d="M22.9,33h0a3,3,0,1,0,0-6.08h0a3,3,0,1,0,0,6.08Z" transform="translate(0 -5)"/><path class="cls-1" d="M195.31,30.76a8.45,8.45,0,0,1,1.28-4.25,8.72,8.72,0,0,1,2.87-2.72,12.5,12.5,0,0,1,3.92-1.46,22.33,22.33,0,0,1,4.38-.44,29.79,29.79,0,0,1,4,.28,12.41,12.41,0,0,1,3.74,1.1,7.38,7.38,0,0,1,2.77,2.28,6.37,6.37,0,0,1,1.08,3.87V43.21c0,1.2,0,4.88,0,5.89h-6.46q0-2.12,0-2.56a11.27,11.27,0,0,1-4.61,2.51,16.46,16.46,0,0,1-4.82.72,13,13,0,0,1-3.54-.46,8.09,8.09,0,0,1-2.87-1.44,6.67,6.67,0,0,1-1.92-2.46,8.31,8.31,0,0,1-.69-3.54,7.73,7.73,0,0,1,.79-3.72,6.64,6.64,0,0,1,2.05-2.33,9.19,9.19,0,0,1,2.87-1.31,30.87,30.87,0,0,1,3.25-.69q1.64-.26,3.23-.41a19.42,19.42,0,0,0,2.82-.46,4.91,4.91,0,0,0,1.95-.9,2,2,0,0,0,.67-1.72,3.86,3.86,0,0,0-.38-1.87,2.82,2.82,0,0,0-1-1.08,4,4,0,0,0-1.49-.51,12.23,12.23,0,0,0-1.82-.13,5.52,5.52,0,0,0-3.38.92,4.11,4.11,0,0,0-1.43,3.08Zm16.81,5.38a3.26,3.26,0,0,1-1.15.64,11.77,11.77,0,0,1-1.49.38q-.8.15-1.67.26t-1.74.26a13.22,13.22,0,0,0-1.61.41,4.78,4.78,0,0,0-1.38.69,3.29,3.29,0,0,0-.95,1.1,3.55,3.55,0,0,0-.36,1.69,3.42,3.42,0,0,0,.36,1.64,2.75,2.75,0,0,0,1,1.05,4.11,4.11,0,0,0,1.44.54,9.15,9.15,0,0,0,1.69.15,6.43,6.43,0,0,0,3.33-.72,4.8,4.8,0,0,0,1.74-1.72,5.5,5.5,0,0,0,.69-2,14.12,14.12,0,0,0,.13-1.64Z" transform="translate(0 -5)"/><path class="cls-2" d="M144.8,57.65c.58-1.41,1.08-2.81,1.72-4.13s1.68-1.36,2.92-1a13.83,13.83,0,0,0,7.61.67,5,5,0,0,0,4.11-5.84,23.93,23.93,0,0,1-4.24,1.53c-6.92,1.13-12.49-2.71-14-9.57a16.93,16.93,0,0,1,.52-9.39,11.7,11.7,0,0,1,17.85-5.71l.68.44c1.7-2.78,4.35-1.68,6.92-1.88,0,.73,0,1.31,0,1.89q0,10.8,0,21.61c0,9.36-6.42,15-15.77,13.9A20.11,20.11,0,0,1,144.8,57.65ZM161.44,36c-.07-1.06-.07-1.81-.17-2.54-.42-2.94-2.17-4.51-5.2-4.72a5,5,0,0,0-5.44,3.86,9.4,9.4,0,0,0,.54,6.94c1.06,2.18,3.05,3.16,5.67,2.91A4.66,4.66,0,0,0,161,38.66,22.83,22.83,0,0,0,161.44,36Z" transform="translate(0 -5)"/></svg>