<?xml version="1.0" encoding="utf-8"?>
<!-- Generator: Adobe Illustrator 21.1.0, SVG Export Plug-In . SVG Version: 6.00 Build 0)  -->
<svg version="1.1" id="Layer_1" xmlns="http://www.w3.org/2000/svg" xmlns:xlink="http://www.w3.org/1999/xlink" x="0px" y="0px"
	 viewBox="0 0 427.2 81.5" style="enable-background:new 0 0 427.2 81.5;" xml:space="preserve">
<style type="text/css">
	.st0{fill:#FFFFFF;}
	.st1{clip-path:url(#SVGID_2_);}
</style>
<title>logo_ver4_bold</title>
<circle class="st0" cx="40.4" cy="29.5" r="5.9"/>
<circle class="st0" cx="59.6" cy="29.5" r="5.9"/>
<path class="st0" d="M86.3,17.2c-1,0-1.9,0.1-2.9,0.3C70.6-0.9,45.3-5.5,26.9,7.2c-4,2.8-7.5,6.3-10.3,10.3
	c-7.4-1.6-14.7,3-16.3,10.4c-1.5,6.9,2.4,13.8,9.1,15.9C11.1,66.2,30.6,83.1,53,81.4c20.1-1.5,36.1-17.5,37.6-37.6
	c7.2-2.3,11.1-10.1,8.7-17.2C97.5,21,92.2,17.2,86.3,17.2z M10,37.3c-3.3,0-6-2.7-6-6s2.7-6,6-6s6,2.7,6,6c0.1,3.3-2.5,5.9-5.8,6
	C10.1,37.3,10.1,37.3,10,37.3z M50,75.3c-14.4,0-26.5-7.7-29.8-18.2c6.8,3.5,17.7,5.7,29.8,5.7s23-2.2,29.8-5.7
	C76.5,67.5,64.4,75.3,50,75.3z M80.7,51.9c-4.9,3.6-16,6.8-30.7,6.8s-25.8-3.2-30.7-6.8v-0.4c0-5.9,2.7-11.2,7.3-15.4
	c-1.8-2.4-2.7-5.3-2.7-8.3c0-7.9,6.4-14.3,14.3-14.3c0,0,0,0,0,0c4.7,0,9.1,2.3,11.8,6.2c4.5-6.5,13.4-8.2,19.9-3.7
	c3.9,2.7,6.2,7.1,6.2,11.8c0,3-0.9,5.9-2.7,8.3c4.5,4.1,7.3,9.5,7.3,15.4L80.7,51.9z M90,37.3c-3.3,0-6-2.7-6-6s2.7-6,6-6s6,2.7,6,6
	S93.3,37.3,90,37.3z"/>
<g>
	<defs>
		<path id="SVGID_1_" d="M132.6,58.5c-2.6,2.5-6.2,3.7-10.7,3.7c-5.7,0.1-11.1-2.4-14.6-6.8l5-7.5c1.3,1.4,2.9,2.6,4.6,3.5
			c1.3,0.7,2.8,1.2,4.3,1.2c1.2,0.1,2.4-0.4,3.2-1.3c0.8-1,1.3-2.3,1.2-3.6V28.7h-14.4v-9.1h25.4V48C136.5,52.5,135.2,56,132.6,58.5
			z M157.4,50.7c1.6,1.6,3.7,2.5,5.9,2.4c2.2,0.1,4.3-0.8,5.7-2.4c1.5-1.8,2.3-4.1,2.2-6.4V19.7h11v24.7c0.1,3.4-0.7,6.7-2.3,9.6
			c-1.5,2.7-3.8,4.9-6.6,6.3c-3.1,1.5-6.5,2.3-10,2.2c-3.5,0.1-7-0.7-10.1-2.2c-2.8-1.4-5.2-3.6-6.8-6.3c-1.6-2.9-2.4-6.2-2.4-9.6
			V19.7h11v24.7C155,46.7,155.8,49,157.4,50.7z M219.3,19.7h10.2v42.1H220l-19.1-25.1v25.1h-10.3V19.7h9.7L219.4,45L219.3,19.7z
			 M266.4,40.2h9.5V57c-2.5,1.8-5.3,3.1-8.2,4c-3,1-6.1,1.5-9.3,1.5c-4,0.1-8-0.9-11.5-2.8c-3.3-1.8-6.1-4.5-8.1-7.8
			c-2-3.4-3-7.2-2.9-11.2c-0.1-3.9,1-7.7,3-11.1c2-3.3,4.9-6,8.3-7.8c3.7-1.9,7.7-2.9,11.9-2.8c3.2,0,6.4,0.6,9.4,1.7
			c2.9,1,5.6,2.6,7.9,4.6l-6.2,7.7c-1.5-1.4-3.3-2.6-5.2-3.4c-1.8-0.8-3.8-1.2-5.9-1.3c-4.3-0.1-8.3,2.3-10.3,6.1
			c-1.1,1.9-1.6,4.1-1.6,6.3c0,2.2,0.5,4.4,1.6,6.3c1,1.9,2.5,3.4,4.3,4.5c1.9,1.1,4,1.6,6.1,1.6c2.5-0.1,5-0.8,7.3-2L266.4,40.2z
			 M284,19.7h11v32.7h17.8v9.4H284V19.7z M318.6,19.7h11v42.1h-11V19.7z M369.5,61.7l-2.9-7.4h-18.1l-2.9,7.4h-11.3l18.1-42.1h11.3
			l17.6,42.1H369.5z M351.8,45.9h11.6l-5.8-15L351.8,45.9z M414.6,19.7h10.2v42.1h-9.6l-19.1-25.1v25.1h-10.3V19.7h9.7L414.6,45
			L414.6,19.7z M162.9,63.1c-3.4,0-6.8-0.8-9.8-2.3c-2.9-1.4-5.4-3.7-7-6.5c-1.7-3-2.5-6.4-2.4-9.8V19.2h12v25.2
			c-0.1,2.2,0.7,4.4,2.2,6c1.5,1.5,3.5,2.3,5.6,2.2c2,0.1,4-0.7,5.4-2.2c1.4-1.7,2.2-3.8,2.1-6l0-25.2h12v25.2
			c0.1,3.4-0.7,6.8-2.3,9.9c-1.6,2.8-3.9,5.1-6.8,6.5c-3.2,1.6-6.7,2.3-10.2,2.3C163.2,63.1,163.1,63.1,162.9,63.1z M144.6,20.2
			v24.3c-0.1,3.3,0.7,6.5,2.3,9.3c1.5,2.7,3.8,4.8,6.6,6.1c3.1,1.5,6.5,2.2,9.9,2.2c3.4,0.1,6.8-0.7,9.8-2.2
			c2.7-1.4,4.9-3.5,6.4-6.1c1.5-2.9,2.3-6.1,2.2-9.4V20.2h-10v24.2c0.1,2.4-0.7,4.8-2.3,6.7c-1.6,1.7-3.8,2.6-6.1,2.5
			c-2.3,0.1-4.6-0.9-6.3-2.6l0,0c-1.7-1.8-2.6-4.3-2.5-6.7l0-24.2H144.6z M258.1,63c-4,0-7.9-1-11.4-2.9c-3.4-1.9-6.3-4.6-8.3-8
			c-2-3.5-3.1-7.4-3-11.4c-0.1-4,1-7.9,3.1-11.3c2.1-3.4,5-6.1,8.5-8c3.7-2,7.9-3,12.1-2.9c3.3,0,6.5,0.6,9.5,1.7
			c3,1,5.7,2.6,8.1,4.7l0.4,0.3l-6.9,8.5l-0.4-0.4c-1.5-1.4-3.2-2.5-5.1-3.3c-1.8-0.8-3.7-1.2-5.7-1.2c-4.2-0.1-7.9,2.2-9.9,5.8
			c-1,1.9-1.5,3.9-1.5,6.1c0,2.1,0.5,4.2,1.5,6.1c1,1.8,2.4,3.3,4.1,4.3c1.8,1,3.8,1.6,5.9,1.6c2.3-0.1,4.7-0.7,6.8-1.8v-11h10.5
			v17.5l-0.2,0.1c-2.6,1.8-5.4,3.2-8.4,4.1c-3,1-6.2,1.5-9.4,1.6C258.3,63,258.2,63,258.1,63z M258.8,19.5c-3.9,0-7.9,1-11.3,2.8
			c-3.4,1.7-6.2,4.4-8.1,7.6c-2,3.3-3,7-2.9,10.8c-0.1,3.8,0.9,7.6,2.9,10.9c1.9,3.2,4.6,5.9,7.9,7.6c3.4,1.9,7.3,2.9,11.2,2.8
			c3.1,0,6.2-0.5,9.1-1.5c2.8-0.8,5.5-2.1,7.9-3.8v-16H267v10.6l-0.3,0.1c-2.3,1.2-4.9,2-7.5,2.1c-2.2,0-4.5-0.6-6.4-1.7
			c-1.9-1.1-3.5-2.7-4.5-4.7c-1.1-2-1.6-4.3-1.6-6.6c0-2.3,0.5-4.5,1.6-6.5c2.1-4,6.3-6.4,10.8-6.3c2.1,0,4.1,0.5,6,1.3
			c1.8,0.8,3.5,1.8,5,3.1l5.6-6.9c-2.2-1.8-4.7-3.2-7.4-4.2c-3-1.1-6-1.7-9.2-1.7C259,19.5,258.9,19.5,258.8,19.5z M121.6,62.7
			c-5.7,0-11-2.5-14.7-7l-0.2-0.3l5.6-8.3l0.4,0.5c1.3,1.4,2.8,2.5,4.4,3.4c1.2,0.7,2.6,1.1,4,1.2c1.1,0.1,2.1-0.3,2.8-1.1
			c0.7-0.9,1.1-2,1-3.2l0-18.6h-14.4V19.2H137V48c0,4.6-1.3,8.3-4,10.8l0,0c-2.7,2.6-6.4,3.9-11.1,3.9
			C121.8,62.7,121.7,62.7,121.6,62.7z M107.9,55.4c3.5,4.1,8.6,6.4,14,6.3c4.4,0,7.9-1.2,10.4-3.6c2.5-2.4,3.8-5.8,3.7-10.1V20.2
			h-24.4v8.1H126v19.6c0.1,1.4-0.4,2.8-1.3,3.9c-1,1-2.3,1.5-3.6,1.4c-1.6-0.1-3.1-0.5-4.5-1.3c-1.6-0.8-3-1.9-4.2-3.2L107.9,55.4z
			 M425.3,62.2h-10.3l-0.2-0.2l-18.2-24v24.2h-11.3V19.2h10.4l18.4,24.3l-0.1-24.3h11.2V62.2z M415.4,61.2h8.9V20.2h-9.2l0.1,26.3
			l-19.9-26.3h-8.9v41.1h9.3V35.1L415.4,61.2z M382,62.2h-12.8l-2.9-7.4h-17.5l-2.9,7.4h-12.4L352,19.2h11.9L382,62.2z M369.8,61.2
			h10.6l-17.2-41.1h-10.6L335,61.2h10.2l2.9-7.4H367L369.8,61.2z M330.1,62.2h-12V19.2h12V62.2z M319.1,61.2h10V20.2h-10V61.2z
			 M313.3,62.2h-29.8V19.2h12v32.7h17.8V62.2z M284.5,61.2h27.8v-8.4h-17.8V20.2h-10V61.2z M230,62.2h-10.3l-0.1-0.2l-18.2-24v24.2
			h-11.3V19.2h10.4l18.4,24.3l-0.1-24.3H230V62.2z M220.2,61.2h8.8V20.2h-9.2l0.1,26.3L200,20.2h-8.9v41.1h9.3V35.1L220.2,61.2z
			 M364.1,46.4H351l6.6-16.9L364.1,46.4z M352.5,45.4h10.2l-5-13.1L352.5,45.4z"/>
	</defs>
	<clipPath id="SVGID_2_">
		<use xlink:href="#SVGID_1_"  style="overflow:visible;"/>
	</clipPath>
	<g class="st1">
		<rect x="104.8" y="5.7" class="st0" width="322.4" height="70.1"/>
	</g>
</g>
</svg>
