<?xml version="1.0" encoding="utf-8"?>
<!-- Generator: Adobe Illustrator 21.1.0, SVG Export Plug-In . SVG Version: 6.00 Build 0)  -->
<svg version="1.1" id="Layer_1" xmlns="http://www.w3.org/2000/svg" xmlns:xlink="http://www.w3.org/1999/xlink" x="0px" y="0px"
	 viewBox="0 0 1330 132.3" style="enable-background:new 0 0 1330 132.3;" xml:space="preserve">
<style type="text/css">
	.st0{fill:#8480F7;}
	.st1{fill:#D7D7FF;}
	.st2{fill-rule:evenodd;clip-rule:evenodd;fill:#0093D0;}
	.st3{fill-rule:evenodd;clip-rule:evenodd;fill:#00317B;}
	.st4{fill-rule:evenodd;clip-rule:evenodd;fill:#0093CF;}
	.st5{fill-rule:evenodd;clip-rule:evenodd;fill:#00327B;}
	.st6{fill-rule:evenodd;clip-rule:evenodd;fill:#002E5F;}
	.st7{fill-rule:evenodd;clip-rule:evenodd;fill:#0084A7;}
	.st8{fill:#00317B;}
	.st9{fill:#0092CF;}
	.st10{fill:url(#SVGID_1_);}
</style>
<title>logo_ver3</title>
<g>
	<path class="st0" d="M176.6,106.2c-2.9,5.3-7.2,9.7-12.6,12.6c-5.8,3-12.2,4.6-18.7,4.7h-3.3v-16.8h3.3
		c12.2-0.6,18.4-7.3,18.4-20.2V17.6H181v69.3C181,94.3,179.5,100.8,176.6,106.2z"/>
	<path class="st0" d="M242.7,52.8v52.1h-15.1l-1.2-8.4c-1.8,3.3-4.4,6-7.7,7.9c-3.5,2-7.6,3-11.6,2.9c-4.4,0.1-8.7-1.4-11.9-4.4
		c-3.1-2.9-4.9-6.9-4.9-11.2v-39h16.7v32.8c0.2,5.1,2.6,7.6,7,7.6c3.7,0,6.6-1.8,8.8-5.4c2.2-3.6,3.3-8.2,3.3-13.8V52.8H242.7z"/>
	<path class="st0" d="M296.9,54.7c3.2,2.8,5.1,6.9,5.1,11.2v39h-16.7V72.1c-0.2-5.1-2.8-7.6-7.6-7.6c-3.8,0-6.9,1.8-9.2,5.4
		c-2.3,3.6-3.5,8.2-3.5,13.8v21.2h-16.7V52.8h15.1l1.2,8.3c1.8-3.4,4.6-6.1,7.9-8c3.7-2,7.8-3,12-2.9
		C289.1,50.1,293.5,51.7,296.9,54.7z"/>
	<path class="st0" d="M371.1,52.8v52.1c0,4.8-1.4,9.5-4.2,13.4c-2.9,4.1-6.9,7.3-11.5,9.4c-4.9,2.3-10.3,3.4-15.7,3.4
		c-3.8,0.1-7.6-0.5-11.3-1.6c-2.7-0.8-5.3-2-7.8-3.5c-2.4-1.6-4.7-3.4-7-5.3l9.8-11.5c2.1,2.1,4.5,3.8,7.1,5.3
		c2.8,1.4,5.8,2,8.9,1.9c3.8,0.1,7.5-1,10.6-3.2c2.8-2,4.4-5.3,4.3-8.8v-7.3c-1.8,2.9-4.3,5.1-7.3,6.6c-3.8,1.8-7.9,2.6-12.1,2.5
		c-4.6,0-9.1-1.2-13.1-3.6c-4-2.4-7.3-5.9-9.6-10c-4.8-8.9-4.7-19.7,0.2-28.5c2.4-4.2,5.8-7.7,9.9-10.3c3.9-2.4,8.4-3.7,13-3.7
		c3.9-0.1,7.8,0.6,11.5,1.8c2.9,1,5.5,2.6,7.6,4.8l1.3-4.1L371.1,52.8z M354.4,84.8V72.1c-1.1-2.6-3.1-4.7-5.5-6.1
		c-2.7-1.5-5.8-2.3-8.9-2.3c-3.8-0.1-7.5,1.4-10.3,4.1c-2.8,2.7-4.3,6.4-4.2,10.3c-0.1,3.9,1.4,7.7,4.2,10.4
		c2.7,2.8,6.4,4.3,10.2,4.2C346.6,92.7,351.4,90.1,354.4,84.8z"/>
	<path class="st0" d="M397.4,10.8v94.1h-16.7V10.8H397.4z"/>
	<path class="st0" d="M413.4,28.3c1.7-1.6,4-2.5,6.4-2.4c2.3,0,4.5,0.9,6.2,2.4c1.8,1.5,2.8,3.7,2.8,6c0,2.3-1,4.5-2.7,6
		c-1.7,1.5-3.9,2.4-6.2,2.4c-2.3,0-4.6-0.8-6.4-2.4c-1.8-1.4-2.8-3.7-2.8-6C410.6,32,411.6,29.7,413.4,28.3z M427.6,52.8v52.1H411
		V52.8H427.6z"/>
	<path class="st0" d="M494.9,53.2v52.1h-16.7v-6.5c-5,5.3-10.8,7.9-17.4,7.9c-7.7,0-14-2.3-18.8-6.9c-4.8-4.6-7.2-11.4-7.2-20.5
		c-0.1-5.2,1.1-10.4,3.5-15.1c2.2-4.1,5.4-7.6,9.4-10.1c3.8-2.3,8.1-3.6,12.5-3.6c4.6,0,8.3,0.7,11,2.1c2.8,1.4,5.2,3.5,7.2,5.9
		l1.1-5.4L494.9,53.2z M478.2,85.3V72.5c-0.9-2.5-2.7-4.7-5-6.1c-2.5-1.5-5.4-2.3-8.3-2.3c-3.6,0-7,1.4-9.4,4.1
		c-2.6,2.8-4,6.5-3.9,10.3c0,2.6,0.6,5.2,1.9,7.5c1.2,2.2,2.9,4,5.1,5.3c2.1,1.3,4.4,1.9,6.9,1.9C471.3,93.2,475.6,90.6,478.2,85.3z
		"/>
	<path class="st0" d="M552.2,55.1c3.2,2.8,5.1,6.9,5.1,11.2v39h-16.7V72.5c-0.2-5.1-2.8-7.6-7.6-7.6c-3.8,0-6.9,1.8-9.2,5.4
		c-2.3,3.6-3.5,8.2-3.5,13.8v21.2h-16.7V53.2h15.2l1.2,8.3c1.8-3.4,4.6-6.1,7.9-8c3.7-2,7.8-3,12-2.9
		C544.4,50.6,548.8,52.2,552.2,55.1z"/>
	<path class="st1" d="M73.3,69.2h-0.6C71,58,63.1,49.5,53.6,49.5c-10.7,0-19.4,10.7-19.4,23.9c0,7.8,3,14.6,7.6,19
		c-0.1,0.7-0.1,1.4-0.1,2.2c0,14,17.2,25.4,31.2,25.4s31.2-11.4,31.2-25.4c0-0.7,0-1.4-0.1-2.2c4.6-4.4,7.6-11.2,7.6-19
		c0-13.2-8.7-23.9-19.4-23.9C82.8,49.5,74.9,58,73.3,69.2z"/>
	<path class="st0" d="M129.2,58.8c-1,0-1.9,0.2-2.9,0.5c-3.1-24.4-25.8-44.8-53.4-44.8S22.6,34.9,19.6,59.3
		c-0.9-0.3-1.9-0.5-2.9-0.5C10.3,58.8,5,63.3,5,71.4s7.9,16.8,14.4,16.8c1.2,0,2.4-0.3,3.5-0.8c7.9,22.7,27.3,38.8,50,38.8
		s42.1-16.1,50-38.8c1.1,0.6,2.3,0.8,3.5,0.8c6.5,0,14.4-8.7,14.4-16.8S135.7,58.8,129.2,58.8z M19.3,84.8c-3.8,0-8.4-5.1-8.4-9.9
		s3-7.4,6.8-7.4c0.5,0,1,0.1,1.6,0.2c0.2,5.5,1.1,10.9,2.6,16.2C21.2,84.5,20.3,84.8,19.3,84.8z M104.1,92.1
		c0.1,0.7,0.1,1.4,0.1,2.2c0,14-17.2,25.4-31.2,25.4s-31.2-11.4-31.2-25.4c0-0.7,0-1.4,0.1-2.2c-4.6-4.4-7.6-11.2-7.6-19
		c0-13.2,8.7-23.9,19.4-23.9c9.5,0,17.4,8.5,19,19.7h0.6c1.6-11.2,9.5-19.7,19-19.7c10.7,0,19.4,10.7,19.4,23.9
		C111.7,80.9,108.7,87.7,104.1,92.1L104.1,92.1z M126.6,84.8c-0.9,0-1.8-0.3-2.6-0.8c1.5-5.3,2.4-10.7,2.6-16.2
		c0.5-0.2,1-0.2,1.6-0.2c3.8,0,6.8,2.6,6.8,7.4C135,79.6,130.4,84.8,126.6,84.8z"/>
	<circle class="st0" cx="53.8" cy="69.2" r="6.2"/>
	<circle class="st0" cx="92.1" cy="69.2" r="6.2"/>
	<path class="st0" d="M53.8,94.3c0,10.6,8.6,19.1,19.1,19.1c10.6,0,19.1-8.6,19.1-19.1"/>
</g>
<g>
	<path class="st2" d="M1243.5,52.7c0.1-0.1,0.3-0.1,0.4-0.1c2.8,0,5.5-0.2,8.2,0.1c2.7,0.3,5.5,1.8,6.2,5.1c0.1,0.4,0.2,0.8,0.3,1.2
		c0.1,0.4,0.2,0.7,0.6,0.2c1.5-1.7,3.1-3.3,5.1-4.5c2.6-1.7,5.4-2.8,8.6-3.2c2.2-0.3,4.3-0.2,6.4,0.1c5.4,0.9,9.4,3.6,12,8.5
		c0.6,1.2,0.7,1.2,1.5,0.2c2.2-2.9,5-5.2,8.3-6.7c2.2-1.1,4.5-1.7,7-2c2.2-0.3,4.4-0.2,6.6,0.1c6.4,0.9,11.1,4.2,13.4,10.5
		c0.9,2.5,1.4,5,1.6,7.6c0,0.1,0,0.3,0.1,0.3c0,13.3,0,26.7,0,40c-2.8,0-5.5,0-8.3,0c-2.2-0.1-4.3-0.6-5.9-2.4
		c-1.1-1.3-1.6-2.9-1.6-4.6c0-8.7,0-17.4,0-26.1c0-2.1-0.1-4.3-0.6-6.4c-0.6-2.5-2.1-4.4-5.2-4.5c-4.7-0.3-8.1,2-10.5,5.8
		c-1.5,2.2-2.2,4.8-2.8,7.4c-0.4,2-0.6,4-0.6,6c0,8,0,16,0,23.9c0,0.7-0.2,0.9-0.9,0.9c-4.7,0-9.4,0-14.1,0c-0.6,0-0.9-0.1-0.9-0.8
		c0-11,0-22,0-33c0-2.2-0.2-4.4-1.1-6.5c-1.3-3-3.8-4-6.8-3.8c-3.3,0.2-5.7,2-7.6,4.6c-1.7,2.3-2.7,5-3.4,7.8
		c-0.6,2.6-0.8,5.3-0.8,7.9c0,7.7,0,15.3,0,23c0,0.7-0.2,0.8-0.8,0.8c-4.7,0-9.4,0-14.1,0c-0.6,0-0.9-0.1-0.9-0.8
		c0-7.1,0-14.1,0-21.2c0-0.2-0.1-0.5,0.1-0.7c0.1,0.1,0.1,0.2,0.1,0.4c0,7.2,0,14.5,0,21.7c0,0.1,0.2,0,0.1,0c0,0,0,0,0,0
		c0-0.2,0-0.4,0-0.7c0-18.4,0-36.7,0-55.1C1243.5,53.3,1243.4,53,1243.5,52.7z"/>
	<path class="st3" d="M959.2,27.8c1.1,0.4,2.3,0.6,3.4,1.3c3.4,2,5.3,6,4.6,9.9c-0.7,3.9-3.7,7-7.5,7.8c-5.3,1.1-10.3-2.3-11.4-7.7
		c-1-5.2,2.5-10.1,7.6-11.1c0.1,0,0.3,0,0.4-0.1C957.3,27.8,958.3,27.8,959.2,27.8z"/>
	<path class="st3" d="M945.5,110c-5.2-0.1-10.3,0.2-15.3-0.1c-2.8-0.2-5-1.6-6.4-3.9c-1.6-2.6-2.9-5.4-4.4-8.1
		c-1.8-3.3-3.6-6.7-5.3-10.1c-0.5-1-1.2-1.4-2.3-1.5c-0.7-0.1-1.5-0.2-2.2-0.1c-1.2,0-1-0.2-1,1c0,6.8,0,13.6,0,20.4
		c0,0.6,0,1.3,0,1.9c0,0.5-0.1,0.7-0.6,0.7c-5.1,0-10.3,0-15.4,0c-0.5,0-0.6-0.1-0.6-0.6c0-0.7,0-1.5,0-2.2c0-25.3,0-50.6,0-75.9
		c0-1.1-0.1-1,1-1c3,0,6-0.1,9,0.1c3.5,0.3,5.5,1.8,6.3,4.8c0.3,1,0.3,2,0.3,3.1c0,10.8,0,21.6,0,32.4c0,1,0,1,1.1,1
		c0.9,0,1.7,0,2.6-0.1c1.4-0.1,2.4-0.7,3.2-1.9c3.6-5.6,7.2-11.2,10.8-16.8c0.2-0.4,0.5-0.5,1-0.5c5.9,0,11.7,0,17.6,0
		c0.1,0,0.2,0,0.5,0c-0.5,0.7-0.9,1.3-1.3,1.9c-4.7,7-9.4,14-14.1,21c-0.7,1.1-1.6,2.2-2.5,3.1c-0.2,0.2-0.4,0.3-0.1,0.6
		c2.2,2.1,3.3,4.9,4.6,7.5c3.7,7.3,8,14.1,12.2,21.1C944.5,108.4,945,109.1,945.5,110z"/>
	<path class="st3" d="M992.2,58.9c1-0.9,1.8-1.8,2.8-2.6c4-3.3,8.5-4.9,13.6-5.1c3.5-0.2,7,0.2,10.3,1.4c5.3,2,8.6,5.8,10.3,11.2
		c0.9,2.9,1.3,6,1.3,9c0,5.4,0,10.7,0,16.1c0,6.7,0,13.5,0.1,20.2c0,1.1,0.1,1-1,0.9c-2.8,0-5.6,0.1-8.4-0.1
		c-4.4-0.3-6.9-2.9-7.1-7.3c-0.2-4.2-0.1-8.5-0.1-12.7c0-4.8,0-9.6,0-14.3c0-1.4-0.1-2.9-0.5-4.3c-0.8-3.1-2.8-4.7-6-4.8
		c-6.4-0.2-12.2,3.5-14.1,11.1c-0.5,1.8-0.7,3.7-0.7,5.6c0,8.6,0,17.2,0,25.8c0,0.7-0.1,0.9-0.9,0.9c-4.9,0-9.9,0-14.8,0
		c-0.6,0-0.8-0.2-0.8-0.8c0-16.8,0-33.5,0-50.3c0-2,0-4,0-6c0-0.3-0.1-0.6,0.4-0.6c2.9,0.1,5.9-0.2,8.8,0.1c3.2,0.3,6,2,6.8,5.9
		C992,58.6,992.1,58.7,992.2,58.9z"/>
	<path class="st4" d="M1172.9,67.7c0,1.4,0,2.7,0,4.1c0,0.5-0.1,0.7-0.6,0.7c-2.6,0-5.3,0.1-7.9,0c-2.8-0.1-5-1.5-5.8-4.6
		c-0.3-1.2-1.4-1.7-2.4-2.1c-5.5-1.9-12.2-0.2-15.9,4.3c-1.6,1.9-2.6,4.2-3.2,6.6c-0.6,2.7-0.7,5.4-0.2,8.1c1,4.8,3.6,8.5,8.1,10.6
		c3.4,1.6,7,2.1,10.6,1.5c3.6-0.6,6.9-2.2,9.8-4.4c1.3-0.9,2.5-1.9,3.5-3.1c0.3-0.3,0.4-0.4,0.7,0c2.1,3.5,4.2,7,6.3,10.5
		c0.2,0.4,0.1,0.7-0.2,1.1c-2,2.2-4.3,4-6.8,5.6c-2.8,1.7-5.7,3-8.9,3.8c-4.3,1.1-8.7,1.3-13.2,0.7c-4.7-0.6-9.1-2.1-13.1-4.7
		c-5.2-3.4-9-8-11.2-13.9c-1.4-3.9-2.1-7.8-1.9-11.9c0.2-8,3-14.9,8.7-20.5c3.3-3.3,7.2-5.5,11.7-7c3.2-1,6.6-1.6,9.9-1.7
		c4.6-0.1,9.1,0.6,13.3,2.4c3.1,1.3,5.9,3.2,7.6,6.3c0.8,1.5,1.2,3,1.1,4.7C1172.9,65.7,1172.9,66.7,1172.9,67.7
		C1172.9,67.7,1172.9,67.7,1172.9,67.7z"/>
	<path class="st5" d="M950.2,81.2c0-9.4,0-18.7,0-28.1c0-0.3-0.1-0.7,0.5-0.7c3,0.1,6-0.1,9,0.1c4,0.3,6.4,2.8,6.8,6.8
		c0.1,0.7,0.1,1.5,0.1,2.2c0,15.9,0,31.8,0,47.7c0,0.7-0.1,0.8-0.8,0.8c-4.9,0-9.8,0-14.8,0c-0.7,0-0.8-0.2-0.8-0.8
		C950.3,99.8,950.3,90.5,950.2,81.2C950.3,81.2,950.2,81.2,950.2,81.2z"/>
	<path class="st2" d="M1108.4,110.6c-5.1,0.2-9.6-4.2-9.6-9.6c0-5.4,4.5-9.6,9.6-9.6c5.3,0,9.7,4.5,9.7,9.6
		C1118,106.2,1113.7,110.8,1108.4,110.6z"/>
	<path class="st6" d="M1092.3,107.1c-0.2-0.4-0.1-0.9-0.1-1.3c0-17.4,0-34.9,0-52.3c0-1,0-1-1.1-1c-2.4,0-4.8,0-7.2,0
		c0.2-0.2,0.5-0.1,0.7-0.1c2.3,0,4.7,0,7,0c0.5,0,0.7,0.1,0.7,0.7c0,17.7,0,35.4,0,53.2C1092.4,106.4,1092.3,106.8,1092.3,107.1z"/>
	<path class="st7" d="M1243.5,52.7c0,19,0,38,0,57.2c-0.2-0.4-0.1-0.7-0.1-0.9c0-6.9,0-13.8,0-20.7c0-0.3,0-0.7,0-1
		c0-6.8,0-13.6,0-20.5c0-4.3,0-8.7,0-13C1243.3,53.4,1243.2,53,1243.5,52.7z"/>
	<g>
		<path class="st8" d="M747,68.7c-0.6-0.3-1.1-0.6-1.7-1c0.4-0.4,0.7-0.7,1.1-0.9c1.3-1.1,2.5-2.2,3.5-3.5c3-4,4.2-8.6,3.9-13.6
			c-0.4-7.1-3.7-12.5-9.9-16c-4.4-2.5-9.2-3.3-14.1-3.4c-6.5-0.1-13,0-19.6,0c-2.6,0-4.8,1.1-6.5,3.2c-0.9,1.1-1.4,2.5-1.8,3.9
			c0,24.1,0,48.2,0,72.3c0.3,0,0.6,0,0.8,0c9,0,18.1,0,27.1,0c3.9,0,7.7-0.5,11.5-1.8c5.5-1.9,9.9-5,12.8-10.1
			c2.8-5.1,3.5-10.5,2.3-16.2C755.2,75.9,752.2,71.5,747,68.7z M717.3,54.9C717.3,54.9,717.3,54.9,717.3,54.9c0-2.2,0-4.3,0-6.5
			c0.1-3.2,1.6-4.8,4.7-5c3-0.2,6.1-0.3,9.1,0.1c3.8,0.6,6.2,2.9,7,6.7c0.6,3.3,0.2,6.4-1.9,9.1c-1.7,2.2-4.1,3-6.7,3
			c-3.9,0-7.7,0-11.6,0c-0.5,0-0.7-0.2-0.7-0.7C717.3,59.5,717.3,57.2,717.3,54.9z M739,92.6c-1.9,2.5-4.6,3.5-7.6,3.6
			c-4.5,0.1-9,0-13.6,0c-0.5,0-0.6-0.2-0.6-0.6c0-2.7,0-5.5,0-8.2c0,0,0,0,0,0c0-2.6-0.1-5.2,0-7.8c0.1-3.2,1.8-4.9,5.1-4.9
			c2.9,0,5.7-0.1,8.6,0c3.7,0.1,6.8,1.4,8.8,4.6C742,83.1,741.7,89.2,739,92.6z"/>
		<path class="st8" d="M1091.6,52.3c-1.8,0-3.6,0-5.5,0c-0.7,0-1.5-0.1-2.2,0.1c-3,0-5.1,1.5-6.3,4.2c-1.1-1-2.3-1.9-3.6-2.7
			c-5-2.8-10.4-3.5-16-2.7c-9.7,1.3-16.3,6.8-19.7,15.8c-2.8,7.4-2.9,15.1-0.8,22.7c1.4,5.2,4.1,9.7,8.3,13.2
			c5.2,4.4,11.2,6,17.9,5.7c4.4-0.2,8.4-1.4,11.9-4.3c0.1-0.1,0.2-0.2,0.4-0.1c0.1,1,0,2-0.1,3.1c-0.4,4-2.3,7-6,8.7
			c-4,1.8-8.3,1.8-12.5,1.1c-2.4-0.4-4.6-1.1-6.9-1.8c-2.8-0.8-4.7,0.1-6,2.7c-0.1,0.2-0.2,0.5-0.4,0.8c-1,2.5-1.9,4.9-2.9,7.4
			c-0.2,0.5-0.1,0.7,0.4,1c4.2,2.3,8.7,3.7,13.5,4.5c1.4,0.2,2.7,0.4,4.1,0.6c2.1,0,4.1,0,6.2,0c0.1-0.2,0.3-0.1,0.4-0.1
			c2-0.1,4-0.5,5.9-1c5.1-1.3,9.8-3.5,13.6-7.2c4.7-4.6,6.9-10.4,7.2-16.9c0-0.3,0-0.6,0-0.9c0-17.6,0-35.1,0-52.7
			c0-0.2,0-0.3,0-0.5C1092.4,52.5,1092.2,52.3,1091.6,52.3z M1075.1,87.6c-1.6,4.3-5,6.7-9.6,6.8c-5.7,0.1-9.7-2.7-11.5-8.1
			c-1.6-4.8-1.6-9.5,0.2-14.2c1.7-4.2,4.9-6.3,9.4-6.5c2.4-0.1,4.7,0.1,6.8,1.2c3,1.5,4.4,4.1,5.2,7.2c0.5,1.9,0.6,3.8,0.6,5.9
			C1076.2,82.4,1076,85.1,1075.1,87.6z"/>
		<path class="st9" d="M1236.8,73.3c-0.5-2.4-1.4-4.7-2.6-6.9c-2.6-4.8-6.2-8.6-11-11.3c-3.7-2.1-7.8-3.3-12-3.8
			c-2.9-0.3-5.8-0.3-8.7,0.1c-3.1,0.4-6.1,1.3-8.9,2.7c-4.8,2.3-8.7,5.7-11.5,10.2c-3.2,5.1-4.7,10.7-4.6,16.7c0,1.5,0.1,3,0.3,4.5
			c0.4,3.3,1.4,6.4,2.8,9.4c2.1,4.4,5.3,8,9.3,10.8c4.4,3,9.3,4.6,14.5,5.1c5.2,0.5,10.3-0.2,15.2-2.1c4.7-1.9,8.7-4.8,11.9-8.8
			c2.2-2.8,3.9-6,4.9-9.5c0.7-2.3,1-4.5,1.3-6.9C1237.8,80.1,1237.5,76.7,1236.8,73.3z M1221.4,80.6c0,4.3-0.8,7.8-3,10.8
			c-1.9,2.6-4.3,4.2-7.4,5c-3.1,0.7-6.2,0.6-9.2-0.7c-3-1.3-5.1-3.6-6.5-6.5c-1.3-2.8-1.9-5.7-1.8-8.7c0.2-4.4,1.4-8.5,4.7-11.7
			c3-2.8,6.6-3.9,10.7-3.4c5.8,0.6,9.5,4,11.5,9.3C1221.2,76.7,1221.5,78.9,1221.4,80.6z"/>
		<path class="st8" d="M870.2,54.5c-7.9-3.9-16.1-4.3-24.4-1.6c-8.5,2.7-14.5,8.3-17.8,16.7c-2.3,5.8-2.7,11.9-1.5,18
			c1.4,7.1,4.9,12.9,10.7,17.3c5.5,4.2,11.9,6,18.7,6c2.6,0,5.2-0.2,7.7-0.9c8.8-2.1,15.4-7.1,19.4-15.2c3.2-6.6,3.9-13.6,2.3-20.7
			C883.5,65.2,878.5,58.5,870.2,54.5z M870,81.2c0,4-0.9,7.7-3.4,10.8c-2.9,3.6-6.8,5.1-11.3,4.9c-6.4-0.3-11.4-4.8-12.7-11.6
			c-1-4.8-0.5-9.5,2.1-13.8c2.9-4.7,7.8-6.9,13.3-6.1c6.1,0.8,9.7,4.6,11.4,10.4C869.9,77.5,870.1,79.3,870,81.2z"/>
		<path class="st8" d="M806,54.5c-7.1-3.5-14.6-4.2-22.2-2.3c-9.1,2.2-15.7,7.5-19.6,16.1c-2.6,5.7-3.1,11.7-2.2,17.8
			c1,6.8,3.9,12.6,9,17.2c5.8,5.3,12.9,7.5,20.7,7.6c3,0,6-0.3,8.9-1.2c8.4-2.4,14.7-7.4,18.4-15.4c3-6.3,3.5-13,2.2-19.7
			C819.3,65.5,814.3,58.7,806,54.5z M803.5,90.1c-2.2,4.1-5.8,6.3-10.5,6.8c-7.6,0.7-13.1-4.1-14.7-11.1c-0.1-0.5-0.2-1.1-0.3-1.6
			c-0.2-1-0.2-2-0.2-3c0-4.1,0.9-7.8,3.6-11c3.2-3.8,7.4-5.3,12.2-4.6c5.5,0.7,9.1,3.9,10.9,9C806.4,79.7,806.2,85,803.5,90.1z"/>
	</g>
</g>
<linearGradient id="SVGID_1_" gradientUnits="userSpaceOnUse" x1="439.2183" y1="505.5894" x2="439.2183" y2="459.071" gradientTransform="matrix(6.123234e-17 -1 1 6.123234e-17 149.2071 516.163)">
	<stop  offset="0" style="stop-color:#00317B"/>
	<stop  offset="1" style="stop-color:#8480F7"/>
</linearGradient>
<path class="st10" d="M612.9,53.7l-4.7,4.7l18.6,18.6l-18.6,18.6l4.7,4.7l18.6-18.6l18.6,18.6l4.7-4.7l-18.6-18.6l18.6-18.6
	l-4.7-4.7l-18.6,18.6L612.9,53.7z"/>
</svg>
