<svg id="Layer_1" data-name="Layer 1" xmlns="http://www.w3.org/2000/svg" xmlns:xlink="http://www.w3.org/1999/xlink" width="427.24" height="81.53" viewBox="0 0 427.24 81.53"><defs><style>.cls-1{fill:none;}.cls-2{fill:#7c4dff;}.cls-3{clip-path:url(#clip-path);}.cls-4{fill:url(#linear-gradient);}</style><clipPath id="clip-path" transform="translate(0.01 0.01)"><path class="cls-1" d="M132.62,58.48q-3.93,3.72-10.71,3.72a18.48,18.48,0,0,1-14.64-6.78l5-7.5a18.32,18.32,0,0,0,4.56,3.51,9.29,9.29,0,0,0,4.26,1.23,4.17,4.17,0,0,0,3.21-1.26,5.1,5.1,0,0,0,1.17-3.6V28.72h-14.4V19.66h25.44V48Q136.55,54.76,132.62,58.48Zm24.81-7.74a7.94,7.94,0,0,0,5.94,2.4,7.44,7.44,0,0,0,5.73-2.37,9,9,0,0,0,2.19-6.39V19.66h11V44.38A19.21,19.21,0,0,1,180,54a15.62,15.62,0,0,1-6.6,6.33,21.59,21.59,0,0,1-10,2.22,22,22,0,0,1-10.11-2.22A15.91,15.91,0,0,1,146.48,54a18.81,18.81,0,0,1-2.37-9.57V19.66h11V44.38A8.72,8.72,0,0,0,157.43,50.74Zm61.92-31.08h10.2V61.72H220L200.87,36.58V61.72H190.61V19.66h9.66L219.41,45Zm47.1,20.58h9.48V57a28,28,0,0,1-8.25,4,31.09,31.09,0,0,1-9.27,1.53,23.25,23.25,0,0,1-11.49-2.85,21.06,21.06,0,0,1-8.07-7.83,21.53,21.53,0,0,1-2.94-11.16,20.78,20.78,0,0,1,3-11.07,21.26,21.26,0,0,1,8.34-7.77A24.88,24.88,0,0,1,259.13,19a27.1,27.1,0,0,1,9.36,1.71,24.33,24.33,0,0,1,7.92,4.59L270.17,33a17.53,17.53,0,0,0-5.25-3.42,14.91,14.91,0,0,0-5.85-1.26,11.55,11.55,0,0,0-10.32,6.06,12.79,12.79,0,0,0-1.56,6.3A13.07,13.07,0,0,0,248.75,47a11.45,11.45,0,0,0,4.32,4.47,11.87,11.87,0,0,0,6.12,1.62,16.6,16.6,0,0,0,7.26-2ZM284,19.66h11v32.7h17.82v9.36H284Zm34.62,0h11V61.72h-11ZM369.5,61.72l-2.88-7.44H348.47l-2.94,7.44H334.25l18.06-42.06h11.28l17.64,42.06ZM351.77,45.88h11.64l-5.76-15Zm62.82-26.22h10.2V61.72h-9.6L396.11,36.58V61.72H385.85V19.66h9.66L414.65,45ZM162.92,63.05a22.59,22.59,0,0,1-9.85-2.28,16.35,16.35,0,0,1-7-6.53,19.34,19.34,0,0,1-2.44-9.83V19.16h12V44.38a8.29,8.29,0,0,0,2.18,6,7.43,7.43,0,0,0,5.56,2.24,6.92,6.92,0,0,0,5.38-2.21,8.45,8.45,0,0,0,2.06-6V19.16h12V44.38a19.73,19.73,0,0,1-2.35,9.86,16.07,16.07,0,0,1-6.82,6.54A22.27,22.27,0,0,1,163.39,63ZM144.61,20.16V44.43a18.34,18.34,0,0,0,2.31,9.33,15.35,15.35,0,0,0,6.59,6.12A21.65,21.65,0,0,0,163.39,62a21.36,21.36,0,0,0,9.79-2.17,15.06,15.06,0,0,0,6.38-6.13,18.73,18.73,0,0,0,2.23-9.36V20.16h-10V44.38a9.43,9.43,0,0,1-2.31,6.72,8,8,0,0,1-6.13,2.54,8.48,8.48,0,0,1-6.28-2.55h0a9.27,9.27,0,0,1-2.45-6.72V20.16ZM258.08,63a23.8,23.8,0,0,1-11.4-2.91,21.56,21.56,0,0,1-8.26-8,22,22,0,0,1-3-11.42,21.24,21.24,0,0,1,3.07-11.32,21.76,21.76,0,0,1,8.54-8,25.49,25.49,0,0,1,12.12-2.91,27.52,27.52,0,0,1,9.53,1.74,24.71,24.71,0,0,1,8.07,4.68l.37.32-6.88,8.5-.39-.37a17,17,0,0,0-5.1-3.32,14.35,14.35,0,0,0-5.66-1.22,11,11,0,0,0-9.88,5.8,12.32,12.32,0,0,0-1.5,6.06,12.61,12.61,0,0,0,1.5,6.09A10.93,10.93,0,0,0,253.32,51a11.15,11.15,0,0,0,5.86,1.55,16.19,16.19,0,0,0,6.77-1.8v-11h10.48V57.26l-.21.15a28.45,28.45,0,0,1-8.4,4.07A31.54,31.54,0,0,1,258.42,63Zm.74-43.53a24.46,24.46,0,0,0-11.34,2.79,20.75,20.75,0,0,0-8.15,7.59,20.25,20.25,0,0,0-2.93,10.8,21.05,21.05,0,0,0,2.87,10.92,20.57,20.57,0,0,0,7.88,7.64A22.63,22.63,0,0,0,258.4,62a30.55,30.55,0,0,0,9.12-1.51,27.49,27.49,0,0,0,7.91-3.78v-16H267V51.39l-.26.14a17.2,17.2,0,0,1-7.48,2.06,12.69,12.69,0,0,1-6.39-1.69,11.93,11.93,0,0,1-4.51-4.67,13.6,13.6,0,0,1-1.62-6.56,13.32,13.32,0,0,1,1.62-6.53,12.06,12.06,0,0,1,10.77-6.32,15.32,15.32,0,0,1,6,1.3,17.93,17.93,0,0,1,5,3.15l5.6-6.91a23.71,23.71,0,0,0-7.39-4.18,26.54,26.54,0,0,0-9.2-1.68ZM121.56,62.7a18.86,18.86,0,0,1-14.68-7l-.23-.29,5.55-8.33.43.46A17.76,17.76,0,0,0,117.07,51a8.83,8.83,0,0,0,4,1.17,3.65,3.65,0,0,0,2.83-1.11,4.57,4.57,0,0,0,1-3.22V29.22h-14.4V19.16H137V48c0,4.63-1.33,8.28-4,10.84h0c-2.7,2.56-6.42,3.86-11.05,3.86Zm-13.67-7.32a17.83,17.83,0,0,0,14,6.31c4.38,0,7.86-1.21,10.38-3.58S136,52.34,136,48V20.16H111.57v8.06H126V47.8a5.56,5.56,0,0,1-1.29,3.92,4.64,4.64,0,0,1-3.62,1.44,9.83,9.83,0,0,1-4.48-1.3,18.74,18.74,0,0,1-4.24-3.15Zm317.4,6.83H414.94l-.15-.2-18.18-24V62.22H385.35V19.16h10.41L414.15,43.5l-.06-24.34h11.2Zm-9.85-1h8.85V20.16h-9.2l.06,26.34L395.26,20.16h-8.91V61.22h9.26V35.09Zm-33.46,1H369.16l-2.88-7.44H348.81l-2.94,7.44H333.49L352,19.16h11.94Zm-12.14-1h10.64L363.26,20.16H352.64L335,61.22h10.18l2.94-7.44H367Zm-39.72,1h-12V19.16h12Zm-11-1h10V20.16h-10Zm-5.8,1H283.5V19.16h12v32.7h17.82Zm-28.82-1h27.82V52.86H294.5V20.16h-10Zm-54.45,1h-10.3l-.15-.2-18.23-24V62.22H190.11V19.16h10.41L218.91,43.5l-.06-24.34H230Zm-9.8-1H229V20.16h-9.2l.06,26.34L200,20.16h-8.91V61.22h9.26V35.1ZM364.14,46.38H351l6.62-16.88Zm-11.63-1h10.18l-5-13.12Z"/></clipPath><linearGradient id="linear-gradient" x1="110.6" y1="238.79" x2="427.22" y2="299.82" gradientTransform="translate(0.01 -227.99)" gradientUnits="userSpaceOnUse"><stop offset="0" stop-color="#7c4dff"/><stop offset="1" stop-color="#4da3fa"/></linearGradient></defs><title>logo_ver4_bold</title><circle class="cls-2" cx="40.41" cy="29.51" r="5.9"/><circle class="cls-2" cx="59.61" cy="29.51" r="5.9"/><path class="cls-2" d="M86.3,17.2a14.28,14.28,0,0,0-2.9.3,40.62,40.62,0,0,0-66.8,0A13.65,13.65,0,0,0,9.4,43.8a40.71,40.71,0,0,0,81.2,0,13.64,13.64,0,0,0-4.3-26.6ZM10,37.3a6,6,0,1,1,6-6,5.89,5.89,0,0,1-5.78,6Zm40,38c-14.4,0-26.5-7.7-29.8-18.2C27,60.6,37.9,62.8,50,62.8s23-2.2,29.8-5.7C76.5,67.5,64.4,75.3,50,75.3ZM80.7,51.9c-4.9,3.6-16,6.8-30.7,6.8s-25.8-3.2-30.7-6.8v-.4c0-5.9,2.7-11.2,7.3-15.4a14,14,0,0,1-2.7-8.3A14.3,14.3,0,0,1,38.2,13.5h0A14.44,14.44,0,0,1,50,19.7a14.31,14.31,0,0,1,26.1,8.1,14,14,0,0,1-2.7,8.3c4.5,4.1,7.3,9.5,7.3,15.4ZM90,37.3a6,6,0,1,1,6-6A6,6,0,0,1,90,37.3Z" transform="translate(0.01 0.01)"/><g class="cls-3"><rect class="cls-4" x="104.84" y="5.71" width="322.4" height="70.1"/></g></svg>