<?xml version="1.0" encoding="utf-8"?>
<!-- Generator: Adobe Illustrator 21.1.0, SVG Export Plug-In . SVG Version: 6.00 Build 0)  -->
<svg version="1.1" id="Layer_1" xmlns="http://www.w3.org/2000/svg" xmlns:xlink="http://www.w3.org/1999/xlink" x="0px" y="0px"
	 viewBox="0 0 626.9 136.6" style="enable-background:new 0 0 626.9 136.6;" xml:space="preserve">
<style type="text/css">
	.st0{fill:#8480F7;}
	.st1{fill:#D7D7FF;}
</style>
<title>logo_ver3</title>
<path class="st0" d="M194.8,108.3c-3.3,6.1-8.2,11-14.3,14.3c-6.6,3.4-13.8,5.3-21.2,5.4h-3.8v-19.1h3.8
	c13.9-0.7,20.9-8.3,20.9-22.9V7.7h19.8v78.6C199.8,94.8,198.1,102.2,194.8,108.3z"/>
<path class="st0" d="M269.8,47.7v59.2h-17.2l-1.4-9.5c-2,3.7-5.1,6.9-8.7,9c-4,2.3-8.6,3.4-13.2,3.3c-5,0.2-9.9-1.6-13.5-5
	c-3.6-3.3-5.6-7.9-5.6-12.7V47.7h18.9v37.2c0.3,5.8,2.9,8.7,8,8.7c4.1,0,7.5-2,9.9-6.1s3.7-9.3,3.7-15.7V47.7H269.8z"/>
<path class="st0" d="M331.4,49.8c3.7,3.2,5.8,7.8,5.8,12.7v44.3h-19V69.6c-0.3-5.8-3.2-8.7-8.7-8.7c-4.3,0-7.8,2-10.4,6.1
	s-3.9,9.3-3.9,15.7v24.1h-18.9V47.7h17.2l1.4,9.5c2.1-3.8,5.2-6.9,9-9.1c4.2-2.2,8.9-3.4,13.6-3.2C322.5,44.6,327.6,46.4,331.4,49.8
	z"/>
<path class="st0" d="M415.6,47.7v59.2c0,5.5-1.6,10.8-4.8,15.2c-3.3,4.6-7.8,8.3-13,10.7c-5.6,2.6-11.7,3.9-17.8,3.9
	c-4.3,0.1-8.6-0.5-12.8-1.8c-3.1-0.9-6.1-2.2-8.8-3.9c-2.7-1.9-5.4-3.9-7.9-6l11.1-13c2.4,2.3,5.1,4.3,8,6c3.1,1.5,6.6,2.3,10.1,2.2
	c4.3,0.1,8.5-1.1,12-3.6c3.2-2.3,5-6.1,4.9-10v-8.3c-2,3.2-4.9,5.8-8.3,7.4c-4.3,2-9,3-13.7,2.8c-5.2,0-10.4-1.4-14.8-4.1
	c-4.6-2.8-8.3-6.7-10.9-11.4c-5.5-10.1-5.4-22.4,0.2-32.4c2.7-4.8,6.5-8.8,11.2-11.6c4.4-2.7,9.6-4.2,14.8-4.2
	c4.4-0.1,8.8,0.6,13,2.1c3.3,1.1,6.3,3,8.7,5.5l1.5-4.6L415.6,47.7z M396.6,84.1V69.6c-1.3-2.9-3.5-5.3-6.3-6.9
	c-3.1-1.7-6.5-2.6-10.1-2.6c-4.3-0.1-8.5,1.6-11.6,4.6c-3.1,3-4.9,7.3-4.7,11.6c-0.1,4.4,1.6,8.7,4.7,11.8c3,3.2,7.3,4.9,11.6,4.8
	C387.8,93,393.3,90,396.6,84.1z"/>
<path class="st0" d="M445.5,0v106.8h-19V0H445.5z"/>
<path class="st0" d="M463.6,19.8c2-1.8,4.6-2.8,7.2-2.8c2.6,0,5.1,1,7,2.8c2,1.7,3.2,4.2,3.1,6.8c0,2.6-1.1,5.1-3.1,6.8
	c-1.9,1.7-4.4,2.7-7,2.7c-2.7,0-5.2-0.9-7.2-2.7c-2-1.6-3.2-4.1-3.2-6.8C460.4,24,461.6,21.5,463.6,19.8z M479.8,47.7v59.2h-18.9
	V47.7H479.8z"/>
<path class="st0" d="M556.1,48.2v59.2h-19V100c-5.7,6-12.3,9-19.8,9c-8.8,0-15.9-2.6-21.3-7.8c-5.5-5.2-8.2-13-8.2-23.3
	c-0.1-6,1.2-11.8,4-17.1c2.5-4.7,6.1-8.6,10.6-11.4c4.3-2.7,9.2-4.1,14.2-4.1c5.2,0,9.4,0.8,12.5,2.4c3.1,1.6,5.9,3.9,8.1,6.7
	l1.2-6.1L556.1,48.2z M537.2,84.6V70.1c-1.1-2.9-3-5.3-5.6-6.9c-2.8-1.8-6.1-2.7-9.4-2.6c-4,0-7.9,1.6-10.6,4.6
	c-3,3.1-4.5,7.3-4.4,11.6c0,3,0.7,5.9,2.2,8.5c1.4,2.5,3.3,4.5,5.8,6c2.3,1.4,5,2.2,7.8,2.2C529.4,93.5,534.2,90.5,537.2,84.6z"/>
<path class="st0" d="M621.2,50.3c3.7,3.2,5.8,7.8,5.8,12.7v44.3H608V70.1c-0.3-5.8-3.2-8.7-8.7-8.7c-4.3,0-7.8,2-10.4,6.1
	s-3.9,9.3-3.9,15.7v24.1h-19V48.2h17.2l1.3,9.5c2.1-3.8,5.2-6.9,9-9.1c4.2-2.2,8.9-3.4,13.6-3.2C612.3,45.2,617.3,47,621.2,50.3z"/>
<path class="st1" d="M77.5,66.3h-0.7C74.9,53.6,66,44,55.2,44c-12.1,0-22,12.2-22,27.2c0,8.8,3.4,16.6,8.7,21.6
	c-0.1,0.8-0.1,1.6-0.1,2.4c0,15.9,19.5,28.8,35.5,28.8s35.5-12.9,35.5-28.8c0-0.8-0.1-1.6-0.1-2.4c5.2-5,8.7-12.8,8.7-21.6
	c0-15-9.8-27.2-22-27.2C88.3,44,79.4,53.6,77.5,66.3z"/>
<path class="st0" d="M141,54.5c-1.1,0-2.2,0.2-3.2,0.5c-3.5-27.7-29.3-50.8-60.6-50.8S20,27.4,16.6,55.1c-1.1-0.3-2.1-0.5-3.2-0.5
	C6,54.5,0,59.6,0,68.8s9,19.1,16.4,19.1c1.4,0,2.8-0.3,4-0.9c8.9,25.8,31,44,56.8,44s47.8-18.2,56.8-44c1.2,0.6,2.6,1,4,0.9
	c7.4,0,16.4-9.9,16.4-19.1S148.4,54.5,141,54.5z M16.2,84c-4.3,0-9.5-5.8-9.5-11.2s3.5-8.3,7.7-8.3c0.6,0,1.2,0.1,1.8,0.3
	c0.3,6.2,1.3,12.4,3,18.4C18.4,83.7,17.3,84,16.2,84z M112.5,92.3c0.1,0.8,0.1,1.6,0.1,2.4c0,15.9-19.5,28.8-35.5,28.8
	s-35.4-12.9-35.4-28.9c0-0.8,0.1-1.6,0.1-2.4c-5.2-5-8.7-12.8-8.7-21.6c0-15,9.8-27.2,22-27.2c10.8,0,19.8,9.6,21.6,22.3h0.7
	c1.8-12.7,10.8-22.3,21.6-22.3c12.1,0,22,12.2,22,27.2C121.1,79.6,117.7,87.4,112.5,92.3L112.5,92.3z M138.1,84
	c-1.1,0-2.1-0.3-2.9-0.9c1.7-6,2.7-12.1,2.9-18.4c0.6-0.2,1.2-0.3,1.8-0.3c4.3,0,7.7,3,7.7,8.3S142.3,84,138.1,84z"/>
<circle class="st0" cx="55.4" cy="66.3" r="7"/>
<circle class="st0" cx="98.9" cy="66.3" r="7"/>
<path class="st0" d="M55.5,94.8c0,12,9.7,21.7,21.7,21.7c12,0,21.7-9.7,21.7-21.7"/>
</svg>
