<?xml version="1.0" encoding="utf-8"?>
<!-- Generator: Adobe Illustrator 21.1.0, SVG Export Plug-In . SVG Version: 6.00 Build 0)  -->
<svg version="1.1" id="Layer_1" xmlns="http://www.w3.org/2000/svg" xmlns:xlink="http://www.w3.org/1999/xlink" x="0px" y="0px"
	 viewBox="0 0 254.3 63" style="enable-background:new 0 0 254.3 63;" xml:space="preserve">
<style type="text/css">
	.st0{fill-rule:evenodd;clip-rule:evenodd;fill:#917BFF;}
	.st1{fill-rule:evenodd;clip-rule:evenodd;fill:#4509B7;}
	.st2{fill:#D7D7FF;}
	.st3{fill:#917BFF;}
</style>
<path class="st0" d="M62.3,45l5.3-5.3c0.1,0.2,0.2,0.4,0.3,0.5c0.3,0.5,0.8,0.9,1.4,1.3c0.6,0.3,1.4,0.5,2.3,0.5
	c1.1,0,1.9-0.2,2.5-0.6c0.6-0.4,1-0.9,1.3-1.5c0.3-0.6,0.4-1.2,0.5-1.9c0.1-0.7,0.1-1.4,0.1-2V11.4c0-1.2,1-2.1,2.1-2.1h5.9v27.1
	c0,1.2-0.1,2.5-0.4,3.9c-0.2,1.4-0.8,2.8-1.6,4c-0.9,1.2-2.1,2.3-3.7,3.1c-1.6,0.8-3.8,1.3-6.5,1.3c-1.5,0-3-0.2-4.5-0.6
	c-1.4-0.4-2.7-1.1-3.8-2C63,45.8,62.7,45.4,62.3,45z"/>
<path class="st0" d="M105.5,45.7c-1.1,1.1-2.4,1.8-3.7,2.3c-2.1,0.7-3,0.5-4.5,0.5c-1.9,0-3.5-0.3-4.8-0.8c-1.2-0.5-2.2-1.2-2.9-2.2
	c-0.7-0.9-1.2-2.1-1.5-3.4c-0.3-1.3-0.4-2.8-0.4-4.5V21.3h5.1c1.2,0,2.1,1,2.1,2.1v12.8c0,2.2,0.3,3.8,1,4.9
	c0.7,1.1,1.9,1.6,3.6,1.6c2,0,3.4-0.6,4.3-1.8c0.9-1.2,1.3-3.1,1.3-5.8V21.3h7.3v27.2h-4.2C106.8,48.4,105.5,47.2,105.5,45.7z"/>
<path class="st0" d="M123.1,24c1.1-1.1,2.4-1.8,3.7-2.3c2.1-0.7,3-0.5,4.5-0.5c1.9,0,3.5,0.3,4.8,0.8c1.2,0.5,2.2,1.2,2.9,2.2
	c0.7,0.9,1.2,2.1,1.5,3.4c0.3,1.3,0.4,2.8,0.4,4.5v16.3h-5.1c-1.2,0-2.1-1-2.1-2.1V33.5c0-2.2-0.3-3.8-1-4.9
	c-0.7-1.1-1.9-1.6-3.6-1.6c-2,0-3.4,0.6-4.3,1.8c-0.9,1.2-1.3,3.1-1.3,5.8v13.9h-7.3V21.3h4.2C121.8,21.3,123.1,22.5,123.1,24z"/>
<path class="st0" d="M232.2,24c1.1-1.1,2.4-1.8,3.7-2.3c2.1-0.7,3-0.5,4.5-0.5c1.9,0,3.5,0.3,4.8,0.8c1.2,0.5,2.2,1.2,2.9,2.2
	c0.7,0.9,1.2,2.1,1.5,3.4c0.3,1.3,0.4,2.8,0.4,4.5v16.3H245c-1.2,0-2.1-1-2.1-2.1V33.5c0-2.2-0.3-3.8-1-4.9
	c-0.7-1.1-1.9-1.6-3.6-1.6c-2,0-3.4,0.6-4.3,1.8c-0.9,1.2-1.3,3.1-1.3,5.8v13.9h-7.3V21.3h4.2C231,21.3,232.2,22.5,232.2,24z"/>
<path class="st0" d="M174.8,47.7h7.3V17.3c0-1.2-1-2.1-2.1-2.1h-5.1V47.7z"/>
<path class="st0" d="M185.7,47.8h7.3V26.4c0-1.2-1-2.1-2.1-2.1h-5.1V47.8z"/>
<path class="st1" d="M189.4,22.4L189.4,22.4c2,0,3.6-1.6,3.6-3.6c0-2-1.6-3.6-3.6-3.6h0c-2,0-3.6,1.6-3.6,3.6
	C185.7,20.8,187.4,22.4,189.4,22.4z"/>
<g>
	<g>
		<path class="st2" d="M33.4,25.5h-0.3c-0.8-5.1-4.4-9-8.7-9c-4.9,0-8.9,4.9-8.9,11c0,3.5,1.4,6.7,3.5,8.7c0,0.3,0,0.6,0,1
			c0,6.4,7.9,11.6,14.3,11.6s14.3-5.2,14.3-11.6c0-0.3,0-0.6,0-1c2.1-2,3.5-5.2,3.5-8.7c0-6-3.9-11-8.9-11
			C37.8,16.5,34.2,20.4,33.4,25.5z"/>
		<path class="st3" d="M59,20.7c-0.4,0-0.9,0.1-1.3,0.2C56.3,9.8,45.9,0.5,33.3,0.5S10.3,9.8,8.9,21c-0.4-0.1-0.8-0.2-1.3-0.2
			c-3,0-5.4,2-5.4,5.7s3.6,7.7,6.6,7.7c0.6,0,1.1-0.1,1.6-0.4C14,44.2,22.9,51.5,33.3,51.5s19.3-7.3,22.9-17.7
			c0.5,0.2,1,0.4,1.6,0.4c3,0,6.6-4,6.6-7.7S62,20.7,59,20.7z M8.7,32.6c-1.7,0-3.8-2.3-3.8-4.5s1.4-3.3,3.1-3.3
			c0.2,0,0.5,0,0.7,0.1c0.1,2.5,0.5,5,1.2,7.4C9.6,32.5,9.2,32.6,8.7,32.6z M47.5,35.9c0,0.3,0,0.6,0,1c0,6.4-7.9,11.6-14.3,11.6
			S19,43.3,19,36.9c0-0.3,0-0.6,0-1c-2.1-2-3.5-5.2-3.5-8.7c0-6,3.9-11,8.9-11c4.4,0,8,3.9,8.7,9h0.3c0.7-5.1,4.4-9,8.7-9
			c4.9,0,8.9,4.9,8.9,11C51,30.8,49.6,34,47.5,35.9L47.5,35.9z M57.8,32.6c-0.4,0-0.8-0.1-1.2-0.4c0.7-2.4,1.1-4.9,1.2-7.4
			c0.2-0.1,0.5-0.1,0.7-0.1c1.7,0,3.1,1.2,3.1,3.3S59.5,32.6,57.8,32.6z"/>
		<path class="st3" d="M24.6,37c0,4.8,3.9,8.7,8.7,8.7S42,41.8,42,37"/>
	</g>
	<path class="st1" d="M41.5,28.5L41.5,28.5c1.7,0,3-1.4,3-3c0-1.7-1.4-3-3-3h0c-1.7,0-3,1.4-3,3C38.4,27.1,39.8,28.5,41.5,28.5z"/>
	<path class="st1" d="M25.1,28.5L25.1,28.5c1.7,0,3-1.4,3-3c0-1.7-1.4-3-3-3h0c-1.7,0-3,1.4-3,3C22.1,27.1,23.4,28.5,25.1,28.5z"/>
</g>
<path class="st0" d="M197.5,29.6c0.1-1.7,0.5-3.1,1.3-4.3c0.8-1.1,1.7-2,2.9-2.7c1.2-0.7,2.5-1.2,3.9-1.5c1.5-0.3,2.9-0.4,4.4-0.4
	c1.3,0,2.7,0.1,4,0.3c1.4,0.2,2.6,0.6,3.7,1.1c1.1,0.5,2,1.3,2.8,2.3c0.7,1,1.1,2.3,1.1,3.9V42c0,1.2,0,4.9,0,5.9h-6.5
	c0-1.4,0-2.3,0-2.6c-1.2,1.2-3,2-4.6,2.5c-1.6,0.5-3.2,0.7-4.8,0.7c-1.3,0-2.4-0.2-3.5-0.5c-1.1-0.3-2.1-0.8-2.9-1.4
	c-0.8-0.6-1.5-1.5-1.9-2.5c-0.5-1-0.7-2.2-0.7-3.5c0-1.5,0.3-2.7,0.8-3.7c0.5-1,1.2-1.8,2.1-2.3c0.8-0.6,1.8-1,2.9-1.3
	c1.1-0.3,2.2-0.5,3.3-0.7c1.1-0.2,2.2-0.3,3.2-0.4c1.1-0.1,2-0.3,2.8-0.5c0.8-0.2,1.5-0.5,1.9-0.9c0.5-0.4,0.7-1,0.7-1.7
	c0-0.8-0.1-1.4-0.4-1.9c-0.3-0.5-0.6-0.8-1-1.1c-0.4-0.3-0.9-0.4-1.5-0.5c-0.6-0.1-1.2-0.1-1.8-0.1c-1.4,0-2.6,0.3-3.4,0.9
	s-1.3,1.6-1.4,3.1H197.5z M214.3,35c-0.3,0.3-0.7,0.5-1.2,0.6c-0.5,0.2-1,0.3-1.5,0.4c-0.5,0.1-1.1,0.2-1.7,0.3
	c-0.6,0.1-1.2,0.2-1.7,0.3c-0.5,0.1-1.1,0.2-1.6,0.4c-0.5,0.2-1,0.4-1.4,0.7c-0.4,0.3-0.7,0.7-0.9,1.1c-0.2,0.4-0.4,1-0.4,1.7
	c0,0.6,0.1,1.2,0.4,1.6c0.2,0.4,0.6,0.8,1,1.1c0.4,0.3,0.9,0.4,1.4,0.5c0.5,0.1,1.1,0.2,1.7,0.2c1.4,0,2.5-0.2,3.3-0.7
	c0.8-0.5,1.4-1.1,1.7-1.7c0.4-0.7,0.6-1.3,0.7-2c0.1-0.7,0.1-1.2,0.1-1.6V35z"/>
<path class="st3" d="M147,56.5c0.6-1.4,1.1-2.8,1.7-4.1c0.6-1.2,1.7-1.4,2.9-1c2.5,0.8,5,1.3,7.6,0.7c2.9-0.7,4.5-3,4.1-5.8
	c-1.4,0.5-2.8,1.3-4.2,1.5c-6.9,1.1-12.5-2.7-14-9.6c-0.7-3.2-0.6-6.3,0.5-9.4c2.6-7.4,11.4-10.2,17.9-5.7c0.2,0.1,0.4,0.3,0.7,0.4
	c1.7-2.8,4.3-1.7,6.9-1.9c0,0.7,0,1.3,0,1.9c0,7.2,0,14.4,0,21.6c0,9.4-6.4,15-15.8,13.9C152.4,58.7,149.6,58.1,147,56.5z
	 M163.6,34.9c-0.1-1.1-0.1-1.8-0.2-2.5c-0.4-2.9-2.2-4.5-5.2-4.7c-2.7-0.2-4.7,1.2-5.4,3.9c-0.7,2.4-0.5,4.7,0.5,6.9
	c1.1,2.2,3.1,3.2,5.7,2.9c2.1-0.2,3.6-1.5,4.2-3.8C163.5,36.5,163.5,35.5,163.6,34.9z"/>
</svg>
