<?xml version="1.0" encoding="utf-8"?>
<!-- Generator: Adobe Illustrator 21.1.0, SVG Export Plug-In . SVG Version: 6.00 Build 0)  -->
<svg version="1.1" id="Layer_1" xmlns="http://www.w3.org/2000/svg" xmlns:xlink="http://www.w3.org/1999/xlink" x="0px" y="0px"
	 viewBox="0 0 650 348" style="enable-background:new 0 0 650 348;" xml:space="preserve">
<style type="text/css">
	.st0{fill:#8480F7;}
	.st1{fill:#D7D7FF;}
	.st2{fill-rule:evenodd;clip-rule:evenodd;fill:#0093D0;}
	.st3{fill-rule:evenodd;clip-rule:evenodd;fill:#00317B;}
	.st4{fill-rule:evenodd;clip-rule:evenodd;fill:#0093CF;}
	.st5{fill-rule:evenodd;clip-rule:evenodd;fill:#00327B;}
	.st6{fill-rule:evenodd;clip-rule:evenodd;fill:#002E5F;}
	.st7{fill-rule:evenodd;clip-rule:evenodd;fill:#0084A7;}
	.st8{fill:#00317B;}
	.st9{fill:#0092CF;}
	.st10{fill:url(#SVGID_1_);}
</style>
<title>logo_ver3</title>
<g>
	<path class="st0" d="M215,98.6c-2.9,5.3-7.2,9.7-12.6,12.6c-5.8,3-12.2,4.6-18.7,4.7h-3.3V99.1h3.3c12.2-0.6,18.4-7.3,18.4-20.2
		V9.9h17.4v69.3C219.4,86.7,217.9,93.1,215,98.6z"/>
	<path class="st0" d="M281.1,45.1v52.1h-15.1l-1.2-8.4c-1.8,3.3-4.4,6-7.7,7.9c-3.5,2-7.6,3-11.6,2.9c-4.4,0.1-8.7-1.4-11.9-4.4
		c-3.1-2.9-4.9-6.9-4.9-11.2v-39h16.7v32.8c0.2,5.1,2.6,7.6,7,7.6c3.7,0,6.6-1.8,8.8-5.4c2.2-3.6,3.3-8.2,3.3-13.8V45.1H281.1z"/>
	<path class="st0" d="M335.3,47c3.2,2.8,5.1,6.9,5.1,11.2v39h-16.7V64.4c-0.2-5.1-2.8-7.6-7.6-7.6c-3.8,0-6.9,1.8-9.2,5.4
		s-3.5,8.2-3.5,13.8v21.2h-16.7V45.1h15.1l1.2,8.3c1.8-3.4,4.6-6.1,7.9-8c3.7-2,7.8-3,12-2.9C327.5,42.5,331.9,44,335.3,47z"/>
	<path class="st0" d="M409.5,45.1v52.1c0,4.8-1.4,9.5-4.2,13.4c-2.9,4.1-6.9,7.3-11.5,9.4c-4.9,2.3-10.3,3.4-15.7,3.4
		c-3.8,0.1-7.6-0.5-11.3-1.6c-2.7-0.8-5.3-2-7.8-3.5c-2.4-1.6-4.7-3.4-7-5.3l9.8-11.5c2.1,2.1,4.5,3.8,7.1,5.3
		c2.8,1.4,5.8,2,8.9,1.9c3.8,0.1,7.5-1,10.6-3.2c2.8-2,4.4-5.3,4.3-8.8v-7.3c-1.8,2.9-4.3,5.1-7.3,6.6c-3.8,1.8-7.9,2.6-12.1,2.5
		c-4.6,0-9.1-1.2-13.1-3.6c-4-2.4-7.3-5.9-9.6-10c-4.8-8.9-4.7-19.7,0.2-28.5c2.4-4.2,5.8-7.7,9.9-10.3c3.9-2.4,8.4-3.7,13-3.7
		c3.9-0.1,7.8,0.6,11.5,1.8c2.9,1,5.5,2.6,7.6,4.8l1.3-4.1L409.5,45.1z M392.8,77.2V64.4c-1.1-2.6-3.1-4.7-5.5-6.1
		c-2.7-1.5-5.8-2.3-8.9-2.3c-3.8-0.1-7.5,1.4-10.3,4.1c-2.8,2.7-4.3,6.4-4.2,10.3c-0.1,3.9,1.4,7.7,4.2,10.4
		c2.7,2.8,6.4,4.3,10.2,4.2C385,85.1,389.8,82.4,392.8,77.2z"/>
	<path class="st0" d="M435.8,3.1v94.1h-16.7V3.1H435.8z"/>
	<path class="st0" d="M451.8,20.6c1.7-1.6,4-2.5,6.4-2.4c2.3,0,4.5,0.9,6.2,2.4c1.8,1.5,2.8,3.7,2.8,6c0,2.3-1,4.5-2.7,6
		c-1.7,1.5-3.9,2.4-6.2,2.4c-2.3,0-4.6-0.8-6.4-2.4c-1.8-1.4-2.8-3.7-2.8-6C449,24.3,450,22.1,451.8,20.6z M466.1,45.1v52.1h-16.7
		V45.1H466.1z"/>
	<path class="st0" d="M533.3,45.6v52.1h-16.7v-6.5c-5,5.3-10.8,7.9-17.4,7.9c-7.7,0-14-2.3-18.8-6.9c-4.8-4.6-7.2-11.4-7.2-20.5
		c-0.1-5.2,1.1-10.4,3.5-15.1c2.2-4.1,5.4-7.6,9.4-10.1c3.8-2.3,8.1-3.6,12.5-3.6c4.6,0,8.3,0.7,11,2.1c2.8,1.4,5.2,3.5,7.2,5.9
		l1.1-5.4L533.3,45.6z M516.6,77.6V64.9c-0.9-2.5-2.7-4.7-5-6.1c-2.5-1.5-5.4-2.3-8.3-2.3c-3.6,0-7,1.4-9.4,4.1
		c-2.6,2.8-4,6.5-3.9,10.3c0,2.6,0.6,5.2,1.9,7.5c1.2,2.2,2.9,4,5.1,5.3c2.1,1.3,4.4,1.9,6.9,1.9C509.7,85.5,514,82.9,516.6,77.6z"
		/>
	<path class="st0" d="M590.6,47.5c3.2,2.8,5.1,6.9,5.1,11.2v39H579V64.9c-0.2-5.1-2.8-7.6-7.6-7.6c-3.8,0-6.9,1.8-9.2,5.4
		c-2.3,3.6-3.5,8.2-3.5,13.8v21.2H542V45.6h15.2l1.2,8.3c1.8-3.4,4.6-6.1,7.9-8c3.7-2,7.8-3,12-2.9
		C582.8,42.9,587.2,44.5,590.6,47.5z"/>
	<path class="st1" d="M111.7,61.5H111c-1.6-11.2-9.5-19.7-19-19.7c-10.7,0-19.4,10.7-19.4,23.9c0,7.8,3,14.6,7.6,19
		c-0.1,0.7-0.1,1.4-0.1,2.2c0,14,17.2,25.4,31.2,25.4S142.6,101,142.6,87c0-0.7,0-1.4-0.1-2.2c4.6-4.4,7.6-11.2,7.6-19
		c0-13.2-8.7-23.9-19.4-23.9C121.2,41.9,113.3,50.4,111.7,61.5z"/>
	<path class="st0" d="M167.6,51.2c-1,0-1.9,0.2-2.9,0.5C161.7,27.2,139,6.9,111.4,6.9S61,27.2,58,51.6c-0.9-0.3-1.9-0.5-2.9-0.5
		c-6.4,0-11.7,4.4-11.7,12.5s7.9,16.8,14.4,16.8c1.2,0,2.4-0.3,3.5-0.8c7.9,22.7,27.3,38.8,50,38.8s42.1-16.1,50-38.8
		c1.1,0.6,2.3,0.8,3.5,0.8c6.5,0,14.4-8.7,14.4-16.8S174.1,51.2,167.6,51.2z M57.7,77.1c-3.8,0-8.4-5.1-8.4-9.9s3-7.4,6.8-7.4
		c0.5,0,1,0.1,1.6,0.2c0.2,5.5,1.1,10.9,2.6,16.2C59.6,76.9,58.7,77.2,57.7,77.1z M142.5,84.5c0.1,0.7,0.1,1.4,0.1,2.2
		c0,14-17.2,25.4-31.2,25.4s-31.2-11.4-31.2-25.4c0-0.7,0-1.4,0.1-2.2c-4.6-4.4-7.6-11.2-7.6-19c0-13.2,8.7-23.9,19.4-23.9
		c9.5,0,17.4,8.5,19,19.7h0.6c1.6-11.2,9.5-19.7,19-19.7c10.7,0,19.4,10.7,19.4,23.9C150.1,73.2,147.1,80.1,142.5,84.5L142.5,84.5z
		 M165,77.1c-0.9,0-1.8-0.3-2.6-0.8c1.5-5.3,2.4-10.7,2.6-16.2c0.5-0.2,1-0.2,1.6-0.2c3.8,0,6.8,2.6,6.8,7.4
		C173.4,72,168.8,77.1,165,77.1z"/>
	<circle class="st0" cx="92.2" cy="61.5" r="6.2"/>
	<circle class="st0" cx="130.5" cy="61.5" r="6.2"/>
	<path class="st0" d="M92.2,86.7c0,10.6,8.6,19.1,19.1,19.1c10.6,0,19.1-8.6,19.1-19.1"/>
</g>
<g>
	<path class="st2" d="M552.6,265.3c0.1-0.1,0.3-0.1,0.4-0.1c2.8,0,5.5-0.2,8.2,0.1c2.7,0.3,5.5,1.8,6.2,5.1c0.1,0.4,0.2,0.8,0.3,1.2
		c0.1,0.4,0.2,0.7,0.6,0.2c1.5-1.7,3.1-3.3,5.1-4.5c2.6-1.7,5.4-2.8,8.6-3.2c2.2-0.3,4.3-0.2,6.4,0.1c5.4,0.9,9.4,3.6,12,8.5
		c0.6,1.2,0.7,1.2,1.5,0.2c2.2-2.9,5-5.2,8.3-6.7c2.2-1.1,4.5-1.7,7-2c2.2-0.3,4.4-0.2,6.6,0.1c6.4,0.9,11.1,4.2,13.4,10.5
		c0.9,2.5,1.4,5,1.6,7.6c0,0.1,0,0.3,0.1,0.3c0,13.3,0,26.7,0,40c-2.8,0-5.5,0-8.3,0c-2.2-0.1-4.3-0.6-5.9-2.4
		c-1.1-1.3-1.6-2.9-1.6-4.6c0-8.7,0-17.4,0-26.1c0-2.1-0.1-4.3-0.6-6.4c-0.6-2.5-2.1-4.4-5.2-4.5c-4.7-0.3-8.1,2-10.5,5.8
		c-1.5,2.2-2.2,4.8-2.8,7.4c-0.4,2-0.6,4-0.6,6c0,8,0,16,0,23.9c0,0.7-0.2,0.9-0.9,0.9c-4.7,0-9.4,0-14.1,0c-0.6,0-0.9-0.1-0.9-0.8
		c0-11,0-22,0-33c0-2.2-0.2-4.4-1.1-6.5c-1.3-3-3.8-4-6.8-3.8c-3.3,0.2-5.7,2-7.6,4.6c-1.7,2.3-2.7,5-3.4,7.8
		c-0.6,2.6-0.8,5.3-0.8,7.9c0,7.7,0,15.3,0,23c0,0.7-0.2,0.8-0.8,0.8c-4.7,0-9.4,0-14.1,0c-0.6,0-0.9-0.1-0.9-0.8
		c0-7.1,0-14.1,0-21.2c0-0.2-0.1-0.5,0.1-0.7c0.1,0.1,0.1,0.2,0.1,0.4c0,7.2,0,14.5,0,21.7c0,0.1,0.2,0,0.1,0c0,0,0,0,0,0
		c0-0.2,0-0.4,0-0.7c0-18.4,0-36.7,0-55.1C552.5,265.9,552.4,265.6,552.6,265.3z"/>
	<path class="st3" d="M268.3,240.4c1.1,0.4,2.3,0.6,3.4,1.3c3.4,2,5.3,6,4.6,9.9c-0.7,3.9-3.7,7-7.5,7.8c-5.3,1.1-10.3-2.3-11.4-7.7
		c-1-5.2,2.5-10.1,7.6-11.1c0.1,0,0.3,0,0.4-0.1C266.4,240.4,267.3,240.4,268.3,240.4z"/>
	<path class="st3" d="M254.6,322.6c-5.2-0.1-10.3,0.2-15.3-0.1c-2.8-0.2-5-1.6-6.4-3.9c-1.6-2.6-2.9-5.4-4.4-8.1
		c-1.8-3.3-3.6-6.7-5.3-10.1c-0.5-1-1.2-1.4-2.3-1.5c-0.7-0.1-1.5-0.2-2.2-0.1c-1.2,0-1-0.2-1,1c0,6.8,0,13.6,0,20.4
		c0,0.6,0,1.3,0,1.9c0,0.5-0.1,0.7-0.6,0.7c-5.1,0-10.3,0-15.4,0c-0.5,0-0.6-0.1-0.6-0.6c0-0.7,0-1.5,0-2.2c0-25.3,0-50.6,0-75.9
		c0-1.1-0.1-1,1-1c3,0,6-0.1,9,0.1c3.5,0.3,5.5,1.8,6.3,4.8c0.3,1,0.3,2,0.3,3.1c0,10.8,0,21.6,0,32.4c0,1,0,1,1.1,1
		c0.9,0,1.7,0,2.6-0.1c1.4-0.1,2.4-0.7,3.2-1.9c3.6-5.6,7.2-11.2,10.8-16.8c0.2-0.4,0.5-0.5,1-0.5c5.9,0,11.7,0,17.6,0
		c0.1,0,0.2,0,0.5,0c-0.5,0.7-0.9,1.3-1.3,1.9c-4.7,7-9.4,14-14.1,21c-0.7,1.1-1.6,2.2-2.5,3.1c-0.2,0.2-0.4,0.3-0.1,0.6
		c2.2,2.1,3.3,4.9,4.6,7.5c3.7,7.3,8,14.1,12.2,21.1C253.6,321,254,321.7,254.6,322.6z"/>
	<path class="st3" d="M301.2,271.5c1-0.9,1.8-1.8,2.8-2.6c4-3.3,8.5-4.9,13.6-5.1c3.5-0.2,7,0.2,10.3,1.4c5.3,2,8.6,5.8,10.3,11.2
		c0.9,2.9,1.3,6,1.3,9c0,5.4,0,10.7,0,16.1c0,6.7,0,13.5,0.1,20.2c0,1.1,0.1,1-1,0.9c-2.8,0-5.6,0.1-8.4-0.1
		c-4.4-0.3-6.9-2.9-7.1-7.3c-0.2-4.2-0.1-8.5-0.1-12.7c0-4.8,0-9.6,0-14.3c0-1.4-0.1-2.9-0.5-4.3c-0.8-3.1-2.8-4.7-6-4.8
		c-6.4-0.2-12.2,3.5-14.1,11.1c-0.5,1.8-0.7,3.7-0.7,5.6c0,8.6,0,17.2,0,25.8c0,0.7-0.1,0.9-0.9,0.9c-4.9,0-9.9,0-14.8,0
		c-0.6,0-0.8-0.2-0.8-0.8c0-16.8,0-33.5,0-50.3c0-2,0-4,0-6c0-0.3-0.1-0.6,0.4-0.6c2.9,0.1,5.9-0.2,8.8,0.1c3.2,0.3,6,2,6.8,5.9
		C301.1,271.2,301.2,271.3,301.2,271.5z"/>
	<path class="st4" d="M481.9,280.2c0,1.4,0,2.7,0,4.1c0,0.5-0.1,0.7-0.6,0.7c-2.6,0-5.3,0.1-7.9,0c-2.8-0.1-5-1.5-5.8-4.6
		c-0.3-1.2-1.4-1.7-2.4-2.1c-5.5-1.9-12.2-0.2-15.9,4.3c-1.6,1.9-2.6,4.2-3.2,6.6c-0.6,2.7-0.7,5.4-0.2,8.1c1,4.8,3.6,8.5,8.1,10.6
		c3.4,1.6,7,2.1,10.6,1.5c3.6-0.6,6.9-2.2,9.8-4.4c1.3-0.9,2.5-1.9,3.5-3.1c0.3-0.3,0.4-0.4,0.7,0c2.1,3.5,4.2,7,6.3,10.5
		c0.2,0.4,0.1,0.7-0.2,1.1c-2,2.2-4.3,4-6.8,5.6c-2.8,1.7-5.7,3-8.9,3.8c-4.3,1.1-8.7,1.3-13.2,0.7c-4.7-0.6-9.1-2.1-13.1-4.7
		c-5.2-3.4-9-8-11.2-13.9c-1.4-3.9-2.1-7.8-1.9-11.9c0.2-8,3-14.9,8.7-20.5c3.3-3.3,7.2-5.5,11.7-7c3.2-1,6.6-1.6,9.9-1.7
		c4.6-0.1,9.1,0.6,13.3,2.4c3.1,1.3,5.9,3.2,7.6,6.3c0.8,1.5,1.2,3,1.1,4.7C481.9,278.3,482,279.3,481.9,280.2
		C482,280.2,481.9,280.2,481.9,280.2z"/>
	<path class="st5" d="M259.3,293.8c0-9.4,0-18.7,0-28.1c0-0.3-0.1-0.7,0.5-0.7c3,0.1,6-0.1,9,0.1c4,0.3,6.4,2.8,6.8,6.8
		c0.1,0.7,0.1,1.5,0.1,2.2c0,15.9,0,31.8,0,47.7c0,0.7-0.1,0.8-0.8,0.8c-4.9,0-9.8,0-14.8,0c-0.7,0-0.8-0.2-0.8-0.8
		C259.3,312.4,259.3,303.1,259.3,293.8C259.3,293.8,259.3,293.8,259.3,293.8z"/>
	<path class="st2" d="M417.4,323.2c-5.1,0.2-9.6-4.2-9.6-9.6c0-5.4,4.5-9.6,9.6-9.6c5.3,0,9.7,4.5,9.7,9.6
		C427,318.8,422.7,323.4,417.4,323.2z"/>
	<path class="st6" d="M401.3,319.7c-0.2-0.4-0.1-0.9-0.1-1.3c0-17.4,0-34.9,0-52.3c0-1,0-1-1.1-1c-2.4,0-4.8,0-7.2,0
		c0.2-0.2,0.5-0.1,0.7-0.1c2.3,0,4.7,0,7,0c0.5,0,0.7,0.1,0.7,0.7c0,17.7,0,35.4,0,53.2C401.4,319,401.4,319.4,401.3,319.7z"/>
	<path class="st7" d="M552.6,265.3c0,19,0,38,0,57.2c-0.2-0.4-0.1-0.7-0.1-0.9c0-6.9,0-13.8,0-20.7c0-0.3,0-0.7,0-1
		c0-6.8,0-13.6,0-20.5c0-4.3,0-8.7,0-13C552.4,266,552.2,265.6,552.6,265.3z"/>
	<g>
		<path class="st8" d="M56,281.3c-0.6-0.3-1.1-0.6-1.7-1c0.4-0.4,0.7-0.7,1.1-0.9c1.3-1.1,2.5-2.2,3.5-3.5c3-4,4.2-8.6,3.9-13.6
			c-0.4-7.1-3.7-12.5-9.9-16c-4.4-2.5-9.2-3.3-14.1-3.4c-6.5-0.1-13,0-19.6,0c-2.6,0-4.8,1.1-6.5,3.2c-0.9,1.1-1.4,2.5-1.8,3.9
			c0,24.1,0,48.2,0,72.3c0.3,0,0.6,0,0.8,0c9,0,18.1,0,27.1,0c3.9,0,7.7-0.5,11.5-1.8c5.5-1.9,9.9-5,12.8-10.1
			c2.8-5.1,3.5-10.5,2.3-16.2C64.3,288.5,61.2,284.1,56,281.3z M26.3,267.5C26.3,267.5,26.3,267.5,26.3,267.5c0-2.2,0-4.3,0-6.5
			c0.1-3.2,1.6-4.8,4.7-5c3-0.2,6.1-0.3,9.1,0.1c3.8,0.6,6.2,2.9,7,6.7c0.6,3.3,0.2,6.4-1.9,9.1c-1.7,2.2-4.1,3-6.7,3
			c-3.9,0-7.7,0-11.6,0c-0.5,0-0.7-0.2-0.7-0.7C26.3,272.1,26.3,269.8,26.3,267.5z M48.1,305.2c-1.9,2.5-4.6,3.5-7.6,3.6
			c-4.5,0.1-9,0-13.6,0c-0.5,0-0.6-0.2-0.6-0.6c0-2.7,0-5.5,0-8.2c0,0,0,0,0,0c0-2.6-0.1-5.2,0-7.8c0.1-3.2,1.8-4.9,5.1-4.9
			c2.9,0,5.7-0.1,8.6,0c3.7,0.1,6.8,1.4,8.8,4.6C51.1,295.7,50.8,301.8,48.1,305.2z"/>
		<path class="st8" d="M400.6,264.9c-1.8,0-3.6,0-5.5,0c-0.7,0-1.5-0.1-2.2,0.1c-3,0-5.1,1.5-6.3,4.2c-1.1-1-2.3-1.9-3.6-2.7
			c-5-2.8-10.4-3.5-16-2.7c-9.7,1.3-16.3,6.8-19.7,15.8c-2.8,7.4-2.9,15.1-0.8,22.7c1.4,5.2,4.1,9.7,8.3,13.2
			c5.2,4.4,11.2,6,17.9,5.7c4.4-0.2,8.4-1.4,11.9-4.3c0.1-0.1,0.2-0.2,0.4-0.1c0.1,1,0,2-0.1,3.1c-0.4,4-2.3,7-6,8.7
			c-4,1.8-8.3,1.8-12.5,1.1c-2.4-0.4-4.6-1.1-6.9-1.8c-2.8-0.8-4.7,0.1-6,2.7c-0.1,0.2-0.2,0.5-0.4,0.8c-1,2.5-1.9,4.9-2.9,7.4
			c-0.2,0.5-0.1,0.7,0.4,1c4.2,2.3,8.7,3.7,13.5,4.5c1.4,0.2,2.7,0.4,4.1,0.6c2.1,0,4.1,0,6.2,0c0.1-0.2,0.3-0.1,0.4-0.1
			c2-0.1,4-0.5,5.9-1c5.1-1.3,9.8-3.5,13.6-7.2c4.7-4.6,6.9-10.4,7.2-16.9c0-0.3,0-0.6,0-0.9c0-17.6,0-35.1,0-52.7
			c0-0.2,0-0.3,0-0.5C401.4,265.1,401.2,264.9,400.6,264.9z M384.1,300.2c-1.6,4.3-5,6.7-9.6,6.8c-5.7,0.1-9.7-2.7-11.5-8.1
			c-1.6-4.8-1.6-9.5,0.2-14.2c1.7-4.2,4.9-6.3,9.4-6.5c2.4-0.1,4.7,0.1,6.8,1.2c3,1.5,4.4,4.1,5.2,7.2c0.5,1.9,0.6,3.8,0.6,5.9
			C385.3,295,385,297.7,384.1,300.2z"/>
		<path class="st9" d="M545.8,285.9c-0.5-2.4-1.4-4.7-2.6-6.9c-2.6-4.8-6.2-8.6-11-11.3c-3.7-2.1-7.8-3.3-12-3.8
			c-2.9-0.3-5.8-0.3-8.7,0.1c-3.1,0.4-6.1,1.3-8.9,2.7c-4.8,2.3-8.7,5.7-11.5,10.2c-3.2,5.1-4.7,10.7-4.6,16.7c0,1.5,0.1,3,0.3,4.5
			c0.4,3.3,1.4,6.4,2.8,9.4c2.1,4.4,5.3,8,9.3,10.8c4.4,3,9.3,4.6,14.5,5.1c5.2,0.5,10.3-0.2,15.2-2.1c4.7-1.9,8.7-4.8,11.9-8.8
			c2.2-2.8,3.9-6,4.9-9.5c0.7-2.3,1-4.5,1.3-6.9C546.9,292.7,546.6,289.3,545.8,285.9z M530.5,293.2c0,4.3-0.8,7.8-3,10.8
			c-1.9,2.6-4.3,4.2-7.4,5c-3.1,0.7-6.2,0.6-9.2-0.7c-3-1.3-5.1-3.6-6.5-6.5c-1.3-2.8-1.9-5.7-1.8-8.7c0.2-4.4,1.4-8.5,4.7-11.7
			c3-2.8,6.6-3.9,10.7-3.4c5.8,0.6,9.5,4,11.5,9.3C530.2,289.3,530.6,291.5,530.5,293.2z"/>
		<path class="st8" d="M179.3,267c-7.9-3.9-16.1-4.3-24.4-1.6c-8.5,2.7-14.5,8.3-17.8,16.7c-2.3,5.8-2.7,11.9-1.5,18
			c1.4,7.1,4.9,12.9,10.7,17.3c5.5,4.2,11.9,6,18.7,6c2.6,0,5.2-0.2,7.7-0.9c8.8-2.1,15.4-7.1,19.4-15.2c3.2-6.6,3.9-13.6,2.3-20.7
			C192.5,277.8,187.5,271.1,179.3,267z M179.1,293.7c0,4-0.9,7.7-3.4,10.8c-2.9,3.6-6.8,5.1-11.3,4.9c-6.4-0.3-11.4-4.8-12.7-11.6
			c-1-4.8-0.5-9.5,2.1-13.8c2.9-4.7,7.8-6.9,13.3-6.1c6.1,0.8,9.7,4.6,11.4,10.4C178.9,290.1,179.1,291.9,179.1,293.7z"/>
		<path class="st8" d="M115,267.1c-7.1-3.5-14.6-4.2-22.2-2.3c-9.1,2.2-15.7,7.5-19.6,16.1c-2.6,5.7-3.1,11.7-2.2,17.8
			c1,6.8,3.9,12.6,9,17.2c5.8,5.3,12.9,7.5,20.7,7.6c3,0,6-0.3,8.9-1.2c8.4-2.4,14.7-7.4,18.4-15.4c3-6.3,3.5-13,2.2-19.7
			C128.3,278.1,123.3,271.3,115,267.1z M112.5,302.7c-2.2,4.1-5.8,6.3-10.5,6.8c-7.6,0.7-13.1-4.1-14.7-11.1
			c-0.1-0.5-0.2-1.1-0.3-1.6c-0.2-1-0.2-2-0.2-3c0-4.1,0.9-7.8,3.6-11c3.2-3.8,7.4-5.3,12.2-4.6c5.5,0.7,9.1,3.9,10.9,9
			C115.4,292.3,115.2,297.6,112.5,302.7z"/>
	</g>
</g>
<linearGradient id="SVGID_1_" gradientUnits="userSpaceOnUse" x1="332.6851" y1="206.7371" x2="332.6851" y2="160.2188">
	<stop  offset="0" style="stop-color:#00317B"/>
	<stop  offset="1" style="stop-color:#8480F7"/>
</linearGradient>
<path class="st10" d="M355.9,164.9l-4.7-4.7l-18.6,18.6l-18.6-18.6l-4.7,4.7l18.6,18.6l-18.6,18.6l4.7,4.7l18.6-18.6l18.6,18.6
	l4.7-4.7l-18.6-18.6L355.9,164.9z"/>
</svg>
