<?xml version="1.0" encoding="utf-8"?>
<!-- Generator: Adobe Illustrator 21.1.0, SVG Export Plug-In . SVG Version: 6.00 Build 0)  -->
<svg version="1.1" id="Layer_1" xmlns="http://www.w3.org/2000/svg" xmlns:xlink="http://www.w3.org/1999/xlink" x="0px" y="0px"
	 viewBox="0 0 425.7 81.5" style="enable-background:new 0 0 425.7 81.5;" xml:space="preserve">
<style type="text/css">
	.st0{fill:#7C4DFF;}
	.st1{font-family:'Montserrat-SemiBold';}
	.st2{font-size:60px;}
	.st3{clip-path:url(#SVGID_2_);fill:none;}
	.st4{clip-path:url(#SVGID_2_);fill:url(#SVGID_3_);}
</style>
<g>
	<g>
		<circle class="st0" cx="40.4" cy="29.5" r="5.9"/>
		<circle class="st0" cx="59.6" cy="29.5" r="5.9"/>
		<g>
			<path class="st0" d="M86.3,17.2c-1,0-1.9,0.1-2.9,0.3C76.1,6.9,63.8,0,50,0S23.9,6.9,16.6,17.5c-0.9-0.2-1.9-0.3-2.9-0.3
				C6.1,17.2,0,23.3,0,30.8c0,6,3.9,11.2,9.4,13C10.9,64.9,28.5,81.5,50,81.5s39.1-16.6,40.6-37.7c5.4-1.8,9.4-6.9,9.4-13
				C100,23.3,93.9,17.2,86.3,17.2z M10,37.3c-3.3,0-6-2.7-6-6s2.7-6,6-6s6,2.7,6,6C16.1,34.6,13.4,37.3,10,37.3z M50,75.3
				c-14.4,0-26.5-7.7-29.8-18.2c6.8,3.5,17.7,5.7,29.8,5.7s23-2.2,29.8-5.7C76.5,67.5,64.4,75.3,50,75.3z M80.7,51.9
				c-4.9,3.6-16,6.8-30.7,6.8s-25.8-3.2-30.7-6.8c0-0.1,0-0.3,0-0.4c0-5.9,2.7-11.2,7.3-15.4c-1.7-2.3-2.7-5.2-2.7-8.3
				c0-7.9,6.4-14.3,14.3-14.3c4.9,0,9.2,2.5,11.8,6.2c2.6-3.8,6.9-6.2,11.8-6.2c7.9,0,14.3,6.4,14.3,14.3c0,3.1-1,6-2.7,8.3
				c4.5,4.1,7.3,9.5,7.3,15.4C80.7,51.6,80.7,51.7,80.7,51.9z M90,37.3c-3.3,0-6-2.7-6-6s2.7-6,6-6s6,2.7,6,6S93.3,37.3,90,37.3z"/>
		</g>
	</g>
</g>
<g>
	<defs>
		<text id="SVGID_1_" transform="matrix(1 0 0 1 111.4001 64.7001)" class="st1 st2">JUNGLIAN</text>
	</defs>
	<clipPath id="SVGID_2_">
		<use xlink:href="#SVGID_1_"  style="overflow:visible;"/>
	</clipPath>
	<polygon class="st3" points="353.1,48.2 361.5,48.2 357.4,36.3 	"/>
	<path class="st3" d="M116.2,22.9h27.3v26.9c0,4.5-1.4,8-4.1,10.6c-2.7,2.5-6.5,3.8-11.2,3.8c-6.3,0-11.5-2.4-15.8-7.1l6.1-8.7
		c1.5,1.5,3,2.6,4.6,3.4s2.8,1.2,3.9,1.2c1,0,1.7-0.3,2.3-0.9c0.5-0.6,0.8-1.4,0.8-2.6v-16h-13.8L116.2,22.9L116.2,22.9z
		 M173.8,46.7c0,2-0.5,3.6-1.6,4.8s-2.4,1.8-3.9,1.8c-1.6,0-3-0.6-4.2-1.9c-1.2-1.2-1.7-2.8-1.7-4.8V22.9h-13.5v23.8
		c0,3.6,0.8,6.7,2.4,9.4c1.6,2.7,3.9,4.8,6.8,6.2c2.9,1.5,6.3,2.2,10.1,2.2s7.2-0.7,10-2.2c2.9-1.5,5.1-3.5,6.6-6.2
		c1.6-2.7,2.3-5.8,2.3-9.4V22.9h-13.5v23.8C173.6,46.7,173.8,46.7,173.8,46.7z M220.5,43.8l-16.1-20.9h-11.3v40.7h12.2V42.8l16,20.8
		h11.3V22.9h-12.2v20.9H220.5z M255.3,34.6c1.4-0.9,2.9-1.3,4.6-1.3s3.4,0.4,5.2,1.2c1.8,0.8,3.4,1.9,4.8,3.2l7.6-9.2
		c-2.2-1.9-4.8-3.5-8-4.6c-3.2-1.2-6.4-1.7-9.5-1.7c-4.4,0-8.3,0.9-11.8,2.7c-3.5,1.8-6.2,4.3-8.2,7.6c-2,3.2-3,6.9-3,10.9
		c0,4.1,0.9,7.7,2.8,10.9c1.9,3.2,4.5,5.8,7.9,7.6c3.3,1.8,7.1,2.8,11.3,2.8c2.9,0,6-0.5,9.4-1.5c3.3-1,6.2-2.3,8.4-3.8v-17h-11.5
		v9.7c-2.1,0.9-3.9,1.4-5.3,1.4c-1.7,0-3.3-0.4-4.7-1.3c-1.4-0.9-2.5-2.1-3.3-3.6s-1.2-3.3-1.2-5.2s0.4-3.6,1.2-5.1
		C252.9,36.6,253.9,35.4,255.3,34.6z M296.1,22.9h-13.5v40.7H313V52.4h-16.9V22.9z M317.2,63.6h13.5V22.9h-13.5V63.6z M381.2,63.6
		h-14.3l-2-5.7h-15.3l-2.1,5.7h-13.8l17.2-40.7h13.8L381.2,63.6z M361.5,48.2l-4.2-11.9L353,48.2H361.5z M411.5,22.9v20.9
		l-16.1-20.9h-11.3v40.7h12.2V42.8l16,20.8h11.3V22.9H411.5z"/>
	
		<linearGradient id="SVGID_3_" gradientUnits="userSpaceOnUse" x1="113.4718" y1="165.2932" x2="430.092" y2="226.3177" gradientTransform="matrix(1 0 0 1 0 -152)">
		<stop  offset="0" style="stop-color:#7C4DFF"/>
		<stop  offset="0.999" style="stop-color:#4DA3FA"/>
	</linearGradient>
	<rect x="107.7" y="8.2" class="st4" width="322.4" height="70.1"/>
</g>
</svg>
