<?xml version="1.0" encoding="utf-8"?>
<!-- Generator: Adobe Illustrator 21.1.0, SVG Export Plug-In . SVG Version: 6.00 Build 0)  -->
<svg version="1.1" id="Layer_1" xmlns="http://www.w3.org/2000/svg" xmlns:xlink="http://www.w3.org/1999/xlink" x="0px" y="0px"
	 viewBox="0 0 425.6 81.5" style="enable-background:new 0 0 425.6 81.5;" xml:space="preserve">
<style type="text/css">
	.st0{fill:#FFFFFF;}
	.st1{fill:none;}
</style>
<title>lovo_ver4_white</title>
<circle class="st0" cx="40.4" cy="29.5" r="5.9"/>
<circle class="st0" cx="59.6" cy="29.5" r="5.9"/>
<path class="st0" d="M86.3,17.2c-1,0-1.9,0.1-2.9,0.3C70.6-0.9,45.3-5.5,26.9,7.2c-4,2.8-7.5,6.3-10.3,10.3
	c-7.4-1.6-14.7,3-16.3,10.4c-1.5,6.9,2.4,13.8,9.1,15.9C11.1,66.2,30.6,83.1,53,81.4c20.1-1.5,36.1-17.5,37.6-37.6
	c7.2-2.3,11.1-10.1,8.7-17.2C97.5,21,92.2,17.2,86.3,17.2z M10,37.3c-3.3,0-6-2.7-6-6s2.7-6,6-6s6,2.7,6,6c0.1,3.3-2.5,5.9-5.8,6
	C10.1,37.3,10.1,37.3,10,37.3z M50,75.3c-14.4,0-26.5-7.7-29.8-18.2c6.8,3.5,17.7,5.7,29.8,5.7s23-2.2,29.8-5.7
	C76.5,67.5,64.4,75.3,50,75.3z M80.7,51.9c-4.9,3.6-16,6.8-30.7,6.8s-25.8-3.2-30.7-6.8v-0.4c0-5.9,2.7-11.2,7.3-15.4
	c-1.8-2.4-2.7-5.3-2.7-8.3c0-7.9,6.4-14.3,14.3-14.3c0,0,0,0,0,0c4.7,0,9.1,2.3,11.8,6.2c4.5-6.5,13.4-8.2,19.9-3.7
	c3.9,2.7,6.2,7.1,6.2,11.8c0,3-0.9,5.9-2.7,8.3c4.5,4.1,7.3,9.5,7.3,15.4L80.7,51.9z M90,37.3c-3.3,0-6-2.7-6-6s2.7-6,6-6s6,2.7,6,6
	S93.3,37.3,90,37.3z"/>
<polygon class="st1" points="355.1,48.2 363.5,48.2 359.4,36.3 "/>
<path class="st0" d="M118.2,22.9h27.3v26.9c0,4.5-1.4,8-4.1,10.6s-6.5,3.8-11.2,3.8c-6.1,0.1-11.8-2.5-15.8-7.1l6.1-8.7
	c1.3,1.4,2.9,2.5,4.6,3.4c1.2,0.7,2.5,1.1,3.9,1.2c0.9,0,1.7-0.3,2.3-0.9c0.6-0.7,0.9-1.7,0.8-2.6v-16h-13.8
	C118.3,33.5,118.2,22.9,118.2,22.9z M175.8,46.7c0.1,1.7-0.5,3.5-1.6,4.8c-1,1.1-2.4,1.8-3.9,1.8c-1.6,0-3.1-0.7-4.2-1.9
	c-1.2-1.3-1.8-3-1.7-4.8V22.9h-13.5v23.8c-0.1,3.3,0.8,6.5,2.4,9.4c1.6,2.7,4,4.9,6.8,6.2c3.1,1.5,6.6,2.3,10.1,2.2
	c3.5,0.1,6.9-0.7,10-2.2c2.8-1.4,5.1-3.5,6.6-6.2c1.6-2.9,2.4-6.1,2.3-9.4V22.9h-13.5v23.8L175.8,46.7z M222.5,43.8l-16.1-20.9
	h-11.3v40.7h12.2V42.8l16,20.8h11.3V22.9h-12.2L222.5,43.8L222.5,43.8z M257.3,34.6c1.4-0.9,3-1.3,4.6-1.3c1.8,0,3.6,0.4,5.2,1.2
	c1.8,0.8,3.4,1.9,4.8,3.2l7.6-9.2c-2.3-2-5.1-3.6-8-4.6c-3-1.1-6.3-1.7-9.5-1.7c-4.1-0.1-8.1,0.9-11.8,2.7c-3.4,1.7-6.2,4.3-8.2,7.6
	c-2,3.3-3.1,7.1-3,10.9c-0.1,3.8,0.9,7.6,2.8,10.9c1.9,3.2,4.6,5.9,7.9,7.6c3.5,1.9,7.4,2.8,11.3,2.8c3.2,0,6.4-0.6,9.4-1.5
	c3-0.8,5.8-2.1,8.4-3.8v-17h-11.5v9.7c-1.7,0.8-3.5,1.3-5.3,1.4c-1.7,0-3.3-0.4-4.7-1.3c-1.4-0.9-2.5-2.1-3.3-3.6
	c-0.8-1.6-1.2-3.4-1.2-5.2c0-1.8,0.4-3.5,1.2-5.1C254.7,36.8,255.9,35.5,257.3,34.6z M298.1,22.9h-13.5v40.7H315V52.4h-16.9
	L298.1,22.9z M319.2,63.6h13.5V22.9h-13.5L319.2,63.6z M383.2,63.6h-14.3l-2-5.7h-15.3l-2.1,5.7h-13.8l17.2-40.7h13.8L383.2,63.6z
	 M363.5,48.2l-4.2-11.9L355,48.2H363.5z M413.5,22.9v20.9l-16.1-20.9h-11.3v40.7h12.2V42.8l16,20.8h11.3V22.9L413.5,22.9z"/>
</svg>
