<?xml version="1.0" encoding="utf-8"?>
<!-- Generator: Adobe Illustrator 21.1.0, SVG Export Plug-In . SVG Version: 6.00 Build 0)  -->
<svg version="1.1" id="Layer_1" xmlns="http://www.w3.org/2000/svg" xmlns:xlink="http://www.w3.org/1999/xlink" x="0px" y="0px"
	 viewBox="0 0 425.7 81.5" style="enable-background:new 0 0 425.7 81.5;" xml:space="preserve">
<style type="text/css">
	.st0{fill:#4DA3FA;}
	.st1{fill:#7C4DFF;}
	.st2{fill:none;}
	.st3{clip-path:url(#SVGID_2_);fill:url(#SVGID_3_);}
</style>
<g>
	<g>
		<g>
			<path class="st0" d="M86.3,17.2c-1,0-1.9,0.1-2.9,0.3C76.1,6.9,63.8,0,50,0C36.2,0,23.9,6.9,16.6,17.5c-0.9-0.2-1.9-0.3-2.9-0.3
				C6.1,17.2,0,23.3,0,30.8c0,6,3.9,11.2,9.4,13C10.9,64.9,28.5,81.5,50,81.5c21.5,0,39.1-16.6,40.6-37.7c5.4-1.8,9.4-6.9,9.4-13
				C100,23.3,93.9,17.2,86.3,17.2z"/>
		</g>
	</g>
	<g>
		<circle class="st1" cx="40.4" cy="29.5" r="5.9"/>
		<circle class="st1" cx="59.6" cy="29.5" r="5.9"/>
		<g>
			<path class="st1" d="M86.3,17.2c-1,0-1.9,0.1-2.9,0.3C76.1,6.9,63.8,0,50,0C36.2,0,23.9,6.9,16.6,17.5c-0.9-0.2-1.9-0.3-2.9-0.3
				C6.1,17.2,0,23.3,0,30.8c0,6,3.9,11.2,9.4,13C10.9,64.9,28.5,81.5,50,81.5c21.5,0,39.1-16.6,40.6-37.7c5.4-1.8,9.4-6.9,9.4-13
				C100,23.3,93.9,17.2,86.3,17.2z M10,37.3c-3.3,0-6-2.7-6-6c0-3.3,2.7-6,6-6c3.3,0,6,2.7,6,6C16.1,34.6,13.4,37.3,10,37.3z
				 M50,75.3c-14.4,0-26.5-7.7-29.8-18.2c6.8,3.5,17.7,5.7,29.8,5.7c12.1,0,23-2.2,29.8-5.7C76.5,67.5,64.4,75.3,50,75.3z
				 M80.7,51.9c-4.9,3.6-16,6.8-30.7,6.8c-14.7,0-25.8-3.2-30.7-6.8c0-0.1,0-0.3,0-0.4c0-5.9,2.7-11.2,7.3-15.4
				c-1.7-2.3-2.7-5.2-2.7-8.3c0-7.9,6.4-14.3,14.3-14.3c4.9,0,9.2,2.5,11.8,6.2c2.6-3.8,6.9-6.2,11.8-6.2c7.9,0,14.3,6.4,14.3,14.3
				c0,3.1-1,6-2.7,8.3c4.5,4.1,7.3,9.5,7.3,15.4C80.7,51.6,80.7,51.7,80.7,51.9z M90,37.3c-3.3,0-6-2.7-6-6c0-3.3,2.7-6,6-6
				c3.3,0,6,2.7,6,6C96,34.6,93.3,37.3,90,37.3z"/>
		</g>
	</g>
</g>
<polygon class="st2" points="355.1,48.2 363.5,48.2 359.4,36.3 "/>
<g>
	<defs>
		<path id="SVGID_1_" d="M118.2,22.9h27.3v26.9c0,4.5-1.4,8-4.1,10.6c-2.7,2.5-6.5,3.8-11.2,3.8c-6.3,0-11.5-2.4-15.8-7.1l6.1-8.7
			c1.5,1.5,3,2.6,4.6,3.4s2.8,1.2,3.9,1.2c1,0,1.7-0.3,2.3-0.9c0.5-0.6,0.8-1.4,0.8-2.6v-16h-13.8V22.9z M175.8,46.7
			c0,2-0.5,3.6-1.6,4.8s-2.4,1.8-3.9,1.8c-1.6,0-3-0.6-4.2-1.9c-1.2-1.2-1.7-2.8-1.7-4.8V22.9h-13.5v23.8c0,3.6,0.8,6.7,2.4,9.4
			c1.6,2.7,3.9,4.8,6.8,6.2c2.9,1.5,6.3,2.2,10.1,2.2s7.2-0.7,10-2.2c2.9-1.5,5.1-3.5,6.6-6.2c1.6-2.7,2.3-5.8,2.3-9.4V22.9h-13.5
			V46.7z M222.5,43.8l-16.1-20.9h-11.3v40.7h12.2V42.8l16,20.8h11.3V22.9h-12.2V43.8z M257.3,34.6c1.4-0.9,2.9-1.3,4.6-1.3
			c1.7,0,3.4,0.4,5.2,1.2c1.8,0.8,3.4,1.9,4.8,3.2l7.6-9.2c-2.2-1.9-4.8-3.5-8-4.6c-3.2-1.2-6.4-1.7-9.5-1.7
			c-4.4,0-8.3,0.9-11.8,2.7c-3.5,1.8-6.2,4.3-8.2,7.6c-2,3.2-3,6.9-3,10.9c0,4.1,0.9,7.7,2.8,10.9c1.9,3.2,4.5,5.8,7.9,7.6
			c3.3,1.8,7.1,2.8,11.3,2.8c2.9,0,6-0.5,9.4-1.5c3.3-1,6.2-2.3,8.4-3.8v-17h-11.5v9.7c-2.1,0.9-3.9,1.4-5.3,1.4
			c-1.7,0-3.3-0.4-4.7-1.3c-1.4-0.9-2.5-2.1-3.3-3.6c-0.8-1.5-1.2-3.3-1.2-5.2c0-1.9,0.4-3.6,1.2-5.1
			C254.9,36.6,255.9,35.4,257.3,34.6z M298.1,22.9h-13.5v40.7H315V52.4h-16.9V22.9z M319.2,63.6h13.5V22.9h-13.5V63.6z M383.2,63.6
			h-14.3l-2-5.7h-15.3l-2.1,5.7h-13.8l17.2-40.7h13.8L383.2,63.6z M363.5,48.2l-4.2-11.9l-4.3,11.9H363.5z M413.5,22.9v20.9
			l-16.1-20.9h-11.3v40.7h12.2V42.8l16,20.8h11.3V22.9H413.5z"/>
	</defs>
	<clipPath id="SVGID_2_">
		<use xlink:href="#SVGID_1_"  style="overflow:visible;"/>
	</clipPath>
	<linearGradient id="SVGID_3_" gradientUnits="userSpaceOnUse" x1="115.4707" y1="13.299" x2="432.0909" y2="74.3235">
		<stop  offset="0" style="stop-color:#7C4DFF"/>
		<stop  offset="0.999" style="stop-color:#4DA3FA"/>
	</linearGradient>
	<rect x="109.7" y="8.2" class="st3" width="322.4" height="70.1"/>
</g>
</svg>
