<svg id="Layer_1" data-name="Layer 1" xmlns="http://www.w3.org/2000/svg" width="29.5" height="42.14" viewBox="0 0 29.5 42.14"><defs><style>.cls-1{fill:#6200ee;}.cls-2{fill:#fff;}.cls-3,.cls-4{fill:#651fff;}.cls-3{stroke:#040000;stroke-miterlimit:10;stroke-width:6px;}</style></defs><title>marker_hotel2</title><path class="cls-1" d="M15,.43A14.74,14.74,0,0,0,.25,15.18C.25,26.24,15,42.57,15,42.57S29.75,26.24,29.75,15.18A14.74,14.74,0,0,0,15,.43Z" transform="translate(-0.25 -0.43)"/><circle class="cls-2" cx="14.75" cy="14.95" r="11.94"/><path class="cls-3" d="M17.24,21.39" transform="translate(-0.25 -0.43)"/><path class="cls-3" d="M17.24,8.16" transform="translate(-0.25 -0.43)"/><path class="cls-4" d="M10,8.83V8a.07.07,0,0,1,0-.07L17.05,6.6h0L20.42,7a.06.06,0,0,1,0,.07V8a.07.07,0,0,1-.07.07l-3.33-.41L10.13,8.9A.07.07,0,0,1,10,8.83Z" transform="translate(-0.25 -0.43)"/><path class="cls-4" d="M22.15,21.06h-.79V9.49h.1a.06.06,0,0,0,.07-.06V8.56a.06.06,0,0,0,0-.06L17.05,8,8.26,9.62a.08.08,0,0,0-.06.07l0,.85a.07.07,0,0,0,.08.07l.16,0V21H7.85a.2.2,0,0,0-.2.2v.92a.2.2,0,0,0,.2.2H22.15a.2.2,0,0,0,.2-.2v-.92A.19.19,0,0,0,22.15,21.06ZM9.47,10.41,17.07,9V21.06H9.47Z" transform="translate(-0.25 -0.43)"/><polygon class="cls-4" points="11.53 19.63 9.71 19.63 9.71 17.99 11.53 17.93 11.53 19.63"/><polygon class="cls-4" points="13.84 19.63 12.03 19.63 12.03 17.91 13.84 17.86 13.84 19.63"/><polygon class="cls-4" points="16.16 19.63 14.34 19.63 14.34 17.84 16.16 17.79 16.16 19.63"/><polygon class="cls-4" points="11.53 17.14 9.71 17.19 9.71 15.5 11.53 15.4 11.53 17.14"/><polygon class="cls-4" points="13.84 17.07 12.03 17.12 12.03 15.37 13.84 15.25 13.84 17.07"/><polygon class="cls-4" points="16.16 17 14.34 17.06 14.34 15.22 16.16 15.1 16.16 17"/><polygon class="cls-4" points="11.53 14.65 9.71 14.79 9.71 13.03 11.53 12.79 11.53 14.65"/><polygon class="cls-4" points="13.84 14.47 12.03 14.62 12.03 12.74 13.84 12.52 13.84 14.47"/><polygon class="cls-4" points="16.16 14.33 14.34 14.43 14.34 12.46 16.16 12.29 16.16 14.33"/><polygon class="cls-4" points="11.53 12.1 9.71 12.33 9.71 10.63 11.53 10.34 11.53 12.1"/><polygon class="cls-4" points="13.84 11.81 12.03 12.04 12.03 10.27 13.84 9.98 13.84 11.81"/><polygon class="cls-4" points="16.16 11.52 14.34 11.75 14.34 9.9 16.16 9.61 16.16 11.52"/></svg>