<?xml version="1.0" encoding="utf-8"?>
<!-- Generator: Adobe Illustrator 23.0.1, SVG Export Plug-In . SVG Version: 6.00 Build 0)  -->
<svg version="1.1" id="f9f2371a-afe6-4352-8eeb-930fe3aa787f"
	 xmlns="http://www.w3.org/2000/svg" xmlns:xlink="http://www.w3.org/1999/xlink" x="0px" y="0px" viewBox="0 0 256 256"
	 style="enable-background:new 0 0 256 256;" xml:space="preserve">
<style type="text/css">
	.st0{fill:#7C4DFF;}
	.st1{fill:#FFFFFF;}
	.st2{fill:#FFFF99;}
	.st3{fill:#FDD835;}
	.st4{font-family:'Roboto-Bold';}
	.st5{font-size:48px;}
</style>
<g>
	<circle class="st0" cx="128" cy="128" r="123"/>
	<path class="st1" d="M128,10c31.5,0,61.2,12.3,83.4,34.6C233.7,66.8,246,96.5,246,128s-12.3,61.2-34.6,83.4
		C189.2,233.7,159.5,246,128,246s-61.2-12.3-83.4-34.6C22.3,189.2,10,159.5,10,128s12.3-61.2,34.6-83.4C66.8,22.3,96.5,10,128,10
		 M128,0C57.3,0,0,57.3,0,128s57.3,128,128,128s128-57.3,128-128S198.7,0,128,0L128,0z"/>
</g>
<title>mating</title>
<ellipse class="st2" cx="127.7" cy="74.2" rx="36.1" ry="36.1"/>
<path id="b89a4ac6-8c01-40c4-9608-cf399017e463" class="st3" d="M132.5,73.1L133,75h1.3l0.5-1.9H132.5z M127,73.1l-0.5,1.9h2.3
	l-0.5-1.9H127z M120.4,73.1l0.5,1.9h1.2l0.5-1.9H120.4z M115.5,62.2c1,0,1.8,0.6,2.2,1.4l1.7,5.7h4.8l1.7-5.7c0.3-0.8,1-1.4,1.8-1.4
	c0.9,0,1.6,0.6,1.8,1.4l1.7,5.7h4.8l1.7-5.7c0.3-0.8,1-1.4,1.8-1.4c1-0.1,1.9,0.7,1.9,1.7c0,0.3,0,0.5-0.1,0.8l-1.3,4.4h0.4
	c1.1-0.1,2,0.7,2.1,1.8c0.1,1.1-0.7,2-1.8,2.1c-0.1,0-0.2,0-0.3,0h-1.3l-0.5,1.9h0.4c1.1,0,2,0.9,2,1.9c0,1.1-0.9,2.1-2,2.2h-1.4
	l-1.7,5.7c-0.3,0.8-1,1.4-1.9,1.4s-1.6-0.6-1.8-1.4l-1.9-5.6h-4.8l-1.7,5.6c-0.3,0.8-0.9,1.3-1.7,1.4c-0.9,0-1.6-0.6-1.8-1.4
	l-1.7-5.7h-1.7c-1.1,0-1.9-0.9-1.9-1.9c0-1.1,0.9-2,1.9-2.1h0.2l-0.5-1.9h-1.7c-1.1,0.1-2-0.7-2.1-1.8c-0.1-1.1,0.7-2,1.8-2.1
	c0.1,0,0.2,0,0.3,0h0.4l-1.3-4.4c-0.4-0.9-0.1-1.9,0.8-2.4C114.9,62.3,115.2,62.2,115.5,62.2z M127.7,42.1
	c-17.7,0-32,14.4-31.9,32.1c0,17.7,14.4,32,32.1,31.9c17.6,0,31.9-14.3,31.9-31.9C159.7,56.5,145.3,42.2,127.7,42.1z"/>
<path class="st1" d="M151,124.2c9.7,0,17.5-7.8,17.5-17.5s-7.8-17.5-17.5-17.5s-17.5,7.8-17.5,17.5l0,0
	C133.5,116.4,141.3,124.2,151,124.2z M104.3,124.2c9.7,0,17.5-7.8,17.5-17.5s-7.8-17.5-17.5-17.5S86.8,97,86.8,106.7l0,0
	C86.8,116.4,94.7,124.2,104.3,124.2L104.3,124.2z M104.3,131.7c-13.7,0-40.8,6.8-40.8,20.4v14.6h81.7v-14.6
	C145.2,138.4,118,131.7,104.3,131.7L104.3,131.7z M151,131.7c-1.6,0-3.6,0.2-5.6,0.4c6.8,4.9,11.5,11.5,11.5,20.1v14.6h35v-14.6
	C191.8,138.4,164.7,131.7,151,131.7z"/>
<text transform="matrix(1 0 0 1 83.07 214.81)" class="st3 st4 st5">+3%</text>
</svg>
