<?xml version="1.0" encoding="utf-8"?>
<!-- Generator: Adobe Illustrator 23.0.1, SVG Export Plug-In . SVG Version: 6.00 Build 0)  -->
<svg version="1.1" id="ae641f29-d5d6-4a26-b06c-f3f3751ebce7"
	 xmlns="http://www.w3.org/2000/svg" xmlns:xlink="http://www.w3.org/1999/xlink" x="0px" y="0px" viewBox="0 0 45.7 42.2"
	 style="enable-background:new 0 0 45.7 42.2;" xml:space="preserve">
<style type="text/css">
	.st0{fill:#FFCC00;}
</style>
<title>mating_complete</title>
<g>
	<path class="st0" d="M20.4,18.7c0,0.4,0.3,0.6,0.7,0.7l0,0c0.5,0.1,0.9-0.3,0.8-0.8c-0.1-2.1,0.4-3.6,1.4-4.5
		c1.6-1.3,4.2-1.1,5.3-0.8c0.4,0.1,0.8-0.2,0.9-0.5l0,0c0.1-0.4-0.2-0.9-0.6-0.9c-1.4-0.3-4.6-0.6-6.6,1.1
		C20.8,14.2,20.2,16.1,20.4,18.7z"/>
	<path class="st0" d="M32.3,13.1c2.3,0.4,4.2,0.1,5.5-1.1c1.5-1.3,2-3.3,2.1-4.8c0.1-0.4-0.3-0.8-0.7-0.8l0,0
		c-0.4-0.1-0.8,0.3-0.8,0.7c-0.1,1.3-0.5,2.9-1.6,3.8c-1,0.8-2.4,1.1-4.3,0.8c-0.4-0.1-0.8,0.2-0.9,0.6l0,0
		C31.6,12.7,31.9,13,32.3,13.1z"/>
	<path class="st0" d="M43.7,23.5c-1.2-0.9-3.9-2.5-6.5-1.7c-2.1,0.6-3.6,2.5-4.6,5.5l0.7,0.2l-0.7-0.2c0,0.1-1.2,3.8-3.8,4.7
		c-1.1,0.3-2.3,0.1-3.6-0.7c-0.3-0.2-0.7-0.1-0.9,0.2l0,0c-0.3,0.4-0.2,0.9,0.2,1.1c1.7,1,3.3,1.2,4.8,0.8c3.4-1,4.8-5.4,4.9-5.6
		l0,0c0.8-2.6,1.9-4.1,3.5-4.6c2-0.6,4.2,0.8,5.2,1.5c0.3,0.2,0.7,0.2,1-0.1l0,0C44.1,24.2,44.1,23.7,43.7,23.5z"/>
	<path class="st0" d="M14.3,19.8C14.3,19.8,14.3,19.8,14.3,19.8c0.3-0.2,0.4-0.6,0.3-0.9c-0.6-1.4-0.7-2.6-0.3-3.6
		c1.1-2.6,5-3.3,5-3.3l-0.2-0.7l0.2,0.7c3.2-0.6,5.2-1.9,6.1-3.9c1-2.5-0.3-5.4-1-6.7c-0.2-0.4-0.7-0.5-1.1-0.3l0,0
		c-0.3,0.2-0.4,0.6-0.2,1c0.6,1.1,1.6,3.4,0.9,5.3c-0.6,1.5-2.3,2.5-4.9,3l0,0c-0.2,0.1-4.8,0.9-6.2,4.2c-0.6,1.4-0.5,3,0.3,4.8
		C13.3,19.9,13.9,20,14.3,19.8z"/>
	<path class="st0" d="M33.3,16.3c0.4,0,0.6-0.2,0.7-0.5c0,0,0,0,0-0.1c0.2-0.5-0.2-0.9-0.7-1c-1.5-0.1-3.5,0.1-4.9,1.4
		c-1,0.9-1.6,2.2-1.8,3.7c-0.1,0.5,0.3,0.8,0.7,0.8l0,0c0.4,0,0.7-0.3,0.8-0.6c0.2-1.2,0.6-2.2,1.3-2.8C30.5,16.4,32,16.2,33.3,16.3
		z"/>
	<path class="st0" d="M31.1,22.7c-0.4-0.1-0.8,0.2-0.9,0.6c-0.2,1-0.6,1.9-1.4,2.7c-1.1,1-2.8,1.2-5.1,0.6c-0.4-0.1-0.8,0.2-0.9,0.5
		l0,0c-0.1,0.4,0.2,0.8,0.6,0.9c2.7,0.7,4.9,0.4,6.4-0.9c1.1-0.9,1.6-2.3,1.9-3.5C31.8,23.3,31.5,22.8,31.1,22.7
		C31.1,22.7,31.1,22.7,31.1,22.7z"/>
	<path class="st0" d="M21.7,30.3c-0.5-0.8-0.6-1.7-0.2-2.6l1.4-3.3c0.9-2.1-1-4.3-3.2-3.7l-3.5,0.9c-0.9,0.2-1.8,0-2.5-0.6l-2.8-2.4
		c-1.7-1.5-4.4-0.4-4.6,1.9l-0.2,3.6c-0.1,0.9-0.6,1.7-1.3,2.2l-3.1,1.8c-1.9,1.2-1.7,4.1,0.4,4.9l3.4,1.3c0.8,0.3,1.5,1.1,1.7,1.9
		L8,40c0.5,2.2,3.3,2.9,4.8,1.1l2.3-2.8c0.6-0.7,1.4-1.1,2.4-1l3.6,0.3c2.3,0.2,3.8-2.3,2.6-4.2L21.7,30.3z"/>
</g>
</svg>
