<svg id="ff2e6f6d-18f2-4767-b5d9-0ce9333c014f" data-name="f9f2371a-afe6-4352-8eeb-930fe3aa787f" xmlns="http://www.w3.org/2000/svg" width="256" height="256" viewBox="0 0 256 256"><defs><style>.b454a90e-0fb6-478d-ada4-ae5a0c04425f{fill:#7c4dff;}.b092f757-513d-42f2-b84d-27622b642ecb{fill:#fff;}.ecf69842-69d5-4c03-ba2f-5748c7006bfb{fill:#ff9;}.ba5e851e-352a-4ccb-8b61-3bc167e3ed40,.e00a1317-ed6d-49b3-a8ba-77dd8e57c616{fill:#fdd835;}.e00a1317-ed6d-49b3-a8ba-77dd8e57c616{isolation:isolate;font-size:48px;font-family:Roboto-Bold, Roboto;font-weight:700;}</style></defs><title>mating_exp2</title><circle class="b454a90e-0fb6-478d-ada4-ae5a0c04425f" cx="128" cy="128" r="123"/><path class="b092f757-513d-42f2-b84d-27622b642ecb" d="M128,10A118.13,118.13,0,0,1,246,128,118.13,118.13,0,0,1,128,246,118.13,118.13,0,0,1,10,128,118.13,118.13,0,0,1,128,10m0-10A128,128,0,1,0,256,128,128,128,0,0,0,128,0Z"/><circle class="ecf69842-69d5-4c03-ba2f-5748c7006bfb" cx="127.7" cy="74.2" r="36.1"/><path id="b684f354-28e4-4da1-8d24-00aa5f3215c7" data-name="b89a4ac6-8c01-40c4-9608-cf399017e463" class="ba5e851e-352a-4ccb-8b61-3bc167e3ed40" d="M132.5,73.1,133,75h1.3l.5-1.9Zm-5.5,0-.5,1.9h2.3l-.5-1.9Zm-6.6,0,.5,1.9h1.2l.5-1.9Zm-4.9-10.9a2.46,2.46,0,0,1,2.2,1.4l1.7,5.7h4.8l1.7-5.7a2,2,0,0,1,1.8-1.4,1.83,1.83,0,0,1,1.8,1.4l1.7,5.7H136l1.7-5.7a2,2,0,0,1,1.8-1.4,1.74,1.74,0,0,1,1.9,1.7,2.2,2.2,0,0,1-.1.8L140,69.1h.4a2,2,0,0,1,.3,3.9h-1.6l-.5,1.9h.4a2,2,0,0,1,2,1.9,2.26,2.26,0,0,1-2,2.2h-1.4l-1.7,5.7a2,2,0,0,1-1.9,1.4,1.83,1.83,0,0,1-1.8-1.4l-1.9-5.6h-4.8l-1.7,5.6a2,2,0,0,1-1.7,1.4,1.83,1.83,0,0,1-1.8-1.4L118.6,79h-1.7a1.9,1.9,0,0,1-1.9-1.9,2.16,2.16,0,0,1,1.9-2.1h.2l-.5-1.9h-1.7a2,2,0,1,1-.3-3.9h.7L114,64.8a1.82,1.82,0,0,1,.8-2.4A1.17,1.17,0,0,1,115.5,62.2Zm12.2-20.1a32,32,0,1,0,32.1,32.1A32.33,32.33,0,0,0,127.7,42.1Z"/><path class="b092f757-513d-42f2-b84d-27622b642ecb" d="M151,124.2a17.5,17.5,0,1,0-17.5-17.5h0A17.46,17.46,0,0,0,151,124.2Zm-46.7,0a17.5,17.5,0,1,0-17.5-17.5h0a17.52,17.52,0,0,0,17.5,17.5Zm0,7.5c-13.7,0-40.8,6.8-40.8,20.4v14.6h81.7V152.1c0-13.7-27.2-20.4-40.9-20.4Zm46.7,0c-1.6,0-3.6.2-5.6.4,6.8,4.9,11.5,11.5,11.5,20.1v14.6h35V152.2C191.8,138.4,164.7,131.7,151,131.7Z"/><text class="e00a1317-ed6d-49b3-a8ba-77dd8e57c616" transform="translate(83.07 214.81)">+3%</text></svg>