<?xml version="1.0" encoding="utf-8"?>
<!-- Generator: Adobe Illustrator 21.1.0, SVG Export Plug-In . SVG Version: 6.00 Build 0)  -->
<svg version="1.1" id="Layer_1" xmlns="http://www.w3.org/2000/svg" xmlns:xlink="http://www.w3.org/1999/xlink" x="0px" y="0px"
	 viewBox="0 0 128 120" style="enable-background:new 0 0 128 120;" xml:space="preserve">
<style type="text/css">
	.user{fill:#00695C;}
	.plus{fill:#FFFFFF;}
	.cash{fill:#FFEC00;}
</style>
<path class="user" d="M69.3,93c-10.7,0-32,5.3-32,16v10.7h64V109C101.3,98.4,80,93,69.3,93z M104.6,93.9c4.4,3.9,7.4,8.9,7.4,15.1
	v10.7h16V109C128,100.8,115.4,95.8,104.6,93.9z M69.3,82.4c8.9,0,15.9-7.1,15.9-16s-7.1-16-15.9-16c-8.9,0-16,7.1-16,16
	S60.5,82.4,69.3,82.4z M96,82.4c8.9,0,15.9-7.1,15.9-16s-7.1-16-15.9-16c-1.7,0-3.4,0.3-4.9,0.7c3,4.3,4.8,9.5,4.8,15.3
	c0,5.7-1.8,10.9-4.8,15.3C92.6,82.1,94.3,82.4,96,82.4z"/>
<polygon class="plus" points="42.7,77 26.7,77 26.7,61 16,61 16,77 0,77 0,87.7 16,87.7 16,103.7 26.7,103.7 26.7,87.7 42.7,87.7 "/>
<path class="cash" d="M68.3,20.3l0.5,1.8H70l0.5-1.8H68.3z M63.4,20.3l-0.5,1.8h2.2l-0.5-1.8H63.4z M57.4,20.3l0.5,1.8h1.1l0.5-1.8
	H57.4z M52.9,10.3c0.8,0,1.7,0.5,2,1.3l1.5,5.1h4.4l1.5-5.1c0.2-0.7,1-1.3,1.7-1.3s1.5,0.5,1.7,1.3l1.5,5.1h4.4l1.5-5.1
	c0.2-0.8,0.9-1.2,1.7-1.3c1.2-0.1,2.2,1.2,1.7,2.3l-1.2,4h0.4c1,0,1.8,0.8,1.8,1.8c0,1-0.8,1.8-1.8,1.8h-1.5l-0.5,1.8H74
	c1,0,1.8,0.8,1.8,1.8S75,25.7,74,25.7h-1.3l-1.5,5.1c-0.2,0.7-1,1.3-1.7,1.3c-0.8,0-1.5-0.6-1.7-1.3l-1.5-5.1h-4.4l-1.5,5.1
	c-0.2,0.7-1,1.3-1.7,1.3c-0.8,0-1.5-0.6-1.7-1.3l-1.5-5.1H54c-1,0-1.8-0.8-1.8-1.8s0.8-1.8,1.8-1.8h0.2l-0.5-1.8h-1.5
	c-1,0-1.8-0.8-1.8-1.8c0-1,0.8-1.8,1.8-1.8h0.4l-1.2-4C51,11.6,51.8,10.4,52.9,10.3z M64,0.3c-11,0-20,9-20,20c0,11,9,20,20,20
	s20-9,20-20C84,9.2,75,0.3,64,0.3z"/>
</svg>
