<?xml version="1.0" encoding="utf-8"?>
<!-- Generator: Adobe Illustrator 21.1.0, SVG Export Plug-In . SVG Version: 6.00 Build 0)  -->
<svg version="1.1" id="Layer_1" xmlns="http://www.w3.org/2000/svg" xmlns:xlink="http://www.w3.org/1999/xlink" x="0px" y="0px"
	 viewBox="0 0 96 96" style="enable-background:new 0 0 96 96;" xml:space="preserve">
<style type="text/css">
	.st0{fill:#FFFF99;}
	.st1{fill:#FDD835;}
	.st2{fill:#FFFFFF;}
	.st3{fill:#7C4DFF;}
</style>
<g>
	<circle class="st0" cx="48" cy="52" r="36"/>
	<path id="cash" class="st1" d="M51.7,59.2l0.4,1.5h1l0.4-1.5H51.7z M47.5,59.2l-0.4,1.5h1.8l-0.4-1.5H47.5z M42.4,59.2l0.4,1.5h0.9
		l0.4-1.5H42.4z M38.6,50.8c0.7,0,1.4,0.4,1.7,1.1l1.3,4.4h3.7l1.3-4.4c0.2-0.6,0.8-1.1,1.4-1.1s1.3,0.4,1.4,1.1l1.3,4.4h3.7
		l1.3-4.4c0.2-0.7,0.8-1,1.4-1.1c1-0.1,1.8,1,1.4,1.9l-1,3.4h0.3c0.8,0,1.5,0.7,1.5,1.5s-0.7,1.5-1.5,1.5h-1l-0.4,1.5h0.3
		c0.8,0,1.5,0.7,1.5,1.5s-0.7,1.7-1.5,1.7h-1.1l-1.3,4.4c-0.2,0.6-0.8,1.1-1.4,1.1c-0.7,0-1.3-0.5-1.4-1.1L50,63.9h-3.7L45,68.2
		c-0.2,0.6-0.8,1.1-1.4,1.1c-0.7,0-1.3-0.5-1.4-1.1l-1.3-4.4h-1.3c-0.8,0-1.5-0.7-1.5-1.5c0-0.8,0.7-1.6,1.5-1.6h0.2l-0.4-1.5h-1.3
		c-0.8,0-1.5-0.7-1.5-1.5s0.7-1.5,1.5-1.5h0.3l-1-3.4C37,51.8,37.6,50.8,38.6,50.8z M48,20c-17.6,0-32,14.4-32,32s14.4,32,32,32
		s32-14.4,32-32S65.7,20,48,20z"/>
</g>
<g>
	<circle class="st2" cx="47.6" cy="18.1" r="6"/>
	<g id="marker">
		<path class="st3" d="M46.4,44c-0.6-0.6-13.7-15.2-13.7-25.7c0.1-8.2,6.8-14.8,14.9-14.8c8.2,0,14.9,6.6,14.9,14.8
			c0,10.4-13.2,25.1-13.7,25.7l-1.1,1.2L46.4,44z M47.6,15.1c-1.8,0-3.3,1.5-3.3,3.3s1.5,3.3,3.3,3.3c1.8,0,3.3-1.5,3.3-3.3
			C50.8,16.6,49.3,15.1,47.6,15.1z"/>
		<path class="st2" d="M47.6,5C47.6,5,47.6,5,47.6,5C47.6,5,47.6,5,47.6,5 M47.6,5c7.4,0,13.4,6,13.4,13.3
			c0,9.9-13.4,24.7-13.4,24.7S34.2,28.3,34.2,18.3C34.3,11,40.2,5,47.6,5 M47.6,23.2c2.7,0,4.8-2.2,4.8-4.8c0-2.6-2.2-4.8-4.8-4.8
			s-4.8,2.2-4.8,4.8C42.8,21,45,23.2,47.6,23.2 M47.6,2L47.6,2c-9,0-16.3,7.3-16.4,16.2c0,4.8,2.4,10.8,7.2,17.8
			c3.4,5,6.8,8.8,6.9,8.9l2.2,2.4l2.2-2.5c0.1-0.2,3.5-3.9,6.9-9c4.8-7.1,7.2-13,7.2-17.8C63.9,9.4,56.6,2.1,47.6,2L47.6,2L47.6,2z
			 M47.6,20.2c-0.9,0-1.8-0.8-1.8-1.8s0.8-1.8,1.8-1.8s1.8,0.8,1.8,1.8C49.3,19.4,48.5,20.2,47.6,20.2L47.6,20.2z"/>
	</g>
</g>
</svg>
