<?xml version="1.0" encoding="utf-8"?>
<!-- Generator: Adobe Illustrator 21.1.0, SVG Export Plug-In . SVG Version: 6.00 Build 0)  -->
<svg version="1.1" id="Layer_1" xmlns="http://www.w3.org/2000/svg" xmlns:xlink="http://www.w3.org/1999/xlink" x="0px" y="0px"
	 viewBox="0 0 96 96" style="enable-background:new 0 0 96 96;" xml:space="preserve">
<style type="text/css">
	.st0{fill:none;}
	.st1{fill:#7C4DFF;stroke:#FFFFFF;stroke-width:4;stroke-miterlimit:10;}
	.st2{fill:#FFFFFF;}
	.st3{fill:#4DA3FA;}
</style>
<path class="st0" d="M39.5,11h17v17h-17V11z"/>
<path class="st0" d="M36,61.8h24v24H36V61.8z"/>
<path class="st0" d="M36.7,65h24v24h-24V65z"/>
<g>
	<path class="st1" d="M48.7,1.4c-15.2,0-27.5,12.3-27.5,27.5l0,0c0,20.6,27.5,51.2,27.5,51.2S76.2,49.6,76.2,29
		C76.2,13.8,63.9,1.5,48.7,1.4C48.8,1.4,48.8,1.4,48.7,1.4L48.7,1.4z"/>
	<path class="st2" d="M51,12.3c0,0,1.1,4,1.1,7.3c0,3.1-2.1,5.7-5.2,5.7c-3.1,0-5.5-2.5-5.5-5.7v-0.5c-3.1,3.6-4.9,8.4-4.9,13.5
		c0,6.7,5.4,12.2,12.2,12.2s12.2-5.4,12.2-12.2C60.9,24.4,56.9,17,51,12.3z M48.3,40.1c-2.7,0-4.9-2.1-4.9-4.8
		c0-2.5,1.6-4.2,4.3-4.7s5.5-1.8,7-3.9c0.6,2,0.9,4,0.9,6.1C55.6,36.9,52.3,40.1,48.3,40.1z"/>
	<path class="st0" d="M33.4,17.1h30.7v30.7H33.4V17.1z"/>
</g>
<path class="st3" d="M60.8,63.5c5.3,0,9.6-4.3,9.6-9.6s-4.3-9.6-9.6-9.6s-9.6,4.3-9.6,9.6S55.5,63.5,60.8,63.5z M35.2,63.5
	c5.3,0,9.6-4.3,9.6-9.6s-4.3-9.6-9.6-9.6s-9.6,4.3-9.6,9.6S29.9,63.5,35.2,63.5z M35.2,69.9c-7.5,0-22.4,3.7-22.4,11.2v8h44.8v-8
	C57.6,73.6,42.7,69.9,35.2,69.9z M60.8,69.9c-0.9,0-2,0.1-3.1,0.2c3.7,2.7,6.3,6.3,6.3,11v8h19.2v-8C83.2,73.6,68.3,69.9,60.8,69.9z
	"/>
</svg>
