<?xml version="1.0" encoding="utf-8"?>
<!-- Generator: Adobe Illustrator 21.1.0, SVG Export Plug-In . SVG Version: 6.00 Build 0)  -->
<svg version="1.1" id="Layer_1" xmlns="http://www.w3.org/2000/svg" xmlns:xlink="http://www.w3.org/1999/xlink" x="0px" y="0px"
	 viewBox="0 0 96 96" style="enable-background:new 0 0 96 96;" xml:space="preserve">
<style type="text/css">
	.st0{fill:#7C4DFF;}
	.st1{fill:#FFFFFF;}
	.st2{fill:none;stroke:#7C4DFF;stroke-width:2;stroke-miterlimit:10;}
</style>
<g>
	<g>
		<circle class="st0" cx="45.3" cy="48.3" r="16.3"/>
		<g>
			<path class="st1" d="M55.4,46.2c-0.2,0-0.3,0-0.5,0.1c-0.6-4.4-4.6-8.1-9.6-8.1s-9.1,3.7-9.6,8.1c-0.2-0.1-0.3-0.1-0.5-0.1
				C34,46.2,33,47,33,48.5c0,1.5,1.4,3,2.6,3c0.2,0,0.4,0,0.6-0.1c1.4,4.1,4.9,7,9,7s7.6-2.9,9-7c0.2,0.1,0.4,0.2,0.6,0.1
				c1.2,0,2.6-1.6,2.6-3C57.5,47,56.6,46.2,55.4,46.2z M35.6,50.9c-0.7,0-1.5-0.9-1.5-1.8s0.5-1.3,1.2-1.3c0.1,0,0.2,0,0.3,0
				c0,1,0.2,2,0.5,2.9C35.9,50.9,35.8,50.9,35.6,50.9z M50.9,52.2c0,0.1,0,0.3,0,0.4c0,2.5-3.1,4.6-5.6,4.6s-5.6-2.1-5.6-4.6
				c0-0.1,0-0.3,0-0.4c-0.8-0.8-1.4-2-1.4-3.4c0-2.4,1.6-4.3,3.5-4.3c1.7,0,3.1,1.5,3.4,3.5h0.1c0.3-2,1.7-3.5,3.4-3.5
				c1.9,0,3.5,1.9,3.5,4.3C52.2,50.2,51.7,51.4,50.9,52.2L50.9,52.2z M54.9,50.9c-0.2,0-0.3,0-0.5-0.1c0.3-0.9,0.4-1.9,0.5-2.9
				c0.1,0,0.2,0,0.3,0c0.7,0,1.2,0.5,1.2,1.3S55.6,50.9,54.9,50.9z"/>
			<circle class="st1" cx="41.8" cy="48.1" r="1.1"/>
			<circle class="st1" cx="48.7" cy="48.1" r="1.1"/>
			<path class="st1" d="M41.8,52.6c0,1.9,1.5,3.4,3.4,3.4c1.9,0,3.4-1.5,3.4-3.4"/>
		</g>
	</g>
	<g>
		<circle class="st0" cx="18.5" cy="71.9" r="5"/>
		<path class="st0" d="M18.4,61c-7.7,0-14,6.3-14,14s6.3,14,14,14s14-6.3,14-14S26.2,61,18.4,61z M26.7,83.8c-1-2.8-3.3-5.7-8.2-5.7
			c-4.9,0-7.2,2.9-8.2,5.7c-2.4-2.2-3.9-5.4-3.9-8.8c0-6.7,5.4-12.1,12.1-12.1S30.5,68.3,30.5,75C30.5,78.5,29,81.6,26.7,83.8z"/>
	</g>
	<g>
		<circle class="st0" cx="19.8" cy="16.9" r="5"/>
		<path class="st0" d="M19.8,6c-7.7,0-14,6.3-14,14s6.3,14,14,14s14-6.3,14-14S27.5,6,19.8,6z M28,28.8c-1-2.8-3.3-5.7-8.2-5.7
			c-4.9,0-7.2,2.9-8.2,5.7c-2.4-2.2-3.9-5.4-3.9-8.8c0-6.7,5.4-12.1,12.1-12.1S31.9,13.3,31.9,20C31.9,23.5,30.4,26.6,28,28.8z"/>
	</g>
	<g>
		<circle class="st0" cx="77.6" cy="59.9" r="5"/>
		<path class="st0" d="M77.6,49c-7.7,0-14,6.3-14,14s6.3,14,14,14s14-6.3,14-14S85.3,49,77.6,49z M85.8,71.8c-1-2.8-3.3-5.7-8.2-5.7
			c-4.9,0-7.2,2.9-8.2,5.7c-2.4-2.2-3.9-5.4-3.9-8.8c0-6.7,5.4-12.1,12.1-12.1S89.7,56.3,89.7,63C89.7,66.5,88.1,69.6,85.8,71.8z"/>
	</g>
	<line class="st2" x1="28.1" y1="66" x2="38" y2="56"/>
	<line class="st2" x1="27.8" y1="30.6" x2="35.6" y2="38.3"/>
	<line class="st2" x1="55.4" y1="53.8" x2="65" y2="58"/>
</g>
</svg>
