<svg id="Layer_1" data-name="Layer 1" xmlns="http://www.w3.org/2000/svg" viewBox="0 0 626.92 136.58"><defs><style>.cls-1{fill:#8480f7;}.cls-2{fill:#d7d7ff;}</style></defs><title>logo_ver3</title><path class="cls-1" d="M194.76,108.35a35.12,35.12,0,0,1-14.28,14.28A47.21,47.21,0,0,1,159.23,128h-3.77V108.89h3.77c13.9-.72,20.85-8.32,20.85-22.94V7.71h19.76V86.35Q199.83,99.08,194.76,108.35Z" transform="translate(0)"/><path class="cls-1" d="M269.82,47.65V106.8H252.63l-1.35-9.48a23.26,23.26,0,0,1-8.73,9,25.49,25.49,0,0,1-13.2,3.32,19.17,19.17,0,0,1-13.54-5,17,17,0,0,1-5.55-12.72V47.65h18.95V84.87q.41,8.67,8,8.66,6.22,0,9.95-6.09t3.72-15.7V47.65Z" transform="translate(0)"/><path class="cls-1" d="M331.42,49.81a16.73,16.73,0,0,1,5.75,12.72V106.8H318.22V69.57q-.41-8.66-8.66-8.66-6.5,0-10.42,6.09t-3.93,15.7V106.8H276.26V47.65h17.19l1.35,9.47a23.18,23.18,0,0,1,9-9.07,27.21,27.21,0,0,1,13.6-3.25A20.29,20.29,0,0,1,331.42,49.81Z" transform="translate(0)"/><path class="cls-1" d="M415.56,47.65V106.8a25.89,25.89,0,0,1-4.8,15.23,32.39,32.39,0,0,1-13,10.69,41.25,41.25,0,0,1-17.8,3.86,42,42,0,0,1-12.79-1.76,37,37,0,0,1-8.8-3.93,92.76,92.76,0,0,1-7.92-6l11.1-13a39.74,39.74,0,0,0,8.05,6,21,21,0,0,0,10.08,2.17,19.78,19.78,0,0,0,12-3.59,11.66,11.66,0,0,0,4.87-10V98.13a19.54,19.54,0,0,1-8.32,7.44,30.19,30.19,0,0,1-13.74,2.84,28.15,28.15,0,0,1-14.82-4.13,30.32,30.32,0,0,1-10.9-11.37A33.65,33.65,0,0,1,349,60.5a31.66,31.66,0,0,1,11.23-11.64A28.05,28.05,0,0,1,375,44.67a37.39,37.39,0,0,1,13,2.1,21,21,0,0,1,8.66,5.48l1.49-4.6ZM396.61,84.06V69.57a14.77,14.77,0,0,0-6.29-6.9,19.62,19.62,0,0,0-10.08-2.57,16.07,16.07,0,0,0-11.64,4.6,15.54,15.54,0,0,0-4.74,11.64,16.21,16.21,0,0,0,4.74,11.84A15.7,15.7,0,0,0,380.23,93Q391.6,93,396.61,84.06Z" transform="translate(0)"/><path class="cls-1" d="M445.51,0V106.8H426.56V0Z" transform="translate(0)"/><path class="cls-1" d="M463.62,19.83a10.71,10.71,0,0,1,7.24-2.77,10.3,10.3,0,0,1,7,2.77A8.8,8.8,0,0,1,481,26.67a8.6,8.6,0,0,1-3.11,6.77,10.43,10.43,0,0,1-7,2.71,10.85,10.85,0,0,1-7.24-2.71,8.52,8.52,0,0,1-3.18-6.77A8.72,8.72,0,0,1,463.62,19.83ZM479.8,47.65V106.8H460.85V47.65Z" transform="translate(0)"/><path class="cls-1" d="M556.11,48.18v59.15H537.16V100Q528.63,109,517.4,109q-13.13,0-21.32-7.85t-8.19-23.28a35.42,35.42,0,0,1,4-17.12,29.59,29.59,0,0,1,10.63-11.44,26.74,26.74,0,0,1,14.21-4.06q7.85,0,12.45,2.37a25.48,25.48,0,0,1,8.12,6.7l1.22-6.09ZM537.16,84.59V70.11a13.82,13.82,0,0,0-5.62-6.9,17,17,0,0,0-9.41-2.57,14.17,14.17,0,0,0-10.62,4.6,16.17,16.17,0,0,0-4.4,11.64,17,17,0,0,0,2.17,8.46,16,16,0,0,0,5.75,6,14.78,14.78,0,0,0,7.78,2.17Q532.69,93.53,537.16,84.59Z" transform="translate(0)"/><path class="cls-1" d="M621.17,50.35a16.73,16.73,0,0,1,5.75,12.72v44.26H608V70.11q-.41-8.66-8.66-8.66-6.5,0-10.42,6.09T585,83.24v24.09H566V48.18H583.2l1.35,9.47a23.18,23.18,0,0,1,9-9.07,27.21,27.21,0,0,1,13.6-3.25A20.29,20.29,0,0,1,621.17,50.35Z" transform="translate(0)"/><path class="cls-2" d="M77.52,66.31h-.73C74.94,53.61,66,44,55.17,44c-12.14,0-22,12.16-22,27.16,0,8.8,3.4,16.6,8.66,21.56a23.76,23.76,0,0,0-.14,2.45C41.71,111.06,61.2,124,77.15,124s35.45-12.91,35.45-28.84a23.56,23.56,0,0,0-.14-2.45c5.25-5,8.65-12.76,8.65-21.56,0-15-9.84-27.16-22-27.16C88.33,44,79.36,53.61,77.52,66.31Z" transform="translate(0)"/><path class="cls-1" d="M141,54.54a10.78,10.78,0,0,0-3.25.52C134.27,27.36,108.47,4.25,77.15,4.25S20,27.36,16.56,55.07a10.78,10.78,0,0,0-3.25-.52C6,54.54,0,59.58,0,68.79s9,19.1,16.38,19.1a8.62,8.62,0,0,0,4-.94c8.93,25.79,31,44,56.75,44s47.82-18.25,56.75-44a8.63,8.63,0,0,0,4,.94c7.35,0,16.38-9.9,16.38-19.1S148.35,54.54,141,54.54ZM16.25,84c-4.27,0-9.5-5.8-9.5-11.19s3.46-8.35,7.72-8.35a6.2,6.2,0,0,1,1.76.26,78.05,78.05,0,0,0,3,18.36A4.82,4.82,0,0,1,16.25,84Zm96.21,8.35a23.54,23.54,0,0,1,.14,2.45c0,15.92-19.49,28.84-35.45,28.84S41.71,110.7,41.71,94.77a23.76,23.76,0,0,1,.14-2.45c-5.25-5-8.66-12.76-8.66-21.56,0-15,9.84-27.16,22-27.16,10.81,0,19.77,9.64,21.62,22.34h.73C79.36,53.25,88.33,43.6,99.13,43.6c12.14,0,22,12.16,22,27.16C121.12,79.56,117.72,87.36,112.46,92.32ZM138.06,84a4.82,4.82,0,0,1-2.93-.92,78.06,78.06,0,0,0,2.95-18.36,6.19,6.19,0,0,1,1.76-.26c4.27,0,7.72,3,7.72,8.35S142.32,84,138.06,84Z" transform="translate(0)"/><circle class="cls-1" cx="55.44" cy="66.31" r="7"/><circle class="cls-1" cx="98.86" cy="66.31" r="7"/><path class="cls-1" d="M55.45,94.84a21.71,21.71,0,0,0,43.42,0" transform="translate(0)"/></svg>