<?xml version="1.0" encoding="utf-8"?>
<!-- Generator: Adobe Illustrator 21.1.0, SVG Export Plug-In . SVG Version: 6.00 Build 0)  -->
<svg version="1.1" id="Layer_1" xmlns="http://www.w3.org/2000/svg" xmlns:xlink="http://www.w3.org/1999/xlink" x="0px" y="0px"
	 viewBox="0 0 168 144" style="enable-background:new 0 0 168 144;" xml:space="preserve">
<style type="text/css">
	.st0{fill:none;}
	.st1{fill:#887DFF;}
	.st2{fill:none;stroke:#7C4DFF;stroke-width:2;stroke-miterlimit:10;}
	.st3{fill:#FFFFFF;}
	.st4{fill:#7C4DFF;}
</style>
<title>map</title>
<g>
	<g>
		<path class="st0" d="M144,65.8L111.7,76L74.6,61.1L94.5,26h39.6L144,65.8z M22.1,71.7L33.5,26h61L74.6,61.1L111.7,76l32.4-10.2
			l10.5,42.2H13.1L22.1,71.7l52.5-10.5L22.1,71.7z"/>
		<g>
			<path class="st1" d="M144,65.8L111.7,76L74.6,61.1L94.5,26h39.6L144,65.8z M22.1,71.7L33.5,26h61L74.6,61.1L111.7,76l32.4-10.2
				l10.5,42.2H13.1L22.1,71.7l52.5-10.5L22.1,71.7z"/>
		</g>
		<path class="st2" d="M144.2,65.8L111.9,76L74.8,61.1L94.7,26h39.6L144.2,65.8z M22.3,71.7L33.7,26h61L74.8,61.1L111.9,76
			l32.4-10.2l10.5,42.2H13.2L22.3,71.7l52.5-10.5L22.3,71.7z"/>
	</g>
	<path class="st3" d="M80.1,82.9c-1.7,0-3.2-1.3-3.2-3.2s1.3-3.2,3.2-3.2c1.8,0,3.2,1.3,3.2,3.2S81.9,82.9,80.1,82.9z M80.1,71.1
		c-4.8,0-8.6,3.8-8.6,8.6c0,6.5,8.6,16.3,8.6,16.3s8.6-9.6,8.6-16.3C88.9,74.9,85.1,71.1,80.1,71.1z"/>
	<path class="st3" d="M73.1,40.8c-1.3,0-2.4-1-2.4-2.4s1-2.4,2.4-2.4s2.4,1,2.4,2.4S74.5,40.8,73.1,40.8z M73.1,31.7
		c-3.7,0-6.7,3-6.7,6.7c0,5,6.7,12.6,6.7,12.6s6.7-7.5,6.7-12.6C79.9,34.6,77,31.7,73.1,31.7z"/>
	<path class="st3" d="M116.2,50.4c-1.4,0-2.6-1.1-2.6-2.6c0-1.5,1.1-2.6,2.6-2.6s2.6,1.1,2.6,2.6S117.8,50.4,116.2,50.4z
		 M116.2,40.5c-4,0-7.2,3.2-7.2,7.2c0,5.4,7.2,13.6,7.2,13.6s7.2-8,7.2-13.6C123.6,43.7,120.4,40.5,116.2,40.5z"/>
	<g>
		<circle class="st4" cx="46.8" cy="88.6" r="14.7"/>
		<path class="st3" d="M43.7,89.8c0.9,0.9,2,1.3,3.1,1.3s2.2-0.5,3.1-1.3l-0.6,1.5c0.2-0.4,1-0.5,2-0.4c-0.1,0.9-1.2,1.7-2.7,2
			l-1.7,2.7L45,92.9c-1.2-0.2-2.2-0.9-2.6-1.6c1,0.1,1.8,0.2,2.1,0.6L43.7,89.8z M51.3,83.5L51.3,83.5h0.4c0,0.2,0,0.5,0,0.7
			c-0.1,1.2-0.4,2.5-0.9,3.4c-0.9,1.7-2.3,2.9-3.9,2.9c-2.4,0-4.4-2.7-4.8-6.1c0,0,2-0.4,3.1-0.7c0,0,2.1-0.7,4.7-2.6l0,0
			c0,0,0,0.1,0.1,0.1c0.2,0.4,0.7,1.5-0.2,2.1L51.3,83.5z M46.8,75.2c7.5,0,13.5,6,13.5,13.5c0,2.9-1,5.8-2.6,8
			c-0.5-2.7-2.5-4.8-4.9-5.6c1.2,0.1,2.3,0.4,2.3,0.4c-2.5-1.3-2.5-6.2-2.5-6.2c0.5-9.4-5.8-8.9-5.8-8.9l0,0l0,0
			c0,0-6.2-0.5-5.8,8.9c0,0,0.1,4.9-2.5,6.2c0,0,0.6,0,1.6-0.1c-2.2,1-3.8,2.9-4.2,5.4c-1.6-2.2-2.6-5-2.6-8
			C33.3,81.2,39.3,75.2,46.8,75.2z M46.8,73.9c-8.1,0-14.7,6.6-14.7,14.7s6.6,14.7,14.7,14.7s14.7-6.6,14.7-14.7
			S54.8,73.9,46.8,73.9z"/>
	</g>
	<g>
		<circle class="st4" cx="124.3" cy="75.5" r="12"/>
		<g>
			<path class="st3" d="M124.3,64.5c6.1,0,11,4.9,11,11c0,2.4-0.8,4.6-2.1,6.4c-0.2-2.9-2.4-5.3-5.3-5.5c0,1.1-1.6,1.9-3.6,1.9
				s-3.6-0.9-3.6-1.9c-2.9,0.3-5.2,2.6-5.3,5.5c-1.3-1.8-2.1-4-2.1-6.4C113.3,69.4,118.2,64.5,124.3,64.5z M124.3,63.5
				c-6.6,0-12,5.4-12,12s5.4,12,12,12s12-5.4,12-12S130.9,63.5,124.3,63.5z"/>
			<path class="st3" d="M121.3,68.6c0,0,3.1,1.5,5.2,0c0,0,1.2,1.9,0.9,2.7l0.6-0.7c0,0.2,0,0.4,0,0.6c-0.2,2.9-1.9,5.1-3.9,5.1
				s-3.6-2.1-3.9-4.9c0.2,0,0.4,0.1,0.6,0.3C120.9,71.6,120.4,69,121.3,68.6z M119.7,71.2L119.7,71.2c0.3,3.3,2.1,5.7,4.4,5.7
				c2.3,0,4.2-2.5,4.4-5.8c0-0.2,0.1-0.5,0.1-0.7c0-0.2,0-0.5-0.1-0.7c-0.3-2.3-2.2-4-4.4-4s-4.1,1.7-4.4,4c0,0.2-0.1,0.5-0.1,0.7
				c0,0.1,0,0.2,0,0.3C119.6,70.9,119.7,71,119.7,71.2z"/>
		</g>
	</g>
	<g>
		<circle class="st4" cx="49.5" cy="44" r="10.9"/>
		<path class="st3" d="M45.9,40.6c0-0.1,0.1-0.2,0.1-0.2s0,0,0.1,0c0.1,0,0.1,0,0.2,0.1l0,0l0,0c0-0.2,0.3-1.7,1.8-1.6
			c0,0,1.4,0.5,2.5,0.1c0.1,0,0.3,0,0.4,0c0.5,0,0.8,0.3,1.2,0.5c0-0.2-0.2-0.4-0.1-0.5c0.1,0,0.1,0,0.2,0.1
			c0.3,0.3,0.5,0.7,0.7,1.5l0,0l0,0l0,0l0,0c0.1,0,0.1-0.1,0.2-0.1l0,0c0.2,0.1,0.3,0.5,0.2,0.9c-0.1,0.4-0.2,0.6-0.4,0.7
			c-0.1,0.1-0.1,0.1-0.2,0.1h-0.1c-0.3,1-0.9,1.9-1.6,2.4c-0.5,0.4-0.9,0.5-1.5,0.5c-0.5,0-1-0.2-1.5-0.5c-0.7-0.5-1.4-1.5-1.6-2.5
			h-0.1c-0.1,0-0.1,0-0.2-0.1c-0.1-0.1-0.3-0.4-0.3-0.7c0,0,0,0,0-0.1C45.8,41,45.8,40.8,45.9,40.6z M45.8,42.4
			c0.4,0.9,0.9,1.8,1.5,2.4c0.4,0.4,0.8,0.6,1.3,0.8c0.3,0.1,0.6,0.2,0.9,0.2c0.4,0,0.6-0.1,0.9-0.2c0.5-0.2,0.9-0.5,1.3-0.9
			c0.6-0.6,1.2-1.5,1.5-2.4c0.3-0.1,0.5-0.5,0.6-1.2c0.1-0.6,0-1.3-0.3-1.4c0-0.2,0-0.4,0-0.5c0-2.4-1.5-3.8-3.6-4
			c-1.9-0.1-3.4,0.6-4.1,1.9c-0.2,0.5-0.4,1-0.4,1.5c-0.1,0.3-0.1,0.6-0.1,0.9l0,0l0,0l0,0c-0.3,0.1-0.5,0.6-0.3,1.4
			C45.3,41.8,45.5,42.4,45.8,42.4z"/>
		<path class="st3" d="M49.5,34c5.5,0,10,4.4,10,10c0,2.2-0.7,4.2-1.8,5.8c0-0.1,0-0.3-0.1-0.4c-0.9-3.2-2.6-3.3-3-3.4
			c-0.7-0.2-1.6-0.1-2.1-0.3c-0.1,0.5-1.4,2-2.3,2.9l-0.4-1.5c0.3-0.2,0.4-0.5,0.4-0.8h-1.5c0,0.3,0.1,0.6,0.4,0.8l-0.4,1.5
			c-0.9-0.9-2.2-2.4-2.3-2.9c-0.5,0.2-1.4,0.1-2.1,0.3c-0.4,0.1-2.1,0.2-3,3.4c0,0.1-0.1,0.3-0.1,0.4c-1.2-1.6-1.8-3.6-1.8-5.8
			C39.6,38.5,44.1,34,49.5,34z M49.5,33.1c-6,0-10.9,4.9-10.9,10.9s4.9,10.9,10.9,10.9S60.4,50,60.4,44
			C60.4,37.9,55.6,33.1,49.5,33.1z"/>
	</g>
</g>
</svg>
