<?xml version="1.0" encoding="utf-8"?>
<!-- Generator: Adobe Illustrator 21.1.0, SVG Export Plug-In . SVG Version: 6.00 Build 0)  -->
<svg version="1.1" id="Layer_1" xmlns="http://www.w3.org/2000/svg" xmlns:xlink="http://www.w3.org/1999/xlink" x="0px" y="0px"
	 viewBox="0 0 96 96" style="enable-background:new 0 0 96 96;" xml:space="preserve">
<style type="text/css">
	.st0{fill:#7C4DFF;}
	.st1{fill:#FFFFFF;}
	.st2{fill:#FDD835;stroke:#FFFFFF;stroke-width:2;stroke-miterlimit:10;}
	.st3{font-family:'Roboto-Black';}
	.st4{font-size:18px;}
</style>
<g>
	<path class="st0" d="M47.8,8.1c-0.1,0-0.1,0-0.2,0.1c-0.4,0.1-0.7,0.2-1.1,0.5l-0.1,0.1c-2.9,2-6,3.9-9.2,5.4
		c-5.6,2.8-12.9,5.6-19.3,5.6h-2v28.5c0,14.6,7.9,24.6,15.7,30.8c4.7,3.7,9.9,6.7,15.6,8.8l0.6,0.2l0.6-0.2
		c5.6-2.1,10.9-5.1,15.6-8.8c7.7-6.2,15.7-16.2,15.7-30.8V19.6h-2c-6.4,0-13.7-2.7-19.3-5.6c-3.2-1.6-6.3-3.4-9.2-5.5
		c-0.3-0.2-0.7-0.4-1.1-0.5H47.8z"/>
	<path class="st1" d="M43.8,42.4h1.5c0.9,0,1.9,0.1,2.9,0c1.7-0.1,2.7-1.2,2.8-3c0.1-1.9-0.7-3.2-2.4-3.4c-1.1-0.1-2.2-0.1-3.4-0.1
		c-0.4,0-0.7,0.1-1,0.4c-0.2,0.2-0.4,0.6-0.4,0.9C43.7,38.9,43.8,40.6,43.8,42.4L43.8,42.4z M43.8,53.9c1.8,0,3.6,0.1,5.4-0.1
		c1.9-0.2,3-1.7,2.9-3.7c-0.1-2.1-1.3-3.4-3.2-3.5c-1.1-0.1-2.2-0.1-3.4,0c-0.9,0-1.6,0.5-1.6,1.4C43.7,50,43.8,52,43.8,53.9z
		 M53.6,44.3c1.8,0.8,3.2,2.4,3.6,4.4c1.1,4.2-1.2,8.2-5.5,9.4s-8.7,0.3-13.2,0.6c0-0.5,0-0.9,0-1.2c0-7.5,0-15,0-22.5
		c0-2.6,1-3.6,3.6-3.6c2.6,0,5.2-0.1,7.9,0.2c5.2,0.6,8.1,5.4,5.8,9.9C55.2,42.5,54.3,43.3,53.6,44.3z"/>
</g>
<g>
	<circle class="st2" cx="74.3" cy="70.4" r="17.9"/>
	<text transform="matrix(1 0 0 1 62.3701 75.6702)" class="st1 st3 st4">7%</text>
</g>
</svg>
