<?xml version="1.0" encoding="utf-8"?>
<!-- Generator: Adobe Illustrator 17.0.0, SVG Export Plug-In . SVG Version: 6.00 Build 0)  -->
<!DOCTYPE svg PUBLIC "-//W3C//DTD SVG 1.1//EN" "http://www.w3.org/Graphics/SVG/1.1/DTD/svg11.dtd">
<svg version="1.1" id="Layer_1" xmlns="http://www.w3.org/2000/svg" xmlns:xlink="http://www.w3.org/1999/xlink" x="0px" y="0px"
	 width="50px" height="40px" viewBox="0 0 50 40" enable-background="new 0 0 50 40" xml:space="preserve">
<path fill="#FFFFFF" d="M45.809,16.197L24.524,3.908c-0.062-0.035-0.132-0.054-0.2-0.054c-0.069,0-0.14,0.018-0.201,0.055
	l-7.05,4.097c-0.123,0.071-0.199,0.203-0.199,0.347c0,0.143,0.076,0.274,0.2,0.346l21.284,12.288c0.062,0.036,0.131,0.054,0.2,0.054
	c0.069,0,0.14-0.018,0.201-0.054l7.05-4.097c0.123-0.072,0.199-0.204,0.199-0.347C46.008,16.4,45.932,16.269,45.809,16.197z"/>
<path fill="#FFFFFF" d="M31.606,24.37l-14.189-8.192c-0.063-0.036-0.132-0.054-0.2-0.054c-0.069,0-0.14,0.019-0.201,0.054
	l-7.049,4.097c-0.123,0.071-0.199,0.204-0.198,0.347c0,0.143,0.076,0.274,0.199,0.346l14.19,8.192
	c0.062,0.035,0.131,0.054,0.2,0.054s0.139-0.019,0.201-0.055l7.048-4.096c0.124-0.071,0.199-0.203,0.199-0.347
	C31.807,24.573,31.73,24.441,31.606,24.37z"/>
<path fill="#FFFFFF" d="M17.405,32.444l-7.094-4.096c-0.062-0.036-0.131-0.054-0.2-0.054c-0.069,0-0.14,0.018-0.201,0.055
	l-7.05,4.096c-0.123,0.072-0.199,0.204-0.199,0.347c0,0.144,0.076,0.274,0.2,0.347l7.095,4.096c0.061,0.035,0.131,0.054,0.199,0.054
	c0.07,0,0.14-0.019,0.202-0.055l7.049-4.097c0.124-0.071,0.199-0.203,0.199-0.347C17.605,32.647,17.529,32.516,17.405,32.444z"/>
</svg>
