<?xml version="1.0" encoding="utf-8"?>
<!-- Generator: Adobe Illustrator 17.0.0, SVG Export Plug-In . SVG Version: 6.00 Build 0)  -->
<!DOCTYPE svg PUBLIC "-//W3C//DTD SVG 1.1//EN" "http://www.w3.org/Graphics/SVG/1.1/DTD/svg11.dtd">
<svg version="1.1" xmlns="http://www.w3.org/2000/svg" xmlns:xlink="http://www.w3.org/1999/xlink" x="0px" y="0px" width="24px"
	 height="24px" viewBox="0 0 24 24" enable-background="new 0 0 24 24" xml:space="preserve">
<g id="Layer_2">
	<path fill="#444444" d="M2,4c0-1.1,0.9-2,2-2C2.9,2,2,1.1,2,0c0,1.1-0.9,2-2,2C1.1,2,2,2.9,2,4z"/>
	<path fill="#444444" d="M20,5c0-1.1,0.9-2,2-2c-1.1,0-2-0.9-2-2c0,1.1-0.9,2-2,2C19.1,3,20,3.9,20,5z"/>
	<path fill="#444444" d="M9.667,11.833c0-1.1,0.9-2,2-2c-1.1,0-2-0.9-2-2c0,1.1-0.9,2-2,2C8.767,9.833,9.667,10.733,9.667,11.833z"
		/>
	<path fill="#444444" d="M5,22.667c0-1.1,0.9-2,2-2c-1.1,0-2-0.9-2-2c0,1.1-0.9,2-2,2C4.1,20.667,5,21.567,5,22.667z"/>
</g>
<g id="Layer_1">
	<g transform="translate(0,-952.36218)">
		<g transform="translate(8.9950798,961.32626)">
			<path fill="#444444" d="M1.699-6.666c-4.609,0-8.38,3.762-8.38,8.371s3.771,8.38,8.38,8.38c1.772,0,3.413-0.567,4.767-1.51
				l4.53,4.522c0.576,0.585,1.519,0.585,2.095,0c0.576-0.576,0.576-1.51,0-2.086l-4.53-4.53c0.951-1.362,1.51-3.003,1.51-4.775
				C10.071-2.904,6.3-6.666,1.699-6.666z M1.699-3.715c3.003,0,5.412,2.409,5.412,5.42S4.703,7.126,1.699,7.126
				c-3.012,0-5.42-2.409-5.42-5.42S-1.312-3.715,1.699-3.715z"/>
		</g>
	</g>
</g>
</svg>
