<?xml version="1.0" encoding="utf-8"?>
<!-- Generator: Adobe Illustrator 21.1.0, SVG Export Plug-In . SVG Version: 6.00 Build 0)  -->
<svg version="1.1" id="Layer_1" xmlns="http://www.w3.org/2000/svg" xmlns:xlink="http://www.w3.org/1999/xlink" x="0px" y="0px"
	 viewBox="0 0 24 24" style="enable-background:new 0 0 24 24;" xml:space="preserve">
<style type="text/css">
	.st0{fill:#FFFFFF;}
</style>
<path class="st0" d="M12,2C6.5,2,2,6.5,2,12s4.5,10,10,10s10-4.5,10-10S17.5,2,12,2z M13.4,18.7h-2.7V16h2.7V18.7z M14.5,12.6
	c-0.8,0.5-1.1,1.2-1.1,2.1h-2.7c0-1.8,0.6-3.2,2.1-4.3c0.4-0.3,0.5-0.7,0.5-1.1C13.3,8.5,12.8,8,12,8s-1.3,0.5-1.3,1.3H8
	c0-2.1,1.7-4,4-4s4,1.9,4.1,4.1C16.1,10.7,15.4,11.9,14.5,12.6z"/>
</svg>
