<?xml version="1.0" encoding="utf-8"?>
<!-- Generator: Adobe Illustrator 21.1.0, SVG Export Plug-In . SVG Version: 6.00 Build 0)  -->
<svg version="1.1" id="Layer_1" xmlns="http://www.w3.org/2000/svg" xmlns:xlink="http://www.w3.org/1999/xlink" x="0px" y="0px"
	 viewBox="0 0 24 24" style="enable-background:new 0 0 24 24;" xml:space="preserve">
<style type="text/css">
	.st0{fill:#383838;}
</style>
<title>logo_ver3</title>
<g>
	<path class="st0" d="M21.9,10c-0.2,0-0.3,0-0.5,0.1c-0.5-4.3-4.6-7.9-9.4-7.9s-8.9,3.6-9.4,7.9C2.4,10,2.3,10,2.1,10
		C0.9,10,0,10.8,0,12.2s1.4,3,2.5,3c0.2,0,0.4,0,0.6-0.1c1.4,4,4.8,6.8,8.8,6.8s7.4-2.8,8.8-6.8c0.2,0.1,0.4,0.2,0.6,0.1
		c1.2,0,2.5-1.5,2.5-3S23.1,10,21.9,10z M2.5,14.5c-0.7,0-1.5-0.9-1.5-1.7s0.5-1.3,1.2-1.3c0.1,0,0.2,0,0.3,0c0,1,0.2,1.9,0.5,2.9
		C2.9,14.5,2.7,14.5,2.5,14.5z M17.5,15.8c0,0.1,0,0.2,0,0.4c0,2.5-3,4.5-5.5,4.5s-5.5-2-5.5-4.5c0-0.1,0-0.2,0-0.4
		c-0.8-0.8-1.4-2-1.4-3.4c0-2.3,1.5-4.2,3.4-4.2c1.7,0,3.1,1.5,3.4,3.5H12c0.3-2,1.7-3.5,3.4-3.5c1.9,0,3.4,1.9,3.4,4.2
		C18.8,13.9,18.3,15.1,17.5,15.8L17.5,15.8z M21.5,14.5c-0.2,0-0.3,0-0.5-0.1c0.3-0.9,0.4-1.9,0.5-2.9c0.1,0,0.2,0,0.3,0
		c0.7,0,1.2,0.5,1.2,1.3S22.1,14.5,21.5,14.5z"/>
	<circle class="st0" cx="8.6" cy="11.8" r="1.1"/>
	<circle class="st0" cx="15.4" cy="11.8" r="1.1"/>
	<path class="st0" d="M8.6,16.2c0,1.9,1.5,3.4,3.4,3.4s3.4-1.5,3.4-3.4"/>
</g>
</svg>
