<?xml version="1.0" encoding="utf-8"?>
<!-- Generator: Adobe Illustrator 21.1.0, SVG Export Plug-In . SVG Version: 6.00 Build 0)  -->
<svg version="1.1" id="Layer_1" xmlns="http://www.w3.org/2000/svg" xmlns:xlink="http://www.w3.org/1999/xlink" x="0px" y="0px"
	 viewBox="0 0 24 24" style="enable-background:new 0 0 24 24;" xml:space="preserve">
<style type="text/css">
	.st0{fill:#FFFFFF;}
</style>
<title>Artboard 14</title>
<path class="st0" d="M20,4.3c-3,0.1-5.2-0.7-7.1-2.5c-0.5-0.5-1.3-0.5-1.8,0C9.2,3.6,7.1,4.4,4,4.3c-0.5,0-1,0.4-1,0.9c0,0,0,0,0,0
	c0,0.6,0,1.2,0,1.9c-0.1,5.2-0.2,12.3,8.5,15.4c0.3,0.1,0.6,0.1,0.9,0c8.8-3,8.6-10.2,8.5-15.4c0-0.6,0-1.3,0-1.9
	C21,4.7,20.6,4.3,20,4.3C20,4.3,20,4.3,20,4.3z M12,7.4c1.2,0,2.2,1,2.2,2.2s-1,2.2-2.2,2.2s-2.2-1-2.2-2.2S10.8,7.4,12,7.4L12,7.4z
	 M16.1,16c0,0.3-0.3,0.6-0.6,0.6l0,0H8.5c-0.3,0-0.6-0.2-0.6-0.6c0,0,0,0,0,0v-1.8c0-1,0.8-1.8,1.8-1.8h0.6l1.4,1.4
	c0.1,0.1,0.3,0.1,0.4,0l1.4-1.4h0.6c1,0,1.8,0.8,1.8,1.8c0,0,0,0,0,0V16z"/>
</svg>
