<?xml version="1.0" encoding="utf-8"?>
<!-- Generator: Adobe Illustrator 21.1.0, SVG Export Plug-In . SVG Version: 6.00 Build 0)  -->
<svg version="1.1" id="Layer_1" xmlns="http://www.w3.org/2000/svg" xmlns:xlink="http://www.w3.org/1999/xlink" x="0px" y="0px"
	 viewBox="0 0 24 24" style="enable-background:new 0 0 24 24;" xml:space="preserve">
<style type="text/css">
	.st0{fill:#383838;stroke:#383838;stroke-miterlimit:10;}
</style>
<path class="st0" d="M14.6,2h-8C5.5,2,4.7,2.9,4.7,3.9v16.2c0,1.1,0.9,1.9,1.9,1.9h10.9c1.1,0,1.9-0.9,1.9-1.9V6.8L14.6,2z M18,20.1
	c0,0.3-0.2,0.5-0.5,0.5H6.6c-0.3,0-0.5-0.2-0.5-0.5V3.9c0-0.3,0.2-0.5,0.5-0.5h7v4.4H18V20.1z M8.1,18.5h7.8v-1.4H8.1V18.5z
	 M8.1,14.8h7.8v-1.4H8.1V14.8z M8.1,11.2h7.8V9.8H8.1V11.2z"/>
</svg>
