<?xml version="1.0" encoding="utf-8"?>
<!-- Generator: Adobe Illustrator 21.1.0, SVG Export Plug-In . SVG Version: 6.00 Build 0)  -->
<svg version="1.1" id="Layer_1" xmlns="http://www.w3.org/2000/svg" xmlns:xlink="http://www.w3.org/1999/xlink" x="0px" y="0px"
	 viewBox="0 0 24 24" style="enable-background:new 0 0 24 24;" xml:space="preserve">
<style type="text/css">
	.st0{fill:#FFFFFF;}
</style>
<g>
	<path class="st0" d="M21.8,10C21.1,5.2,17,1.5,12,1.5S2.9,5.2,2.2,10C1.5,10.6,1,11.5,1,12.6c0,1.4,0.8,2.5,2,3
		c1.3,2.8,3.9,4.9,7,5.5c0.3,0.8,1.1,1.3,2,1.3c1.2,0,2.2-1,2.2-2.2s-1-2.2-2.2-2.2c-0.7,0-1.4,0.4-1.8,0.9
		c-3.4-0.8-5.9-3.9-5.9-7.5v0c0-3.3,2-6.3,5.1-7.3c5.3-1.7,10.3,2.2,10.3,7.3l0,0v3.9c0,0.3,0.3,0.5,0.5,0.4
		c1.6-0.3,2.8-1.6,2.8-3.3C23,11.5,22.5,10.6,21.8,10z"/>
	<circle class="st0" cx="8.7" cy="8.1" r="1.1"/>
	<circle class="st0" cx="15.3" cy="8.1" r="1.1"/>
	<path class="st0" d="M14.3,12.7C13,14,11,14,9.7,12.7c-0.4-0.4-1.1-0.4-1.6,0c-0.4,0.4-0.4,1.1,0,1.6c1.1,1.1,2.5,1.6,3.9,1.6
		s2.8-0.5,3.9-1.6c0.4-0.4,0.4-1.1,0-1.6C15.5,12.3,14.8,12.3,14.3,12.7z"/>
</g>
</svg>
