<?xml version="1.0" encoding="utf-8"?>
<!-- Generator: Adobe Illustrator 21.1.0, SVG Export Plug-In . SVG Version: 6.00 Build 0)  -->
<svg version="1.1"
	 id="Layer_1" xmlns:cc="http://creativecommons.org/ns#" xmlns:dc="http://purl.org/dc/elements/1.1/" xmlns:inkscape="http://www.inkscape.org/namespaces/inkscape" xmlns:rdf="http://www.w3.org/1999/02/22-rdf-syntax-ns#" xmlns:sodipodi="http://sodipodi.sourceforge.net/DTD/sodipodi-0.dtd" xmlns:svg="http://www.w3.org/2000/svg"
	 xmlns="http://www.w3.org/2000/svg" xmlns:xlink="http://www.w3.org/1999/xlink" x="0px" y="0px" viewBox="0 0 24 24"
	 style="enable-background:new 0 0 24 24;" xml:space="preserve">
<style type="text/css">
	.st0{fill:#FFFFFF;}
	.st1{fill:#FDD835;}
</style>
<g transform="translate(0,-952.36218)">
	<path class="st0" d="M15.6,959.7c-1.9,0.5-3.7,1.1-5.5,1.7c-0.2,0-0.3,0.2-0.3,0.3v2.8l-5.1,2.4c-0.1,0.1-0.2,0.2-0.2,0.3v7.4
		c0,0.2,0.2,0.3,0.3,0.3h14.2c0.2,0,0.3-0.2,0.3-0.3v-12.8c0-0.1-0.1-0.3-0.2-0.3l-3.5-1.9C15.6,959.7,15.6,959.7,15.6,959.7
		L15.6,959.7z M15.9,960.6l2.8,1.4v12.2h-2.8C15.9,969.7,15.9,965.1,15.9,960.6z M16.4,963.2v1.4h0.7v-1.4H16.4z M17.6,963.2v1.4
		h0.7v-1.4H17.6z M11.9,964.4l3.3,0.7c0,3,0,6.1,0,9.1h-3.3V964.4z M16.4,965.1v1.4h0.7v-1.4H16.4z M17.6,965.1v1.4h0.7v-1.4H17.6z
		 M12.3,965.5v1.4h0.7v-1.4H12.3z M13.3,965.5v1.4h0.7v-1.4H13.3z M14.2,965.5v1.4h0.7v-1.4H14.2z M12.3,967.2v1.4h0.7v-1.4H12.3z
		 M13.3,967.2v1.4h0.7v-1.4H13.3z M14.2,967.2v1.4h0.7v-1.4H14.2z M16.4,967.2v1.4h0.7v-1.4H16.4z M17.6,967.2v1.4h0.7v-1.4H17.6z
		 M12.3,969.1v1.4h0.7v-1.4H12.3z M13.3,969.1v1.4h0.7v-1.4H13.3z M14.2,969.1v1.4h0.7v-1.4H14.2z M16.4,969.1v1.4h0.7v-1.4H16.4z
		 M17.6,969.1v1.4h0.7v-1.4H17.6z M12.3,971.1v1.4h0.7v-1.4H12.3z M13.3,971.1v1.4h0.7v-1.4H13.3z M14.2,971.1v1.4h0.7v-1.4H14.2z
		 M16.4,971.1v1.4h0.7v-1.4H16.4z M17.6,971.1v1.4h0.7v-1.4H17.6z"/>
</g>
<g>
	<path class="st1" d="M11.1,3l-0.2,1.2l0,0l0,0L12,3.7l1.1,0.6l0,0l0,0l0,0L13,3l0.9-0.8l0,0l0,0L12.7,2l-0.6-1.1c0,0,0,0-0.1,0
		L11.5,2l-1.2,0.2l0,0l0,0L11.1,3z"/>
	<path class="st1" d="M16,3l-0.2,1.2l0,0l0,0l1.1-0.6L18,4.3l0,0l0,0l0,0l-0.2-1.2l0.9-0.8l0,0l0,0l-1.2-0.2l-0.6-1.2c0,0,0,0-0.1,0
		L16.3,2l-1.2,0.2l0,0l0,0L16,3z"/>
	<path class="st1" d="M6.3,3L6.1,4.2l0,0l0,0l1.1-0.6l1.1,0.6l0,0l0,0l0,0L8.1,3L9,2.2l0,0l0,0L7.7,2L7.2,0.9c0,0,0,0-0.1,0L6.6,2
		L5.4,2.2l0,0l0,0L6.3,3z"/>
</g>
</svg>
