<svg xmlns="http://www.w3.org/2000/svg" viewBox="0 0 48 48">
  <g fill="#333">
    <circle cx="23.829" cy="24.171" r="4.2"/>
    <path d="M29.0571429,13.8857143 L18.5142857,13.8857143 C16.9714286,13.8857143 15.6,14.4 14.7428571,15.2571429 C13.8857143,16.1142857 13.3714286,17.4857143 13.3714286,19.0285714 L13.3714286,29.5714286 C13.3714286,31.1142857 13.8857143,32.4857143 14.8285714,33.4285714 C15.7714286,34.2857143 17.0571429,34.8 18.6,34.8 L29.0571429,34.8 C30.6,34.8 31.9714286,34.2857143 32.8285714,33.4285714 C33.7714286,32.5714286 34.2857143,31.2 34.2857143,29.6571429 L34.2857143,19.0285714 C34.2857143,17.4857143 33.7714286,16.2857143 32.9142857,15.2571429 C31.9714286,14.3142857 30.6857143,13.8857143 29.0571429,13.8857143 Z M23.8285714,30.6857143 C20.2285714,30.6857143 17.3142857,27.6857143 17.3142857,24.1714286 C17.3142857,20.5714286 20.3142857,17.6571429 23.8285714,17.6571429 C27.3428571,17.6571429 30.4285714,20.5714286 30.4285714,24.1714286 C30.4285714,27.7714286 27.4285714,30.6857143 23.8285714,30.6857143 Z M30.6,18.9428571 C29.7428571,18.9428571 29.0571429,18.2571429 29.0571429,17.4 C29.0571429,16.5428571 29.7428571,15.8571429 30.6,15.8571429 C31.4571429,15.8571429 32.1428571,16.5428571 32.1428571,17.4 C32.1428571,18.2571429 31.4571429,18.9428571 30.6,18.9428571 Z"/>
    <path d="M24,0.428571429 C10.9714286,0.428571429 0.428571429,10.9714286 0.428571429,24 C0.428571429,37.0285714 10.9714286,47.5714286 24,47.5714286 C37.0285714,47.5714286 47.5714286,37.0285714 47.5714286,24 C47.6571429,10.9714286 37.0285714,0.428571429 24,0.428571429 Z M36.5142857,29.5714286 C36.5142857,31.8 35.7428571,33.6857143 34.3714286,35.0571429 C33,36.4285714 31.1142857,37.0285714 28.9714286,37.0285714 L18.6,37.0285714 C16.4571429,37.0285714 14.5714286,36.3428571 13.2,35.0571429 C11.7428571,33.6857143 11.0571429,31.8 11.0571429,29.5714286 L11.0571429,19.0285714 C11.0571429,14.6571429 14.0571429,11.5714286 18.5142857,11.5714286 L29.1428571,11.5714286 C31.3714286,11.5714286 33.1714286,12.3428571 34.5428571,13.7142857 C35.9142857,15.0857143 36.5142857,16.8857143 36.5142857,19.1142857 L36.5142857,29.5714286 Z"/>
  </g>
</svg>
