<svg id="Layer_1" data-name="Layer 1" xmlns="http://www.w3.org/2000/svg" width="120.79" height="124" viewBox="0 0 120.79 124"><defs><style>.cls-1{fill:#7c4dff;}.cls-2{fill:#fff;}.cls-3{fill:#fdd835;}</style></defs><title>usp2_1</title><g id="hotel"><g id="Message-Rolling1---marker-appear"><g id="Group-4"><path id="Shape" class="cls-1" d="M112.94,21.84c-14.9,4.41-29.85,9-44.75,13.56A2.77,2.77,0,0,0,66.3,38V60.54L24.9,80a2.76,2.76,0,0,0-1.55,2.44v60.64a2.8,2.8,0,0,0,2.68,2.7H141.46a2.8,2.8,0,0,0,2.68-2.7V39.36a2.76,2.76,0,0,0-1.43-2.4L114.53,22.13A2.7,2.7,0,0,0,112.94,21.84ZM116,29l22.82,12v99.47H116Zm4,21.14V60.92h5.37V50.14Zm9.39,0V60.92h5.37V50.14Zm-45.63,10,26.84,5.6v74.67H83.75ZM120,66.31V77.09h5.37V66.31Zm9.39,0V77.09h5.37V66.31ZM86.43,69V79.78H91.8V69Zm8.05,0V79.78h5.37V69Zm8.05,0V79.78h5.37V69ZM86.43,82.48V93.26H91.8V82.48Zm8.05,0V93.26h5.37V82.48Zm8.05,0V93.26h5.37V82.48Zm17.45,0V93.26h5.37V82.48Zm9.39,0V93.26h5.37V82.48ZM86.43,98.65v10.78H91.8V98.65Zm8.05,0v10.78h5.37V98.65Zm8.05,0v10.78h5.37V98.65Zm17.45,0v10.78h5.37V98.65Zm9.39,0v10.78h5.37V98.65ZM86.43,114.82V125.6H91.8V114.82Zm8.05,0V125.6h5.37V114.82Zm8.05,0V125.6h5.37V114.82Zm17.45,0V125.6h5.37V114.82Zm9.39,0V125.6h5.37V114.82Z" transform="translate(-23.35 -21.82)"/></g></g></g><path id="marker" class="cls-2" d="M49.64,116.59a5.7,5.7,0,1,1,5.7-5.7h0A5.7,5.7,0,0,1,49.64,116.59Zm0-21.65a15.94,15.94,0,0,0-16,15.93s0,0,0,0c0,12,16,29.63,16,29.63s16-17.67,16-29.63a15.94,15.94,0,0,0-15.92-16Z" transform="translate(-23.35 -21.82)"/><circle class="cls-2" cx="26.29" cy="33.98" r="22.24"/><path id="cash" class="cls-3" d="M54,55.8l.51,1.82h1.21l.51-1.82Zm-5,0-.51,1.82h2.22l-.51-1.82ZM43,55.8l.51,1.82h1.11l.51-1.82ZM38.42,45.69a2.21,2.21,0,0,1,2,1.31L42,52.16h4.45L47.92,47a2,2,0,0,1,1.72-1.31A1.82,1.82,0,0,1,51.36,47l1.52,5.16h4.45L58.84,47a1.85,1.85,0,0,1,1.72-1.31A1.72,1.72,0,0,1,62.28,48l-1.21,4h.4a1.82,1.82,0,1,1,0,3.64H60l-.51,1.82h.3a1.81,1.81,0,0,1,1.82,1.82,2,2,0,0,1-1.82,2H58.44l-1.52,5.16a2,2,0,0,1-1.72,1.31,1.85,1.85,0,0,1-1.72-1.31L52,61.36H47.52L46,66.51a2,2,0,0,1-1.72,1.31,1.85,1.85,0,0,1-1.72-1.31l-1.52-5.16H39.53a1.81,1.81,0,0,1-1.82-1.82,1.9,1.9,0,0,1,1.82-1.92h.2l-.51-1.82H37.71a1.82,1.82,0,1,1,0-3.64h.4l-1.21-4A1.84,1.84,0,0,1,38.42,45.69ZM49.64,35.58A20.22,20.22,0,1,0,69.86,55.8,20.28,20.28,0,0,0,49.64,35.58Z" transform="translate(-23.35 -21.82)"/></svg>