<?xml version="1.0" encoding="utf-8"?>
<!-- Generator: Adobe Illustrator 21.1.0, SVG Export Plug-In . SVG Version: 6.00 Build 0)  -->
<svg version="1.1" id="Layer_1" xmlns="http://www.w3.org/2000/svg" xmlns:xlink="http://www.w3.org/1999/xlink" x="0px" y="0px"
	 viewBox="0 0 168 144" style="enable-background:new 0 0 168 144;" xml:space="preserve">
<style type="text/css">
	.st0{fill:#887DFF;}
	.st1{fill:#FFFFFF;}
	.st2{fill:#FDD835;}
</style>
<title>Shape</title>
<desc>Created with Sketch.</desc>
<title>marker</title>
<g>
	<g id="hotel">
		<g id="Message-Rolling1---marker-appear" transform="translate(-340.000000, -152.000000)">
			<g id="Group-4" transform="translate(340.000000, 152.000000)">
				<path id="Shape" class="st0" d="M112.9,9.8c-14.9,4.4-29.9,9-44.8,13.6c-1.1,0.3-1.9,1.5-1.9,2.6v22.5L24.9,68
					c-0.9,0.4-1.6,1.4-1.6,2.4v60.6c0,1.4,1.3,2.7,2.7,2.7h115.4c1.4,0,2.7-1.3,2.7-2.7V27.4c0-1-0.6-1.9-1.4-2.4l-28.2-14.8
					C114,9.9,113.5,9.8,112.9,9.8z M116,17l22.8,12v99.5H116C116,91.3,116,54.1,116,17z M120,38.1v10.8h5.4V38.1H120z M129.4,38.1
					v10.8h5.4V38.1H129.4z M83.7,48.2l26.8,5.6c0,24.9,0,49.8,0,74.7H83.7V48.2z M120,54.3v10.8h5.4V54.3H120z M129.4,54.3v10.8h5.4
					V54.3H129.4z M86.4,57v10.8h5.4V57H86.4z M94.5,57v10.8h5.4V57H94.5z M102.5,57v10.8h5.4V57H102.5z M86.4,70.5v10.8h5.4V70.5
					H86.4z M94.5,70.5v10.8h5.4V70.5H94.5z M102.5,70.5v10.8h5.4V70.5H102.5z M120,70.5v10.8h5.4V70.5H120z M129.4,70.5v10.8h5.4
					V70.5H129.4z M86.4,86.7v10.8h5.4V86.7H86.4z M94.5,86.7v10.8h5.4V86.7H94.5z M102.5,86.7v10.8h5.4V86.7H102.5z M120,86.7v10.8
					h5.4V86.7H120z M129.4,86.7v10.8h5.4V86.7H129.4z M86.4,102.8v10.8h5.4v-10.8H86.4z M94.5,102.8v10.8h5.4v-10.8H94.5z
					 M102.5,102.8v10.8h5.4v-10.8H102.5z M120,102.8v10.8h5.4v-10.8H120z M129.4,102.8v10.8h5.4v-10.8H129.4z"/>
			</g>
		</g>
	</g>
	<path id="marker" class="st1" d="M49.6,104.6c-3.1,0-5.7-2.6-5.7-5.7s2.6-5.7,5.7-5.7s5.7,2.6,5.7,5.7c0,0,0,0,0,0
		C55.3,102,52.8,104.6,49.6,104.6z M49.6,82.9c-8.8,0-15.9,7.1-16,15.9c0,0,0,0,0,0c0,12,16,29.6,16,29.6s16-17.7,16-29.6
		C65.6,90.1,58.5,82.9,49.6,82.9C49.7,82.9,49.7,82.9,49.6,82.9z"/>
	<g>
		<circle class="st1" cx="49.6" cy="43.8" r="22.2"/>
		<path id="cash" class="st2" d="M54,43.8l0.5,1.8h1.2l0.5-1.8H54z M49,43.8l-0.5,1.8h2.2l-0.5-1.8H49z M43,43.8l0.5,1.8h1.1
			l0.5-1.8H43z M38.4,33.7c0.8,0,1.7,0.5,2,1.3l1.5,5.2h4.4l1.5-5.2c0.2-0.7,1-1.3,1.7-1.3c0.7,0,1.5,0.5,1.7,1.3l1.5,5.2h4.4
			l1.5-5.2c0.2-0.8,0.9-1.2,1.7-1.3c1.2-0.1,2.2,1.2,1.7,2.3l-1.2,4h0.4c1,0,1.8,0.8,1.8,1.8c0,1-0.8,1.8-1.8,1.8H60l-0.5,1.8h0.3
			c1,0,1.8,0.8,1.8,1.8c0,1-0.8,2-1.8,2h-1.3l-1.5,5.2c-0.2,0.7-1,1.3-1.7,1.3c-0.8,0-1.5-0.6-1.7-1.3L52,49.4h-4.4L46,54.5
			c-0.2,0.7-1,1.3-1.7,1.3c-0.8,0-1.5-0.6-1.7-1.3l-1.5-5.2h-1.5c-1,0-1.8-0.8-1.8-1.8c0-1,0.8-1.9,1.8-1.9h0.2l-0.5-1.8h-1.5
			c-1,0-1.8-0.8-1.8-1.8s0.8-1.8,1.8-1.8h0.4l-1.2-4C36.5,35,37.3,33.8,38.4,33.7z M49.6,23.6c-11.1,0-20.2,9.1-20.2,20.2
			S38.5,64,49.6,64s20.2-9.1,20.2-20.2S60.8,23.6,49.6,23.6z"/>
	</g>
</g>
</svg>
