<svg xmlns="http://www.w3.org/2000/svg" xmlns:xlink="http://www.w3.org/1999/xlink" viewBox="0 0 64 56">
  <defs>
    <rect id="ic_hotel-b" width="801" height="384"/>
    <filter id="ic_hotel-a" width="101.5%" height="103.1%" x="-.7%" y="-1.6%" filterUnits="objectBoundingBox">
      <feOffset in="SourceAlpha" result="shadowOffsetOuter1"/>
      <feGaussianBlur in="shadowOffsetOuter1" result="shadowBlurOuter1" stdDeviation="2"/>
      <feColorMatrix in="shadowBlurOuter1" values="0 0 0 0 0   0 0 0 0 0   0 0 0 0 0  0 0 0 0.5 0"/>
    </filter>
  </defs>
  <g fill="none" transform="translate(-216 -64)">
    <use fill="#000" filter="url(#ic_hotel-a)" xlink:href="#ic_hotel-b"/>
    <use fill="#FFF" xlink:href="#ic_hotel-b"/>
    <g fill="#887DFF" transform="translate(124 39)">
      <path d="M134.929747,28.1937954 C129.223724,29.8739872 123.494897,31.6333683 117.787321,33.3608714 C117.367317,33.4912804 117.05831,33.9165117 117.064351,34.355774 L117.064351,42.9408217 L101.207205,50.3704874 C100.854554,50.5344231 100.612942,50.9127334 100.612762,51.3012076 L100.612762,74.4086403 C100.612814,74.9463617 101.102624,75.4356008 101.640987,75.4356522 L145.85463,75.4356522 C146.392993,75.4356008 146.882803,74.9463617 146.882854,74.4086403 L146.882854,34.8692748 C146.885425,34.4960644 146.666675,34.1295613 146.33661,33.9546041 L135.540255,28.3061211 C135.354666,28.2075389 135.138328,28.1677311 134.929747,28.1937954 Z M136.086499,30.9217529 L144.826406,35.4790519 L144.826406,73.3816285 L136.086499,73.3816285 C136.086499,59.2283606 136.086499,45.0750362 136.086499,30.9217529 Z M137.628836,38.9772606 L137.628836,43.0852463 L139.685284,43.0852463 L139.685284,38.9772606 L137.628836,38.9772606 Z M141.227621,38.9772606 L141.227621,43.0852463 L143.284069,43.0852463 L143.284069,38.9772606 L141.227621,38.9772606 Z M123.747809,42.7964021 L134.030051,44.9306167 C134.030051,54.4142907 134.030051,63.8979596 134.030051,73.3816285 L123.747809,73.3816285 L123.747809,42.7964021 Z M137.628836,45.1392341 L137.628836,49.2472301 L139.685284,49.2472301 L139.685284,45.1392341 L137.628836,45.1392341 Z M141.227621,45.1392341 L141.227621,49.2472301 L143.284069,49.2472301 L143.284069,45.1392341 L141.227621,45.1392341 Z M124.776032,46.1662459 L124.776032,50.274242 L126.832481,50.274242 L126.832481,46.1662459 L124.776032,46.1662459 Z M127.860705,46.1662459 L127.860705,50.274242 L129.917154,50.274242 L129.917154,46.1662459 L127.860705,46.1662459 Z M130.945378,46.1662459 L130.945378,50.274242 L133.001827,50.274242 L133.001827,46.1662459 L130.945378,46.1662459 Z M124.776032,51.3012076 L124.776032,55.4092036 L126.832481,55.4092036 L126.832481,51.3012076 L124.776032,51.3012076 Z M127.860705,51.3012076 L127.860705,55.4092036 L129.917154,55.4092036 L129.917154,51.3012076 L127.860705,51.3012076 Z M130.945378,51.3012076 L130.945378,55.4092036 L133.001827,55.4092036 L133.001827,51.3012076 L130.945378,51.3012076 Z M137.628836,51.3012076 L137.628836,55.4092036 L139.685284,55.4092036 L139.685284,51.3012076 L137.628836,51.3012076 Z M141.227621,51.3012076 L141.227621,55.4092036 L143.284069,55.4092036 L143.284069,51.3012076 L141.227621,51.3012076 Z M124.776032,57.4632273 L124.776032,61.571172 L126.832481,61.571172 L126.832481,57.4632273 L124.776032,57.4632273 Z M127.860705,57.4632273 L127.860705,61.571172 L129.917154,61.571172 L129.917154,57.4632273 L127.860705,57.4632273 Z M130.945378,57.4632273 L130.945378,61.571172 L133.001827,61.571172 L133.001827,57.4632273 L130.945378,57.4632273 Z M137.628836,57.4632273 L137.628836,61.571172 L139.685284,61.571172 L139.685284,57.4632273 L137.628836,57.4632273 Z M141.227621,57.4632273 L141.227621,61.571172 L143.284069,61.571172 L143.284069,57.4632273 L141.227621,57.4632273 Z M124.776032,63.6251957 L124.776032,67.7331917 L126.832481,67.7331917 L126.832481,63.6251957 L124.776032,63.6251957 Z M127.860705,63.6251957 L127.860705,67.7331917 L129.917154,67.7331917 L129.917154,63.6251957 L127.860705,63.6251957 Z M130.945378,63.6251957 L130.945378,67.7331917 L133.001827,67.7331917 L133.001827,63.6251957 L130.945378,63.6251957 Z M137.628836,63.6251957 L137.628836,67.7331917 L139.685284,67.7331917 L139.685284,63.6251957 L137.628836,63.6251957 Z M141.227621,63.6251957 L141.227621,67.7331917 L143.284069,67.7331917 L143.284069,63.6251957 L141.227621,63.6251957 Z"/>
    </g>
  </g>
</svg>
