<?xml version="1.0" encoding="utf-8"?>
<!-- Generator: Adobe Illustrator 21.1.0, SVG Export Plug-In . SVG Version: 6.00 Build 0)  -->
<svg version="1.1"
	 id="Layer_1" xmlns:cc="http://creativecommons.org/ns#" xmlns:dc="http://purl.org/dc/elements/1.1/" xmlns:inkscape="http://www.inkscape.org/namespaces/inkscape" xmlns:rdf="http://www.w3.org/1999/02/22-rdf-syntax-ns#" xmlns:sodipodi="http://sodipodi.sourceforge.net/DTD/sodipodi-0.dtd" xmlns:svg="http://www.w3.org/2000/svg"
	 xmlns="http://www.w3.org/2000/svg" xmlns:xlink="http://www.w3.org/1999/xlink" x="0px" y="0px" viewBox="0 0 24 24"
	 style="enable-background:new 0 0 24 24;" xml:space="preserve">
<style type="text/css">
	.st0{fill:#FFFFFF;}
	.st1{fill:#FFCC00;}
</style>
<g transform="translate(0,-952.36218)">
	<path class="st0" d="M16.2,957.4c-2.2,0.6-4.4,1.3-6.5,2c-0.2,0-0.3,0.2-0.3,0.4v3.3l-6,2.8c-0.1,0.1-0.2,0.2-0.2,0.4v8.8
		c0,0.2,0.2,0.4,0.4,0.4h16.8c0.2,0,0.4-0.2,0.4-0.4V960c0-0.1-0.1-0.3-0.2-0.3l-4.1-2.2C16.3,957.4,16.2,957.4,16.2,957.4
		L16.2,957.4z M16.6,958.4l3.3,1.7v14.4h-3.3C16.6,969.2,16.6,963.8,16.6,958.4z M17.2,961.5v1.6H18v-1.6H17.2z M18.6,961.5v1.6h0.8
		v-1.6H18.6z M11.9,962.9l3.9,0.8c0,3.6,0,7.2,0,10.8h-3.9V962.9z M17.2,963.8v1.6H18v-1.6H17.2z M18.6,963.8v1.6h0.8v-1.6H18.6z
		 M12.3,964.2v1.6h0.8v-1.6H12.3z M13.5,964.2v1.6h0.8v-1.6H13.5z M14.6,964.2v1.6h0.8v-1.6H14.6z M12.3,966.2v1.6h0.8v-1.6H12.3z
		 M13.5,966.2v1.6h0.8v-1.6H13.5z M14.6,966.2v1.6h0.8v-1.6H14.6z M17.2,966.2v1.6H18v-1.6H17.2z M18.6,966.2v1.6h0.8v-1.6H18.6z
		 M12.3,968.5v1.6h0.8v-1.6H12.3z M13.5,968.5v1.6h0.8v-1.6H13.5z M14.6,968.5v1.6h0.8v-1.6H14.6z M17.2,968.5v1.6H18v-1.6H17.2z
		 M18.6,968.5v1.6h0.8v-1.6H18.6z M12.3,970.9v1.6h0.8v-1.6H12.3z M13.5,970.9v1.6h0.8v-1.6H13.5z M14.6,970.9v1.6h0.8v-1.6H14.6z
		 M17.2,970.9v1.6H18v-1.6H17.2z M18.6,970.9v1.6h0.8v-1.6H18.6z"/>
</g>
<g>
	<path class="st1" d="M11.1,3.1l-0.2,1.2c0,0,0,0,0,0c0,0,0,0,0,0L12,3.8l1.1,0.6c0,0,0,0,0,0c0,0,0,0,0,0c0,0,0,0,0,0L13,3.1
		l0.9-0.8c0,0,0,0,0,0c0,0,0,0,0,0l-1.2-0.2L12.1,1c0,0,0,0-0.1,0l-0.5,1.1l-1.2,0.2c0,0,0,0,0,0c0,0,0,0,0,0L11.1,3.1z"/>
	<path class="st1" d="M16,3.1l-0.2,1.2c0,0,0,0,0,0c0,0,0,0,0,0l1.1-0.6L18,4.4c0,0,0,0,0,0c0,0,0,0,0,0c0,0,0,0,0,0l-0.2-1.2
		l0.9-0.8c0,0,0,0,0,0c0,0,0,0,0,0l-1.2-0.2L16.9,1c0,0,0,0-0.1,0l-0.5,1.1l-1.2,0.2c0,0,0,0,0,0c0,0,0,0,0,0L16,3.1z"/>
	<path class="st1" d="M6.3,3.1L6.1,4.3c0,0,0,0,0,0c0,0,0,0,0,0l1.1-0.6l1.1,0.6c0,0,0,0,0,0c0,0,0,0,0,0c0,0,0,0,0,0L8.1,3.1
		l0.9-0.8c0,0,0,0,0,0c0,0,0,0,0,0L7.7,2.1L7.2,1c0,0,0,0-0.1,0L6.6,2.1L5.4,2.3c0,0,0,0,0,0c0,0,0,0,0,0L6.3,3.1z"/>
</g>
</svg>
