<?xml version="1.0" encoding="utf-8"?>
<!-- Generator: Adobe Illustrator 21.1.0, SVG Export Plug-In . SVG Version: 6.00 Build 0)  -->
<svg version="1.1" id="Layer_1" xmlns="http://www.w3.org/2000/svg" xmlns:xlink="http://www.w3.org/1999/xlink" x="0px" y="0px"
	 viewBox="0 0 168 168" style="enable-background:new 0 0 168 168;" xml:space="preserve">
<style type="text/css">
	.st0{fill:#7C4DFF;}
	.st1{fill:#CCCCFF;}
	.st2{fill:#FFFFFF;}
	.st3{fill:#887DFF;}
</style>
<g>
	<path id="land" class="st0" d="M36.3,94.4l11.9-3l3,6l-8.9,6l-6,3l-6-8.9L36.3,94.4z M143.6,52.9l6,3v8.9l-11.9,3v-3l-6-8.9
		L143.6,52.9z M125.8,64.7l3,6l6,3l-3,11.9h-8.9l-26.8,6L84,100.3H69.1L57.2,88.4H42.2l-8.9,3l-3-3l-3,3v3l-3,2.9l3,8.9l-8.9-2.9v-6
		v-8.9l14.9-32.6L48.2,47l6,3h6L72.1,41h6l8.9,8.9v3l8.9,6l6-3l3,6l8.9,6h3v-3L125.8,64.7L125.8,64.7z M72.1,103.3h6v3h-6V103.3z
		 M81,103.3h3v3h-3V103.3z M84,109.2h3v3h-3V109.2z M51.2,124h3v3h-3V124z M48.2,118.1h3v3h-3V118.1z M57.2,112.2h3v3h-3V112.2z
		 M54.2,106.3h8.9v3h-8.9V106.3z M45.2,112.2h6v3h-6V112.2z M119.8,58.8v3h-6v-4l-6-2v-3l8.9,3h6v3
		C122.8,58.8,119.8,58.8,119.8,58.8z"/>
	<path class="st1" d="M46.1,90c-0.7,0-1.3-0.6-1.3-1.3s0.6-1.3,1.3-1.3s1.3,0.6,1.3,1.3S46.9,90,46.1,90z M46.1,85
		c-2,0-3.6,1.6-3.6,3.6c0,2.7,3.6,6.8,3.6,6.8s3.6-4,3.6-6.8C49.8,86.6,48.2,85,46.1,85z"/>
	<path class="st1" d="M84.3,90c-0.7,0-1.3-0.6-1.3-1.3s0.6-1.3,1.3-1.3s1.3,0.6,1.3,1.3S85,90,84.3,90z M84.3,85
		c-2,0-3.6,1.6-3.6,3.6c0,2.7,3.6,6.8,3.6,6.8s3.6-4,3.6-6.8C88,86.6,86.4,85,84.3,85z"/>
	<path class="st1" d="M103.7,69.9c-0.7,0-1.3-0.6-1.3-1.3c0-0.8,0.6-1.3,1.3-1.3s1.3,0.6,1.3,1.3C105,69.3,104.5,69.9,103.7,69.9z
		 M103.7,64.9c-2,0-3.6,1.6-3.6,3.6c0,2.7,3.6,6.8,3.6,6.8s3.6-4,3.6-6.8C107.4,66.5,105.8,64.9,103.7,64.9z"/>
	<path class="st1" d="M72.5,69.9c-0.7,0-1.3-0.6-1.3-1.3c0-0.8,0.6-1.3,1.3-1.3s1.3,0.6,1.3,1.3C73.8,69.3,73.2,69.9,72.5,69.9z
		 M72.5,64.9c-2,0-3.6,1.6-3.6,3.6c0,2.7,3.6,6.8,3.6,6.8s3.6-4,3.6-6.8C76.2,66.5,74.6,64.9,72.5,64.9z"/>
	<path class="st1" d="M39.9,69.9c-0.7,0-1.3-0.6-1.3-1.3c0-0.8,0.6-1.3,1.3-1.3c0.8,0,1.3,0.6,1.3,1.3
		C41.2,69.3,40.7,69.9,39.9,69.9z M39.9,64.9c-2,0-3.6,1.6-3.6,3.6c0,2.7,3.6,6.8,3.6,6.8s3.6-4,3.6-6.8
		C43.6,66.5,42,64.9,39.9,64.9z"/>
	<path class="st2" d="M116.2,53.9c-0.7,0-1.3-0.6-1.3-1.3c0-0.8,0.6-1.3,1.3-1.3c0.8,0,1.3,0.6,1.3,1.3
		C117.5,53.3,116.9,53.9,116.2,53.9z M116.2,49c-2,0-3.6,1.6-3.6,3.6c0,2.7,3.6,6.8,3.6,6.8s3.6-4,3.6-6.8
		C119.9,50.6,118.3,49,116.2,49z"/>
	<path class="st1" d="M55.8,53.9c-0.7,0-1.3-0.6-1.3-1.3c0-0.8,0.6-1.3,1.3-1.3s1.3,0.6,1.3,1.3C57.2,53.3,56.6,53.9,55.8,53.9z
		 M55.8,49c-2,0-3.6,1.6-3.6,3.6c0,2.7,3.6,6.8,3.6,6.8s3.6-4,3.6-6.8C59.5,50.6,57.9,49,55.8,49z"/>
	<path class="st1" d="M85,53.9c-0.7,0-1.3-0.6-1.3-1.3c0-0.8,0.6-1.3,1.3-1.3s1.3,0.6,1.3,1.3C86.3,53.3,85.7,53.9,85,53.9z M85,49
		c-2,0-3.6,1.6-3.6,3.6c0,2.7,3.6,6.8,3.6,6.8s3.6-4,3.6-6.8C88.6,50.6,87.1,49,85,49z"/>
	<circle class="st2" cx="60.6" cy="78.3" r="8.3"/>
	<path class="st3" d="M58.8,79c0.5,0.5,1.1,0.8,1.7,0.8s1.2-0.3,1.7-0.8l-0.3,0.8c0.1-0.2,0.6-0.3,1.1-0.2c-0.1,0.5-0.7,1-1.5,1.1
		l-1,1.5l-1-1.5c-0.7-0.1-1.2-0.5-1.5-0.9c0.6,0.1,1,0.1,1.2,0.3L58.8,79z M63.1,75.4L63.1,75.4h0.2c0,0.1,0,0.3,0,0.4
		c-0.1,0.7-0.2,1.4-0.5,1.9c-0.5,1-1.3,1.7-2.2,1.7c-1.4,0-2.5-1.5-2.7-3.5c0,0,1.1-0.2,1.7-0.4c0,0,1.2-0.4,2.6-1.5l0,0
		c0,0,0,0.1,0.1,0.1c0.1,0.2,0.4,0.8-0.1,1.2L63.1,75.4z M60.6,70.8c4.2,0,7.6,3.4,7.6,7.6c0,1.7-0.6,3.3-1.5,4.5
		c-0.3-1.5-1.4-2.7-2.8-3.2c0.7,0.1,1.3,0.2,1.3,0.2c-1.4-0.8-1.4-3.5-1.4-3.5c0.3-5.3-3.3-5.1-3.3-5.1l0,0l0,0c0,0-3.5-0.3-3.3,5.1
		c0,0,0.1,2.8-1.4,3.5c0,0,0.3,0,0.9-0.1c-1.2,0.6-2.1,1.7-2.4,3.1c-0.9-1.2-1.5-2.8-1.5-4.5C52.9,74.2,56.3,70.8,60.6,70.8z
		 M60.6,70c-4.6,0-8.3,3.7-8.3,8.3c0,4.6,3.7,8.3,8.3,8.3s8.3-3.7,8.3-8.3C68.9,73.7,65.1,70,60.6,70z"/>
	<circle class="st2" cx="120.5" cy="81.2" r="8.3"/>
	<g>
		<path class="st3" d="M120.5,73.6c4.2,0,7.6,3.4,7.6,7.6c0,1.7-0.6,3.2-1.5,4.4c-0.1-2-1.7-3.7-3.7-3.8c0,0.8-1.1,1.3-2.5,1.3
			c-1.4,0-2.5-0.6-2.5-1.3c-2,0.2-3.6,1.8-3.7,3.8c-0.9-1.2-1.5-2.8-1.5-4.4C112.9,77,116.3,73.6,120.5,73.6z M120.5,72.9
			c-4.6,0-8.3,3.7-8.3,8.3s3.7,8.3,8.3,8.3c4.6,0,8.3-3.7,8.3-8.3S125.1,72.9,120.5,72.9z"/>
		<path class="st3" d="M118.5,76.4c0,0,2.2,1,3.6,0c0,0,0.8,1.3,0.6,1.9l0.4-0.5c0,0.1,0,0.3,0,0.4c-0.1,2-1.3,3.5-2.7,3.5
			c-1.4,0-2.5-1.5-2.7-3.4c0.1,0,0.3,0.1,0.4,0.2C118.2,78.5,117.8,76.7,118.5,76.4z M117.4,78.2L117.4,78.2c0.2,2.3,1.5,4,3.1,4
			c1.6,0,2.9-1.7,3.1-4c0-0.1,0.1-0.3,0.1-0.5s0-0.3-0.1-0.5c-0.2-1.6-1.5-2.8-3.1-2.8s-2.8,1.2-3.1,2.8c0,0.1-0.1,0.3-0.1,0.5
			c0,0.1,0,0.1,0,0.2C117.3,78,117.4,78.1,117.4,78.2z"/>
	</g>
	<circle class="st2" cx="37.8" cy="53.2" r="8.3"/>
	<path class="st3" d="M35,50.6c0-0.1,0.1-0.1,0.1-0.1s0,0,0.1,0s0.1,0,0.1,0.1l0,0l0,0c0-0.1,0.2-1.3,1.4-1.2c0,0,1,0.3,1.9,0.1
		c0.1,0,0.2,0,0.3,0c0.4,0,0.6,0.2,0.9,0.3c0-0.1-0.1-0.3-0.1-0.3c0.1,0,0.1,0,0.1,0.1c0.2,0.2,0.4,0.6,0.6,1.1l0,0l0,0l0,0l0,0
		c0.1,0,0.1-0.1,0.1-0.1l0,0c0.1,0.1,0.2,0.3,0.1,0.7c-0.1,0.3-0.1,0.5-0.3,0.6c-0.1,0.1-0.1,0.1-0.1,0.1h-0.1
		c-0.2,0.8-0.7,1.5-1.2,1.9c-0.3,0.3-0.7,0.4-1.1,0.4s-0.8-0.1-1.1-0.4c-0.6-0.4-1-1.2-1.2-1.9h-0.1c-0.1,0-0.1,0-0.1-0.1
		s-0.2-0.3-0.2-0.6c0,0,0,0,0-0.1C35,50.9,35,50.8,35,50.6z M35,52c0.3,0.7,0.7,1.4,1.2,1.9c0.3,0.3,0.6,0.5,1,0.6
		c0.2,0.1,0.5,0.1,0.7,0.1c0.3,0,0.5-0.1,0.7-0.1c0.3-0.1,0.7-0.3,1-0.7c0.5-0.5,0.9-1.2,1.2-1.9c0.2-0.1,0.4-0.4,0.5-0.9
		c0.1-0.5,0-1-0.2-1c0-0.1,0-0.3,0-0.3c0-1.8-1.1-2.9-2.8-3.1C36.7,46.5,35.6,47,35,48c-0.1,0.3-0.3,0.8-0.3,1.2
		c-0.1,0.2-0.1,0.5-0.1,0.7l0,0l0,0l0,0c-0.2,0.1-0.3,0.5-0.2,1C34.6,51.5,34.8,52,35,52z"/>
	<path class="st3" d="M37.8,45.6c4.2,0,7.6,3.4,7.6,7.6c0,1.7-0.6,3.2-1.4,4.4c0-0.1,0-0.2-0.1-0.3c-0.7-2.4-2-2.5-2.3-2.6
		c-0.6-0.1-1.2-0.1-1.6-0.2c-0.1,0.3-1,1.5-1.7,2.2l-0.3-1.1c0.2-0.1,0.3-0.4,0.3-0.6h-1.1c0,0.2,0.1,0.5,0.3,0.6l-0.3,1.1
		c-0.7-0.7-1.7-1.9-1.7-2.2c-0.3,0.1-1,0.1-1.6,0.2c-0.3,0.1-1.6,0.1-2.3,2.6c0,0.1-0.1,0.2-0.1,0.3c-0.9-1.2-1.4-2.8-1.4-4.4
		C30.2,49,33.6,45.6,37.8,45.6z M37.8,44.9c-4.6,0-8.3,3.7-8.3,8.3s3.7,8.3,8.3,8.3s8.3-3.7,8.3-8.3C46.1,48.6,42.5,44.9,37.8,44.9z
		"/>
</g>
</svg>
