<?xml version="1.0" encoding="utf-8"?>
<!-- Generator: Adobe Illustrator 21.1.0, SVG Export Plug-In . SVG Version: 6.00 Build 0)  -->
<svg version="1.1" id="Layer_1" xmlns="http://www.w3.org/2000/svg" xmlns:xlink="http://www.w3.org/1999/xlink" x="0px" y="0px"
	 viewBox="0 0 168 144" style="enable-background:new 0 0 168 144;" xml:space="preserve">
<style type="text/css">
	.st0{fill:#887DFF;}
</style>
<g>
	<path class="st0" d="M77.3,67.8h2.4c1.5,0,3.1,0.1,4.6,0c2.7-0.2,4.4-2,4.5-4.8c0.2-3-1.1-5.1-3.9-5.5c-1.8-0.2-3.6-0.2-5.4-0.1
		c-0.6,0-1.2,0.2-1.6,0.6c-0.4,0.4-0.7,1-0.7,1.5C77.2,62.2,77.3,64.9,77.3,67.8L77.3,67.8z M77.3,86.3c2.9,0,5.8,0.2,8.6-0.1
		c3.1-0.3,4.8-2.7,4.7-6c-0.1-3.3-2.1-5.4-5.2-5.6c-1.8-0.1-3.6-0.1-5.4,0c-1.4,0-2.5,0.8-2.5,2.2C77.2,79.9,77.3,83.1,77.3,86.3z
		 M93,70.9c2.9,1.3,5.1,3.9,5.8,7c1.7,6.8-1.9,13.1-8.8,15s-14,0.5-21.2,0.9c0-0.8,0-1.4,0-1.9c0-12,0-24,0-36
		c0-4.1,1.6-5.7,5.7-5.7c4.2,0,8.4-0.2,12.6,0.3c8.4,1,12.9,8.7,9.3,15.9C95.6,67.9,94.2,69.3,93,70.9z"/>
	<path class="st0" d="M84,32.6c21.7,0,39.3,17.6,39.3,39.2s-17.6,39.2-39.3,39.2S44.7,93.5,44.7,71.9C44.8,50.2,62.3,32.7,84,32.6z
		 M83.8,8c-0.1,0-0.2,0-0.3,0.1c-0.6,0.1-1.2,0.4-1.7,0.8l-0.1,0.1c-4.7,3.2-9.6,6.2-14.8,8.7c-8.9,4.5-20.6,8.9-30.9,8.9h-3.2v45.7
		c0,23.3,12.7,39.4,25.2,49.3c7.5,6,15.9,10.7,24.9,14.1l1,0.4l1-0.4c9-3.3,17.4-8.1,24.9-14.1c12.4-9.9,25.2-26,25.2-49.3V26.5
		h-3.2c-10.3,0-22-4.4-30.9-8.9c-5.2-2.6-10.1-5.5-14.8-8.8c-0.5-0.4-1.1-0.7-1.7-0.8H83.8z"/>
</g>
</svg>
