<?xml version="1.0" encoding="UTF-8"?>
<svg width="24px" height="25px" viewBox="0 0 24 25" version="1.1" xmlns="http://www.w3.org/2000/svg" xmlns:xlink="http://www.w3.org/1999/xlink">
    <!-- Generator: Sketch 51.3 (57544) - http://www.bohemiancoding.com/sketch -->
    <title>ic_cashback</title>
    <desc>Created with Sketch.</desc>
    <defs>
        <path d="M10,0.454554545 C4.47718182,0.454554545 -4.54529072e-08,4.93173636 -4.54529072e-08,10.4545545 C-4.54529072e-08,15.9773727 4.47718182,20.4545545 10,20.4545545 C15.5228182,20.4545545 20,15.9773727 20,10.4545545 C20,4.93173636 15.5228182,0.454554545 10,0.454554545 Z M4.43181818,5.45455455 C4.84772727,5.43319091 5.29540909,5.68819091 5.41190909,6.09373636 L6.179,8.63637273 L8.36645455,8.63637273 L9.13354545,6.09373636 C9.24940909,5.72891818 9.61722727,5.45455455 10,5.45455455 C10.3827727,5.45455455 10.7505,5.72891818 10.8664545,6.09373636 L11.6335455,8.63637273 L13.821,8.63637273 L14.5880909,6.09373636 C14.6692727,5.70046364 15.0533182,5.47137273 15.4545455,5.45455455 C16.0595,5.4291 16.5485455,6.05823636 16.321,6.61932727 L15.7102273,8.63637273 L15.9090909,8.63637273 C16.4111818,8.63637273 16.8181818,9.04341818 16.8181818,9.54546364 C16.8181818,10.0475091 16.4111818,10.4545545 15.9090909,10.4545545 L15.1704545,10.4545545 L14.9005455,11.3636455 L15,11.3636455 C15.5020909,11.3636455 15.9090909,11.7706909 15.9090909,12.2727364 C15.9090909,12.7747818 15.5020909,13.1818273 15,13.1818273 L14.3465909,13.1818273 L13.5937273,15.7102364 C13.4777727,16.0750091 13.1100455,16.3636455 12.7272727,16.3636455 C12.3445,16.3636455 11.9767273,16.0750091 11.8608182,15.7102364 L11.1079545,13.1818273 L8.89204545,13.1818273 L8.13918182,15.7102364 C8.02322727,16.0750091 7.6555,16.3636455 7.27272727,16.3636455 C6.88995455,16.3636455 6.52218182,16.0750091 6.40627273,15.7102364 L5.65340909,13.1818273 L5,13.1818273 C4.49790909,13.1818273 4.09090909,12.7747818 4.09090909,12.2727364 C4.09090909,11.7706909 4.49790909,11.3636455 5,11.3636455 L5.09945455,11.3636455 L4.82954545,10.4545545 L4.09090909,10.4545545 C3.58881818,10.4545545 3.18181818,10.0475091 3.18181818,9.54546364 C3.18181818,9.04341818 3.58881818,8.63637273 4.09090909,8.63637273 L4.28977273,8.63637273 L3.679,6.61932727 C3.51668182,6.10850909 3.899,5.51319091 4.43181818,5.45455455 Z M6.71872727,10.4545545 L6.98863636,11.3636455 L7.55681818,11.3636455 L7.82672727,10.4545545 L6.71872727,10.4545545 Z M9.71590909,10.4545545 L9.446,11.3636455 L10.554,11.3636455 L10.2840909,10.4545545 L9.71590909,10.4545545 Z M12.1732727,10.4545545 L12.4431818,11.3636455 L13.0113636,11.3636455 L13.2812727,10.4545545 L12.1732727,10.4545545 Z" id="path-1"></path>
    </defs>
    <g id="Symbols" stroke="none" stroke-width="1" fill="none" fill-rule="evenodd">
        <g id="Side-Menu_Extend" transform="translate(-32.000000, -180.000000)">
            <g id="*/-Text-/-Active-/-Intent" transform="translate(32.000000, 176.000000)" fill="#262626" font-family="NotoSansCJKkr-Regular, Noto Sans CJK KR" font-size="18" font-weight="normal" letter-spacing="0.15">
                <text id="텍스트-메뉴">
                    <tspan x="31" y="21">캐시백 신청</tspan>
                </text>
            </g>
            <g id="Icon-/-Cashback" transform="translate(32.000000, 180.000000)">
                <g id="✱-/-Color-/-Icons-/-Black-/-Inactive" transform="translate(2.000000, 2.000000)">
                    <mask id="mask-2" fill="white">
                        <use xlink:href="#path-1"></use>
                    </mask>
                    <g id="Mask" fill-rule="nonzero"></g>
                    <g id="✱-/-Color-/-Primary-/-Black" mask="url(#mask-2)" fill="#262626">
                        <g transform="translate(-2.000000, -2.000000)" id="Rectangle">
                            <rect x="0" y="0" width="24" height="24"></rect>
                        </g>
                    </g>
                </g>
            </g>
        </g>
    </g>
</svg>