<!--SVG Animation-->
<svg class="usp_svg" width="120px" height="124px" viewBox="0 0 120 124" version="1.1" xmlns="http://www.w3.org/2000/svg" xmlns:xlink="http://www.w3.org/1999/xlink">
<!-- Generator: Sketch 51.3 (57544) - http://www.bohemiancoding.com/sketch -->
<title>Shape</title>
<desc>Created with Sketch.</desc>
<!--호텔 시작-->
<g id="hotel" stroke="none" stroke-width="1" fill="none" fill-rule="evenodd">
    <g id="Message-Rolling1---marker-appear" transform="translate(-340.000000, -152.000000)" fill="#008767" fill-rule="nonzero">
        <g id="Group-4" transform="translate(340.000000, 152.000000)">
            <path d="M88.6223937,0.50312 C73.8867881,4.86513333 59.0922894,9.43273333 44.3526741,13.9175733 C43.2680286,14.2561333 42.4700285,15.3600933 42.4856287,16.50048 L42.4856287,38.7884667 L1.53509865,58.07692 C0.624392045,58.50252 0.000437071192,59.4846667 -2.76156768e-05,60.4932 L-2.76156768e-05,120.483333 C0.000105152,121.879333 1.26502264,123.149467 2.65532592,123.1496 L116.835525,123.1496 C118.225828,123.149467 119.490746,121.879333 119.490879,120.483333 L119.490879,17.8336 C119.497517,16.8646933 118.932604,15.9132 118.080222,15.4589867 L90.1990099,0.794733333 C89.7197318,0.5388 89.1610454,0.435453333 88.6223937,0.50312 Z M91.6096664,7.58528 L114.180171,19.4166667 L114.180171,117.817067 L91.6096664,117.817067 C91.6096664,81.0732 91.6096664,44.3291867 91.6096664,7.58528 Z M95.5926967,28.4985067 L95.5926967,39.1634133 L100.903404,39.1634133 L100.903404,28.4985067 L95.5926967,28.4985067 Z M104.886434,28.4985067 L104.886434,39.1634133 L110.197141,39.1634133 L110.197141,28.4985067 L104.886434,28.4985067 Z M59.7454267,38.4135333 L86.2989594,43.9542533 C86.2989594,68.5752 86.2989594,93.1961333 86.2989594,117.817067 L59.7454267,117.817067 L59.7454267,38.4135333 Z M95.5926967,44.4958533 L95.5926967,55.1607867 L100.903404,55.1607867 L100.903404,44.4958533 L95.5926967,44.4958533 Z M104.886434,44.4958533 L104.886434,55.1607867 L110.197141,55.1607867 L110.197141,44.4958533 L104.886434,44.4958533 Z M62.4007775,47.16212 L62.4007775,57.8270533 L67.7114846,57.8270533 L67.7114846,47.16212 L62.4007775,47.16212 Z M70.3668382,47.16212 L70.3668382,57.8270533 L75.6775452,57.8270533 L75.6775452,47.16212 L70.3668382,47.16212 Z M78.3328988,47.16212 L78.3328988,57.8270533 L83.6436058,57.8270533 L83.6436058,47.16212 L78.3328988,47.16212 Z M62.4007775,60.4932 L62.4007775,71.1581333 L67.7114846,71.1581333 L67.7114846,60.4932 L62.4007775,60.4932 Z M70.3668382,60.4932 L70.3668382,71.1581333 L75.6775452,71.1581333 L75.6775452,60.4932 L70.3668382,60.4932 Z M78.3328988,60.4932 L78.3328988,71.1581333 L83.6436058,71.1581333 L83.6436058,60.4932 L78.3328988,60.4932 Z M95.5926967,60.4932 L95.5926967,71.1581333 L100.903404,71.1581333 L100.903404,60.4932 L95.5926967,60.4932 Z M104.886434,60.4932 L104.886434,71.1581333 L110.197141,71.1581333 L110.197141,60.4932 L104.886434,60.4932 Z M62.4007775,76.4906667 L62.4007775,87.1554667 L67.7114846,87.1554667 L67.7114846,76.4906667 L62.4007775,76.4906667 Z M70.3668382,76.4906667 L70.3668382,87.1554667 L75.6775452,87.1554667 L75.6775452,76.4906667 L70.3668382,76.4906667 Z M78.3328988,76.4906667 L78.3328988,87.1554667 L83.6436058,87.1554667 L83.6436058,76.4906667 L78.3328988,76.4906667 Z M95.5926967,76.4906667 L95.5926967,87.1554667 L100.903404,87.1554667 L100.903404,76.4906667 L95.5926967,76.4906667 Z M104.886434,76.4906667 L104.886434,87.1554667 L110.197141,87.1554667 L110.197141,76.4906667 L104.886434,76.4906667 Z M62.4007775,92.488 L62.4007775,103.152933 L67.7114846,103.152933 L67.7114846,92.488 L62.4007775,92.488 Z M70.3668382,92.488 L70.3668382,103.152933 L75.6775452,103.152933 L75.6775452,92.488 L70.3668382,92.488 Z M78.3328988,92.488 L78.3328988,103.152933 L83.6436058,103.152933 L83.6436058,92.488 L78.3328988,92.488 Z M95.5926967,92.488 L95.5926967,103.152933 L100.903404,103.152933 L100.903404,92.488 L95.5926967,92.488 Z M104.886434,92.488 L104.886434,103.152933 L110.197141,103.152933 L110.197141,92.488 L104.886434,92.488 Z" id="Shape"></path>
        </g>
    </g>
</g>
<!--호텔끝-->
<!--마커 시작-->
   <defs><style>.cls-1{fill:#ffffff;}</style></defs><title>marker</title><path class="cls-1" id="marker" d="M27,25.87a5.64,5.64,0,1,1,5.64-5.64A5.64,5.64,0,0,1,27,25.87ZM27,4.45A15.77,15.77,0,0,0,11.22,20.24C11.22,32.07,27,49.55,27,49.55S42.78,32.07,42.78,20.24A15.77,15.77,0,0,0,27,4.45Z" transform="translate(0, 0)"/>
   <animateTransform 
   		  xlink:href="#marker"
   		  attributeName="transform"
          attributeType="XML"
          type="translate"
          from="0 0"
          to="0 60"
          dur="0.2s"
          values = "0 0; 0 15; 0 30; 0 45; 0 60"
          keyTimes = "0; 0.4; 0.7; 0.8; 1"
        repeatCount="1"
        fill="freeze"/>
    <animateTransform 
        xlink:href="#marker"
        attributeName="transform"
        attributeType="XML"
        type="translate"
        begin="0.5s"
        from="0 60"
        to="0 120"
        dur="0.2s"
        values = "0 60; 0 75; 0 90; 0 105; 0 120"
        keyTimes = "0; 0.4; 0.7; 0.8; 1"
        repeatCount="1"
        fill="freeze"/>
     <animate
   		  xlink:href="#marker"
   		  attributeName="opacity"
          attributeType="XML"
          from="0"
          to="1"
          dur="0.2s"
        repeatCount="1"
          fill="freeze"/>
<!--마커끝-->
<!--캐시백-->
<style type="text/css">
.st0{fill:#FDD835;}
</style>
<path class="st0" id="cash" d="M24.3,20l0.5,1.8H26l0.5-1.8H24.3z M19.4,20l-0.5,1.8h2.2L20.6,20H19.4z M13.4,20l0.5,1.8h1.1l0.5-1.8H13.4z
   M8.9,10c0.8,0,1.7,0.5,2,1.3l1.5,5.1h4.4l1.5-5.1c0.2-0.7,1-1.3,1.7-1.3s1.5,0.5,1.7,1.3l1.5,5.1h4.4l1.5-5.1
  c0.2-0.8,0.9-1.2,1.7-1.3c1.2-0.1,2.2,1.2,1.7,2.3l-1.2,4h0.4c1,0,1.8,0.8,1.8,1.8c0,1-0.8,1.8-1.8,1.8h-1.5l-0.5,1.8H30
  c1,0,1.8,0.8,1.8,1.8S31,25.5,30,25.5h-1.3l-1.5,5.1c-0.2,0.7-1,1.3-1.7,1.3c-0.8,0-1.5-0.6-1.7-1.3l-1.5-5.1h-4.4l-1.5,5.1
  c-0.2,0.7-1,1.3-1.7,1.3c-0.8,0-1.5-0.6-1.7-1.3l-1.5-5.1H10c-1,0-1.8-0.8-1.8-1.8S9,21.8,10,21.8h0.2L9.7,20H8.2
  c-1,0-1.8-0.8-1.8-1.8c0-1,0.8-1.8,1.8-1.8h0.4l-1.2-4C7,11.3,7.8,10.1,8.9,10z M20,0C9,0,0,9,0,20s9,20,20,20s20-9,20-20S31,0,20,0
  z" transform="translate(8, 128)"/>  
  <animateTransform 
        xlink:href="#cash"
        attributeName="transform"
        attributeType="XML"
        type="translate"
        begin="0.65s"
        from="8 120"
        to="8 72"
        dur="0.2s"
        repeatCount="1"
        fill="freeze"/> 
</svg>