<?xml version="1.0" encoding="utf-8"?>
<!-- Generator: Adobe Illustrator 21.1.0, SVG Export Plug-In . SVG Version: 6.00 Build 0)  -->
<svg version="1.1" id="Layer_1" xmlns="http://www.w3.org/2000/svg" xmlns:xlink="http://www.w3.org/1999/xlink" x="0px" y="0px"
	 viewBox="0 0 190 124" style="enable-background:new 0 0 190 124;" xml:space="preserve">

<!--MAP-->
<g id="map">
	<defs>
		<style>.cls-1,.cls-4{fill:none;}.cls-2{clip-path:url(#clip-path);}.cls-3{fill:#00695C;}.cls-4{stroke:#00df9a;stroke-miterlimit:10;stroke-width:2px;}</style>
		<clipPath id="clip-path" transform="translate(-1.47 -13.29)">
			<path class="cls-1" d="M173.65,56.55,131.4,67.33,82.94,51.58l26-37.29h51.71ZM14.44,62.77,29.31,14.29H109l-26,37.29L131.4,67.33l42.26-10.78,13.73,44.74H2.61L14.44,62.77l68.5-11.19Z"/>
		</clipPath>
	</defs>
	<title>map</title>
	<g class="cls-2">
		<path class="cls-3" d="M173.65,56.55,131.4,67.33,82.94,51.58l26-37.29h51.71ZM14.44,62.77,29.31,14.29H109l-26,37.29L131.4,67.33l42.26-10.78,13.73,44.74H2.61L14.44,62.77l68.5-11.19Z" transform="translate(-1.47 -13.29)"/>
	</g>
	<path class="cls-4" d="M173.86,56.55,131.61,67.33,83.15,51.58l26-37.29H160.9ZM14.64,62.77,29.52,14.29h79.67l-26,37.29,48.46,15.75,42.26-10.78,13.73,44.74H2.82L14.64,62.77l68.5-11.19Z" transform="translate(-1.47 -13.29)"/>
</g>


<!--LAND-->
<style type="text/css">
	.st0{fill:#00695C;}
	.marker{fill:#FFFFFF;}
	.profile{fill-rule:evenodd;clip-rule:evenodd;fill:#00DF9A;}
</style>
<path class="st0" id="land" d="M26.2,77l17.2-4.3l4.3,8.6l-12.9,8.6l-8.6,4.3l-8.6-12.8L26.2,77z M181,17.1l8.6,4.3v12.8l-17.2,4.3v-4.3
	l-8.6-12.8L181,17.1z M155.2,34.2l4.3,8.6l8.6,4.3l-4.3,17.1h-12.9l-38.7,8.6L95,85.5H73.5L56.3,68.4H34.8l-12.9,4.3l-4.3-4.3
	l-4.3,4.3V77L9,81.2l4.3,12.8L0.4,89.8v-8.6V68.4l21.5-47L43.4,8.6l8.6,4.3h8.6L77.8,0h8.6l12.9,12.8v4.3l12.9,8.6l8.6-4.3l4.3,8.6
	l12.9,8.6h4.3v-4.3H155.2z M77.8,89.8h8.6v4.3h-8.6V89.8z M90.7,89.8H95v4.3h-4.3V89.8z M95,98.3h4.3v4.3H95V98.3z M47.7,119.7H52
	v4.3h-4.3V119.7z M43.4,111.2h4.3v4.3h-4.3V111.2z M56.3,102.6h4.3v4.3h-4.3V102.6z M52,94.1h12.9v4.3H52V94.1z M39.1,102.6h8.6v4.3
	h-8.6V102.6z M146.6,25.7v4.3H138v-5.7l-8.6-2.9v-4.3l12.9,4.3h8.6v4.3H146.6z"/>

<!--MARKERS-->

<path class="marker user1 line1"  d="M40.4,70.6c-1,0,-1.9,-0.8,-1.9,-1.9s0.8,-1.9,1.9,-1.9s1.9,0.8,1.9,1.9s-0.8,1.9,-1.9,1.9zm0,-7.1c-2.9,0,-5.2,2.3,-5.2,5.2c0,3.9,5.2,9.8,5.2,9.8s5.2,-5.8,5.2,-9.8c0.1,-2.9,-2.2,-5.2,-5.2,-5.2z"/>
<path class="marker user2" d="M95.4,70.6c-1,0-1.9-0.8-1.9-1.9s0.8-1.9,1.9-1.9s1.9,0.8,1.9,1.9S96.5,70.6,95.4,70.6z M95.4,63.5
	c-2.9,0-5.2,2.3-5.2,5.2c0,3.9,5.2,9.8,5.2,9.8s5.2-5.8,5.2-9.8C100.7,65.8,98.4,63.5,95.4,63.5z"/>
<path class="marker user2 line2" d="M123.4,41.6c-1,0-1.9-0.8-1.9-1.9s0.8-1.9,1.9-1.9s1.9,0.8,1.9,1.9S124.5,41.6,123.4,41.6z M123.4,34.5
	c-2.9,0-5.2,2.3-5.2,5.2c0,3.9,5.2,9.8,5.2,9.8s5.2-5.8,5.2-9.8C128.7,36.8,126.4,34.5,123.4,34.5z"/>
<path class="marker user2 line2" d="M78.4,41.6c-1,0-1.9-0.8-1.9-1.9s0.8-1.9,1.9-1.9s1.9,0.8,1.9,1.9S79.5,41.6,78.4,41.6z M78.4,34.5
	c-2.9,0-5.2,2.3-5.2,5.2c0,3.9,5.2,9.8,5.2,9.8s5.2-5.8,5.2-9.8C83.7,36.8,81.4,34.5,78.4,34.5z"/>
<path class="marker user1 line2" d="M31.4,41.6c-1,0-1.9-0.8-1.9-1.9s0.8-1.9,1.9-1.9s1.9,0.8,1.9,1.9S32.5,41.6,31.4,41.6z M31.4,34.5
	c-2.9,0-5.2,2.3-5.2,5.2c0,3.9,5.2,9.8,5.2,9.8s5.2-5.8,5.2-9.8C36.7,36.8,34.4,34.5,31.4,34.5z"/>
<path class="marker user1 line3" d="M141.4,18.6c-1,0-1.9-0.8-1.9-1.9s0.8-1.9,1.9-1.9s1.9,0.8,1.9,1.9S142.5,18.6,141.4,18.6z M141.4,11.5
	c-2.9,0-5.2,2.3-5.2,5.2c0,3.9,5.2,9.8,5.2,9.8s5.2-5.8,5.2-9.8C146.7,13.8,144.4,11.5,141.4,11.5z"/>
<path class="marker user3 line3" d="M54.4,18.6c-1,0-1.9-0.8-1.9-1.9s0.8-1.9,1.9-1.9s1.9,0.8,1.9,1.9S55.5,18.6,54.4,18.6z M54.4,11.5
	c-2.9,0-5.2,2.3-5.2,5.2c0,3.9,5.2,9.8,5.2,9.8s5.2-5.8,5.2-9.8C59.7,13.8,57.4,11.5,54.4,11.5z"/>
<path class="marker user3 line3" d="M96.4,18.6c-1,0-1.9-0.8-1.9-1.9s0.8-1.9,1.9-1.9s1.9,0.8,1.9,1.9S97.5,18.6,96.4,18.6z M96.4,11.5
	c-2.9,0-5.2,2.3-5.2,5.2c0,3.9,5.2,9.8,5.2,9.8s5.2-5.8,5.2-9.8C101.7,13.8,99.4,11.5,96.4,11.5z"/>

<!--PROFILE1-->
<g class="user1 profile" id="profile1">
	<circle cx="61.2" cy="53.8" r="12"/>
	<path class="marker" d="M58.7,54.8c0.7,0.7,1.6,1.1,2.5,1.1c0.9,0,1.8-0.4,2.5-1.1L63.2,56c0.2-0.3,0.8-0.4,1.6-0.3
		c-0.1,0.7-1,1.4-2.2,1.6l-1.4,2.2l-1.4-2.2c-1-0.2-1.8-0.7-2.1-1.3c0.8,0.1,1.5,0.2,1.7,0.5L58.7,54.8z M64.9,49.6L64.9,49.6l0.3,0
		c0,0.2,0,0.4,0,0.6c-0.1,1-0.3,2-0.7,2.8c-0.7,1.4-1.9,2.4-3.2,2.4c-2,0-3.6-2.2-3.9-5c0,0,1.6-0.3,2.5-0.6c0,0,1.7-0.6,3.8-2.1
		c0,0,0,0,0,0c0,0,0,0.1,0.1,0.1c0.2,0.3,0.6,1.2-0.2,1.7L64.9,49.6z M61.2,42.9c6.1,0,11,4.9,11,11c0,2.4-0.8,4.7-2.1,6.5
		c-0.4-2.2-2-3.9-4-4.6c1,0.1,1.9,0.3,1.9,0.3c-2-1.1-2-5.1-2-5.1c0.4-7.7-4.7-7.3-4.7-7.3l0,0l0,0c0,0-5.1-0.4-4.7,7.3
		c0,0,0.1,4-2,5.1c0,0,0.5,0,1.3-0.1c-1.8,0.8-3.1,2.4-3.4,4.4c-1.3-1.8-2.1-4.1-2.1-6.5C50.2,47.8,55.1,42.9,61.2,42.9z M61.2,41.8
		c-6.6,0-12,5.4-12,12c0,6.6,5.4,12,12,12c6.6,0,12-5.4,12-12C73.2,47.2,67.8,41.8,61.2,41.8z"/>
</g>

<!--PROFILE2-->
<g class="user2 profile" id="profile2">
	<circle cx="147.7" cy="58" r="12"/>
	<g>
		<path class="marker" d="M147.7,47c6.1,0,11,4.9,11,11c0,2.4-0.8,4.6-2.1,6.4c-0.2-2.9-2.4-5.3-5.3-5.5c0,1.1-1.6,1.9-3.6,1.9
			s-3.6-0.9-3.6-1.9c-2.9,0.3-5.2,2.6-5.3,5.5c-1.3-1.8-2.1-4-2.1-6.4C136.7,51.9,141.6,47,147.7,47z M147.7,46c-6.6,0-12,5.4-12,12
			c0,6.6,5.4,12,12,12c6.6,0,12-5.4,12-12C159.7,51.4,154.3,46,147.7,46z"/>
		<path class="marker" d="M144.7,51.1c0,0,3.1,1.5,5.2,0c0,0,1.2,1.9,0.9,2.7l0.6-0.7c0,0.2,0,0.4,0,0.6c-0.2,2.9-1.9,5.1-3.9,5.1
			c-2,0-3.6-2.1-3.9-4.9c0.2,0,0.4,0.1,0.6,0.3C144.3,54.1,143.8,51.5,144.7,51.1z M143.1,53.7c0,0,0,0.1,0,0.1
			c0.3,3.2,2.1,5.6,4.4,5.6c2.3,0,4.2-2.5,4.4-5.8c0-0.2,0.1-0.5,0.1-0.7s0-0.5-0.1-0.7c-0.3-2.3-2.2-4-4.4-4c-2.2,0-4.1,1.7-4.4,4
			c0,0.2-0.1,0.5-0.1,0.7c0,0.1,0,0.2,0,0.3C143,53.4,143.1,53.5,143.1,53.7z"/>
	</g>
</g>

<!--PROFILE3-->
<g class="user3 profile" id="profile3">
	<circle cx="28.4" cy="17.6" r="12"/>
	<path class="marker" d="M24.4,13.9c0-0.1,0.1-0.2,0.1-0.2c0,0,0,0,0.1,0c0.1,0,0.1,0,0.2,0.1c0,0,0,0,0,0c0,0,0,0,0,0
		c0-0.2,0.3-1.9,2-1.8c0,0,1.5,0.5,2.8,0.1c0.1,0,0.3,0,0.4,0c0.6,0,0.9,0.3,1.3,0.5c0-0.2-0.2-0.4-0.1-0.5c0.1,0,0.1,0,0.2,0.1
		c0.3,0.3,0.6,0.8,0.8,1.6c0,0,0,0,0,0c0,0,0,0,0,0c0,0,0,0,0,0l0,0c0.1,0,0.1-0.1,0.2-0.1c0,0,0,0,0,0c0.2,0.1,0.3,0.5,0.2,1
		c-0.1,0.4-0.2,0.7-0.4,0.8c-0.1,0.1-0.1,0.1-0.2,0.1c0,0-0.1,0-0.1,0c-0.3,1.1-1,2.1-1.8,2.7c-0.5,0.4-1,0.6-1.6,0.6
		c-0.6,0-1.1-0.2-1.6-0.6c-0.8-0.6-1.5-1.7-1.8-2.8c0,0-0.1,0-0.1,0c-0.1,0-0.1,0-0.2-0.1c-0.1-0.1-0.3-0.4-0.3-0.8c0,0,0,0,0-0.1
		C24.3,14.3,24.3,14.1,24.4,13.9z M24.3,15.8c0.4,1,1,2,1.7,2.7c0.4,0.4,0.9,0.7,1.4,0.9c0.3,0.1,0.7,0.2,1,0.2c0.4,0,0.7-0.1,1-0.2
		c0.5-0.2,1-0.5,1.4-1c0.7-0.7,1.3-1.7,1.7-2.7c0.3-0.1,0.6-0.6,0.7-1.3c0.1-0.7,0-1.4-0.3-1.5c0-0.2,0-0.4,0-0.5
		c0-2.6-1.6-4.2-4-4.4c-2.1-0.1-3.7,0.7-4.5,2.1c-0.2,0.5-0.4,1.1-0.4,1.7c-0.1,0.3-0.1,0.7-0.1,1h0c0,0,0,0,0,0c0,0,0,0,0,0
		c-0.3,0.1-0.5,0.7-0.3,1.5C23.7,15.2,24,15.8,24.3,15.8z"/>
	<path class="marker" d="M28.4,6.6c6.1,0,11,4.9,11,11c0,2.4-0.8,4.6-2,6.4c0-0.1,0-0.3-0.1-0.4c-1-3.5-2.9-3.6-3.3-3.7
		c-0.8-0.2-1.8-0.1-2.3-0.3c-0.1,0.5-1.5,2.2-2.5,3.2l-0.4-1.6c0.3-0.2,0.4-0.6,0.4-0.9h-1.6c0,0.3,0.1,0.7,0.4,0.9l-0.4,1.6
		c-1-1-2.4-2.7-2.5-3.2c-0.5,0.2-1.5,0.1-2.3,0.3c-0.4,0.1-2.3,0.2-3.3,3.7c0,0.1-0.1,0.3-0.1,0.4c-1.3-1.8-2-4-2-6.4
		C17.5,11.5,22.4,6.6,28.4,6.6z M28.4,5.6c-6.6,0-12,5.4-12,12c0,6.6,5.4,12,12,12s12-5.4,12-12C40.4,10.9,35.1,5.6,28.4,5.6z"/>
</g>
</svg>